<svg width="955" height="82" viewBox="0 0 955 82" fill="none" xmlns="http://www.w3.org/2000/svg">
<rect x="2" y="2" width="78" height="78" rx="39" stroke="#0C6DFA" stroke-width="3" stroke-miterlimit="10"/>
<path fill-rule="evenodd" clip-rule="evenodd" d="M31.6699 27V21.3844H26.9618C23.6498 21.3844 20.9648 24.0694 20.9648 27.3814V33.0288H17.9648V27.3814C17.9648 22.4125 21.9929 18.3844 26.9618 18.3844H31.6699V14.5556V13L39.3063 20L31.6699 27ZM47.0433 21.3844V18.3844H53.8578C58.8266 18.3844 62.8547 22.4125 62.8547 27.3814V32.0909H67.0226H68.5781L61.5781 39.7273L54.5781 32.0909H59.8547V27.3814C59.8547 24.0694 57.1698 21.3844 53.8578 21.3844H47.0433ZM48.2148 67.4446V63.2743H53.8578C58.8266 63.2743 62.8547 59.2462 62.8547 54.2774V46.3026H59.8547V54.2774C59.8547 57.5894 57.1698 60.2743 53.8578 60.2743H48.2148V55.0001L40.5785 62.0002L48.2148 69.0002V67.4446ZM20.9648 47.3636V54.2774C20.9648 57.5894 23.6498 60.2743 26.9618 60.2743H33.7695V63.2743H26.9618C21.9929 63.2743 17.9648 59.2462 17.9648 54.2774V47.3636H14.1337H12.5781L19.5781 39.7273L26.5782 47.3636H20.9648Z" fill="url(#paint0_radial_1028_5887)"/>
<path d="M43.2441 35.004H44.1795V35.9393H43.2441V35.004Z" fill="url(#paint1_linear_1028_5887)"/>
<path fill-rule="evenodd" clip-rule="evenodd" d="M38.3404 27.8077H40.13H40.7894H42.3906L42.9558 29.4089L43.5209 31.0102C44.7454 34.2127 47.2886 36.7558 50.4911 37.9803L52.0923 38.5455L53.5994 39.1106V40.7119V41.3712V43.1608L51.9039 43.6318L51.0562 43.9144C47.477 44.9505 44.6512 47.682 43.3325 51.1671L42.9558 52.2032L42.3906 53.7102H40.7894H40.13H38.3404L37.8695 52.0148L37.7753 51.7322C36.645 47.8704 33.6309 44.8563 29.769 43.726L29.4865 43.6318L27.791 43.1608V41.3712V40.7119V39.1106L29.2981 38.5455L30.3342 38.1687C33.8192 36.85 36.5508 33.9301 37.5869 30.3508L37.8695 29.5031L38.3404 27.8077ZM40.4126 35.4372C41.8255 37.6977 43.7093 39.5816 45.9699 40.9944C43.8035 42.3131 41.8255 44.1027 40.3184 46.2691C38.9998 44.1969 37.2101 42.3131 35.0437 40.9944C37.3043 39.5816 39.0939 37.6977 40.4126 35.4372Z" fill="url(#paint2_linear_1028_5887)"/>
<path d="M124.2 37.8H128.264C129.288 37.8 130.147 38.1467 130.84 38.84C131.533 39.5333 131.88 40.3867 131.88 41.4C131.88 42.4133 131.533 43.2667 130.84 43.96C130.147 44.6533 129.288 45 128.264 45H125.688V49H124.2V37.8ZM125.688 43.608H128.264C128.893 43.608 129.405 43.4 129.8 42.984C130.205 42.5467 130.408 42.0187 130.408 41.4C130.408 40.76 130.205 40.232 129.8 39.816C129.395 39.4 128.883 39.192 128.264 39.192H125.688V43.608ZM135.365 37.8V47.592H140.198V49H133.877V37.8H135.365ZM150.73 37.8H152.41V49H150.938V40.248L147.274 46.344H147.082L143.418 40.264V49H141.93V37.8H143.61L147.178 43.72L150.73 37.8Z" fill="#2B2934"/>
<path fill-rule="evenodd" clip-rule="evenodd" d="M343.543 2C332.298 2 323.144 9.59358 321.7 20.3779C312.364 21.042 305 28.7241 305 38.1661C305 48.0471 313.065 56.0008 323.015 56.0008H377.119C383.633 56.0008 389 50.7665 389 44.2333L389 44.2216C388.955 38.4681 384.797 33.6872 379.277 32.6909C379.322 32.2807 379.348 31.8576 379.348 31.4201C379.348 24.9869 375.139 19.4804 368.88 18.4629V18.3367H367.833C367.484 18.309 367.129 18.2948 366.77 18.2948C366.365 18.2948 365.96 18.3133 365.559 18.3505C363.228 8.48444 353.997 2 343.543 2ZM324.557 21.8998C325.287 12.1142 333.302 5 343.543 5C352.91 5 360.85 10.8404 362.705 19.3294C363 20.6811 364.287 21.5177 365.587 21.3639C365.975 21.318 366.372 21.2948 366.77 21.2948C372.319 21.2948 376.348 25.7389 376.348 31.4201C376.348 31.8277 376.316 32.2341 376.26 32.6501C376.065 34.1095 377.113 35.3928 378.494 35.6017C382.742 36.2443 385.963 39.8699 386 44.2391C385.997 49.0738 382.014 53.0008 377.119 53.0008H323.015C314.691 53.0008 308 46.3593 308 38.1661C308 29.9729 314.691 23.3313 323.015 23.3313C323.838 23.3313 324.498 22.6934 324.557 21.8998Z" fill="url(#paint3_radial_1028_5887)"/>
<path d="M326.488 30.8677C341.563 24.3445 351.184 24.432 366.259 30.8677V68.5939C366.259 68.5939 359.575 73.5343 346.248 73.9834C332.922 74.4325 326.488 68.5939 326.488 68.5939V30.8677Z" fill="white"/>
<path d="M346.374 39.0081C357.905 39.0081 367.253 36.0979 367.253 32.5081C367.253 28.9182 357.905 26.0081 346.374 26.0081C334.842 26.0081 325.494 28.9182 325.494 32.5081C325.494 36.0979 334.842 39.0081 346.374 39.0081Z" stroke="#0C6DFA" stroke-width="3" stroke-miterlimit="10"/>
<path fill-rule="evenodd" clip-rule="evenodd" d="M345.85 49.2522C340.289 49.2522 335.317 48.5679 331.785 47.4987C330.009 46.9612 328.682 46.3515 327.832 45.7434C326.945 45.1087 326.85 44.6854 326.85 44.5525H323.85C323.85 46.1289 324.901 47.3351 326.087 48.1834C327.31 49.0583 328.983 49.7848 330.916 50.37C334.801 51.546 340.079 52.2522 345.85 52.2522C351.621 52.2522 356.9 51.546 360.785 50.37C362.718 49.7848 364.391 49.0583 365.614 48.1834C366.8 47.3351 367.851 46.1289 367.851 44.5525H364.851C364.851 44.6854 364.756 45.1087 363.868 45.7434C363.018 46.3515 361.691 46.9612 359.915 47.4987C356.383 48.5679 351.411 49.2522 345.85 49.2522ZM345.85 60.8404C340.289 60.8404 335.317 60.156 331.785 59.0868C330.009 58.5493 328.682 57.9396 327.832 57.3315C326.945 56.6969 326.85 56.2735 326.85 56.1406H323.85C323.85 57.717 324.901 58.9233 326.087 59.7716C327.31 60.6464 328.983 61.373 330.916 61.9581C334.801 63.1341 340.079 63.8404 345.85 63.8404C351.621 63.8404 356.9 63.1341 360.785 61.9581C362.718 61.373 364.391 60.6464 365.614 59.7716C366.8 58.9233 367.851 57.717 367.851 56.1406H364.851C364.851 56.2735 364.756 56.6969 363.868 57.3315C363.018 57.9396 361.691 58.5493 359.915 59.0868C356.383 60.156 351.411 60.8404 345.85 60.8404Z" fill="url(#paint4_linear_1028_5887)"/>
<path d="M325.494 32.8714V67.7823C325.494 71.2152 334.832 74.0081 346.374 74.0081C357.916 74.0081 367.253 71.2152 367.253 67.7823V32.8714" stroke="#0C6DFA" stroke-width="3" stroke-miterlimit="10"/>
<path d="M429.2 21.8H433.568C435.083 21.8 436.347 22.344 437.36 23.432C438.373 24.5093 438.88 25.832 438.88 27.4C438.88 28.9573 438.373 30.2853 437.36 31.384C436.347 32.4613 435.083 33 433.568 33H429.2V21.8ZM430.688 31.592H433.568C434.709 31.592 435.643 31.192 436.368 30.392C437.093 29.5813 437.456 28.584 437.456 27.4C437.456 26.216 437.093 25.2187 436.368 24.408C435.643 23.608 434.709 23.208 433.568 23.208H430.688V31.592ZM441.484 23.544C441.218 23.544 440.994 23.4533 440.812 23.272C440.631 23.0907 440.54 22.872 440.54 22.616C440.54 22.36 440.631 22.1413 440.812 21.96C440.994 21.768 441.218 21.672 441.484 21.672C441.74 21.672 441.959 21.768 442.14 21.96C442.322 22.1413 442.412 22.36 442.412 22.616C442.412 22.872 442.322 23.0907 442.14 23.272C441.959 23.4533 441.74 23.544 441.484 23.544ZM442.172 33H440.78V25H442.172V33ZM451.176 26.376V25H452.552V32.664C452.552 33.848 452.152 34.7653 451.352 35.416C450.541 36.0773 449.581 36.408 448.472 36.408C447.576 36.408 446.803 36.2373 446.152 35.896C445.501 35.5653 445.011 35.0853 444.68 34.456L445.896 33.768C446.333 34.664 447.203 35.112 448.504 35.112C449.336 35.112 449.987 34.8933 450.456 34.456C450.936 34.0187 451.176 33.4213 451.176 32.664V31.528C450.472 32.5947 449.469 33.128 448.168 33.128C447.016 33.128 446.051 32.7227 445.272 31.912C444.483 31.0907 444.088 30.104 444.088 28.952C444.088 27.8 444.483 26.8187 445.272 26.008C446.051 25.1973 447.016 24.792 448.168 24.792C449.48 24.792 450.483 25.32 451.176 26.376ZM451.176 28.952C451.176 28.152 450.904 27.48 450.36 26.936C449.816 26.392 449.139 26.12 448.328 26.12C447.517 26.12 446.84 26.392 446.296 26.936C445.752 27.48 445.48 28.152 445.48 28.952C445.48 29.7627 445.752 30.44 446.296 30.984C446.84 31.528 447.517 31.8 448.328 31.8C449.139 31.8 449.816 31.528 450.36 30.984C450.904 30.44 451.176 29.7627 451.176 28.952ZM455.605 23.544C455.338 23.544 455.114 23.4533 454.933 23.272C454.752 23.0907 454.661 22.872 454.661 22.616C454.661 22.36 454.752 22.1413 454.933 21.96C455.114 21.768 455.338 21.672 455.605 21.672C455.861 21.672 456.08 21.768 456.261 21.96C456.442 22.1413 456.533 22.36 456.533 22.616C456.533 22.872 456.442 23.0907 456.261 23.272C456.08 23.4533 455.861 23.544 455.605 23.544ZM456.293 33H454.901V25H456.293V33ZM463.009 25V26.344H460.881V30.68C460.881 31.0747 460.955 31.3573 461.105 31.528C461.265 31.688 461.505 31.7733 461.825 31.784C462.145 31.784 462.539 31.7733 463.009 31.752V33C461.782 33.16 460.886 33.0587 460.321 32.696C459.766 32.3333 459.489 31.6613 459.489 30.68V26.344H457.905V25H459.489V23.176L460.881 22.76V25H463.009ZM471.114 26.376V25H472.506V33H471.114V31.624C470.432 32.68 469.424 33.208 468.09 33.208C466.96 33.208 466.005 32.8027 465.226 31.992C464.437 31.1707 464.042 30.1733 464.042 29C464.042 27.8373 464.437 26.8453 465.226 26.024C466.016 25.2027 466.97 24.792 468.09 24.792C469.424 24.792 470.432 25.32 471.114 26.376ZM468.266 31.864C469.077 31.864 469.754 31.592 470.298 31.048C470.842 30.4827 471.114 29.8 471.114 29C471.114 28.1893 470.842 27.512 470.298 26.968C469.754 26.4133 469.077 26.136 468.266 26.136C467.466 26.136 466.794 26.4133 466.25 26.968C465.706 27.512 465.434 28.1893 465.434 29C465.434 29.8 465.706 30.4827 466.25 31.048C466.794 31.592 467.466 31.864 468.266 31.864ZM476.247 33H474.855V21.32H476.247V33ZM487.203 25V26.344H485.075V30.68C485.075 31.0747 485.15 31.3573 485.299 31.528C485.459 31.688 485.699 31.7733 486.019 31.784C486.339 31.784 486.734 31.7733 487.203 31.752V33C485.976 33.16 485.08 33.0587 484.515 32.696C483.96 32.3333 483.683 31.6613 483.683 30.68V26.344H482.099V25H483.683V23.176L485.075 22.76V25H487.203ZM493.075 24.792C494.014 24.792 494.766 25.0907 495.331 25.688C495.896 26.2747 496.179 27.0747 496.179 28.088V33H494.787V28.168C494.787 27.528 494.611 27.0267 494.259 26.664C493.907 26.3013 493.422 26.12 492.803 26.12C492.088 26.12 491.523 26.344 491.107 26.792C490.691 27.2293 490.483 27.8853 490.483 28.76V33H489.091V21.8H490.483V26.152C491.038 25.2453 491.902 24.792 493.075 24.792ZM499.754 25V26.344C500.213 25.352 501.045 24.856 502.25 24.856V26.312C501.568 26.28 500.981 26.4613 500.49 26.856C500 27.2507 499.754 27.8853 499.754 28.76V33H498.362V25H499.754ZM511.095 29.64H504.391C504.529 30.344 504.855 30.8987 505.367 31.304C505.879 31.6987 506.519 31.896 507.287 31.896C508.343 31.896 509.111 31.5067 509.591 30.728L510.775 31.4C509.985 32.6053 508.812 33.208 507.255 33.208C505.996 33.208 504.961 32.8133 504.151 32.024C503.361 31.2133 502.967 30.2053 502.967 29C502.967 27.784 503.356 26.7813 504.135 25.992C504.913 25.192 505.921 24.792 507.159 24.792C508.332 24.792 509.287 25.208 510.023 26.04C510.769 26.8507 511.143 27.8427 511.143 29.016C511.143 29.2187 511.127 29.4267 511.095 29.64ZM507.159 26.104C506.423 26.104 505.804 26.312 505.303 26.728C504.812 27.144 504.508 27.7093 504.391 28.424H509.735C509.617 27.688 509.324 27.1173 508.855 26.712C508.385 26.3067 507.82 26.104 507.159 26.104ZM519.591 26.376V25H520.983V33H519.591V31.624C518.909 32.68 517.901 33.208 516.567 33.208C515.437 33.208 514.482 32.8027 513.703 31.992C512.914 31.1707 512.519 30.1733 512.519 29C512.519 27.8373 512.914 26.8453 513.703 26.024C514.493 25.2027 515.447 24.792 516.567 24.792C517.901 24.792 518.909 25.32 519.591 26.376ZM516.743 31.864C517.554 31.864 518.231 31.592 518.775 31.048C519.319 30.4827 519.591 29.8 519.591 29C519.591 28.1893 519.319 27.512 518.775 26.968C518.231 26.4133 517.554 26.136 516.743 26.136C515.943 26.136 515.271 26.4133 514.727 26.968C514.183 27.512 513.911 28.1893 513.911 29C513.911 29.8 514.183 30.4827 514.727 31.048C515.271 31.592 515.943 31.864 516.743 31.864ZM529.956 26.376V21.8H531.348V33H529.956V31.624C529.274 32.68 528.266 33.208 526.932 33.208C525.802 33.208 524.847 32.8027 524.068 31.992C523.279 31.1707 522.884 30.1733 522.884 29C522.884 27.8373 523.279 26.8453 524.068 26.024C524.858 25.2027 525.812 24.792 526.932 24.792C528.266 24.792 529.274 25.32 529.956 26.376ZM527.108 31.864C527.919 31.864 528.596 31.592 529.14 31.048C529.684 30.4827 529.956 29.8 529.956 29C529.956 28.1893 529.684 27.512 529.14 26.968C528.596 26.4133 527.919 26.136 527.108 26.136C526.308 26.136 525.636 26.4133 525.092 26.968C524.548 27.512 524.276 28.1893 524.276 29C524.276 29.8 524.548 30.4827 525.092 31.048C525.636 31.592 526.308 31.864 527.108 31.864ZM434.4 51.448H440V52.12C440 53.5813 439.499 54.7973 438.496 55.768C437.493 56.728 436.165 57.208 434.512 57.208C432.805 57.208 431.392 56.648 430.272 55.528C429.163 54.3867 428.608 53.0107 428.608 51.4C428.608 49.7893 429.163 48.4187 430.272 47.288C431.392 46.1573 432.795 45.592 434.48 45.592C435.504 45.592 436.453 45.8427 437.328 46.344C438.213 46.8453 438.88 47.496 439.328 48.296L438.048 49.048C437.728 48.44 437.243 47.9547 436.592 47.592C435.941 47.2187 435.232 47.032 434.464 47.032C433.173 47.032 432.123 47.4533 431.312 48.296C430.491 49.1387 430.08 50.1733 430.08 51.4C430.08 52.6267 430.491 53.6613 431.312 54.504C432.144 55.336 433.216 55.752 434.528 55.752C435.627 55.752 436.523 55.4853 437.216 54.952C437.92 54.408 438.352 53.688 438.512 52.792H434.4V51.448ZM448.529 50.376V49H449.921V57H448.529V55.624C447.847 56.68 446.839 57.208 445.505 57.208C444.375 57.208 443.42 56.8027 442.641 55.992C441.852 55.1707 441.457 54.1733 441.457 53C441.457 51.8373 441.852 50.8453 442.641 50.024C443.431 49.2027 444.385 48.792 445.505 48.792C446.839 48.792 447.847 49.32 448.529 50.376ZM445.681 55.864C446.492 55.864 447.169 55.592 447.713 55.048C448.257 54.4827 448.529 53.8 448.529 53C448.529 52.1893 448.257 51.512 447.713 50.968C447.169 50.4133 446.492 50.136 445.681 50.136C444.881 50.136 444.209 50.4133 443.665 50.968C443.121 51.512 442.849 52.1893 442.849 53C442.849 53.8 443.121 54.4827 443.665 55.048C444.209 55.592 444.881 55.864 445.681 55.864ZM456.622 49V50.344H454.494V54.68C454.494 55.0747 454.569 55.3573 454.718 55.528C454.878 55.688 455.118 55.7733 455.438 55.784C455.758 55.784 456.153 55.7733 456.622 55.752V57C455.396 57.16 454.5 57.0587 453.934 56.696C453.38 56.3333 453.102 55.6613 453.102 54.68V50.344H451.518V49H453.102V47.176L454.494 46.76V49H456.622ZM465.784 53.64H459.08C459.219 54.344 459.544 54.8987 460.056 55.304C460.568 55.6987 461.208 55.896 461.976 55.896C463.032 55.896 463.8 55.5067 464.28 54.728L465.464 55.4C464.675 56.6053 463.501 57.208 461.944 57.208C460.685 57.208 459.651 56.8133 458.84 56.024C458.051 55.2133 457.656 54.2053 457.656 53C457.656 51.784 458.045 50.7813 458.824 49.992C459.603 49.192 460.611 48.792 461.848 48.792C463.021 48.792 463.976 49.208 464.712 50.04C465.459 50.8507 465.832 51.8427 465.832 53.016C465.832 53.2187 465.816 53.4267 465.784 53.64ZM461.848 50.104C461.112 50.104 460.493 50.312 459.992 50.728C459.501 51.144 459.197 51.7093 459.08 52.424H464.424C464.307 51.688 464.013 51.1173 463.544 50.712C463.075 50.3067 462.509 50.104 461.848 50.104ZM475.024 55.096L476.784 49H478.24L475.76 57H474.336L472.464 51.08L470.592 57H469.168L466.688 49H468.144L469.904 55.08L471.792 49H473.136L475.024 55.096ZM486.224 50.376V49H487.616V57H486.224V55.624C485.541 56.68 484.533 57.208 483.2 57.208C482.069 57.208 481.114 56.8027 480.336 55.992C479.546 55.1707 479.152 54.1733 479.152 53C479.152 51.8373 479.546 50.8453 480.336 50.024C481.125 49.2027 482.08 48.792 483.2 48.792C484.533 48.792 485.541 49.32 486.224 50.376ZM483.376 55.864C484.186 55.864 484.864 55.592 485.408 55.048C485.952 54.4827 486.224 53.8 486.224 53C486.224 52.1893 485.952 51.512 485.408 50.968C484.864 50.4133 484.186 50.136 483.376 50.136C482.576 50.136 481.904 50.4133 481.36 50.968C480.816 51.512 480.544 52.1893 480.544 53C480.544 53.8 480.816 54.4827 481.36 55.048C481.904 55.592 482.576 55.864 483.376 55.864ZM493.245 55.272L495.549 49H497.037L493.773 57.496C493.421 58.4027 492.935 59.0907 492.317 59.56C491.709 60.04 491.01 60.2533 490.221 60.2V58.904C491.202 58.9787 491.922 58.4347 492.381 57.272L492.525 56.968L489.037 49H490.525L493.245 55.272Z" fill="#2B2934"/>
<path d="M682 25.7568H781.474V66.4325H682V25.7568Z" stroke="#0C6DFA" stroke-width="3" stroke-miterlimit="10"/>
<path fill-rule="evenodd" clip-rule="evenodd" d="M711.369 13.0674H729.369V10.0674H711.369V13.0674ZM711.369 20.6353H729.369V17.6353H711.369V20.6353Z" fill="url(#paint5_linear_1028_5887)"/>
<path d="M742.631 25.7568V67.3785" stroke="#0C6DFA" stroke-width="3" stroke-miterlimit="10"/>
<path d="M738.841 25.576V4H689.578V26.7027" stroke="#0C6DFA" stroke-width="3" stroke-miterlimit="10"/>
<path d="M739.789 8.72971H751.157V25.7567" stroke="#0C6DFA" stroke-width="3" stroke-miterlimit="10"/>
<path d="M751.158 14.4055H763.474V25.7568" stroke="#0C6DFA" stroke-width="3" stroke-miterlimit="10"/>
<path d="M763.475 18.1891H773.896V26.7026" stroke="#0C6DFA" stroke-width="3" stroke-miterlimit="10"/>
<rect x="761.184" y="45.2299" width="27.3158" height="27.2703" rx="13.6351" fill="white" stroke="#0C6DFA" stroke-width="3"/>
<path fill-rule="evenodd" clip-rule="evenodd" d="M695.658 9.12173H697.158H705.685H707.185V10.6217V19.1352V20.6352H705.685H697.158H695.658V19.1352V10.6217V9.12173ZM698.658 12.1217V17.6352H704.185V12.1217H698.658ZM696.211 37.5812C696.211 36.2751 697.27 35.2163 698.576 35.2163H720.372C721.678 35.2163 722.737 36.2751 722.737 37.5812C722.737 38.8873 721.678 39.9461 720.372 39.9461H698.576C697.27 39.9461 696.211 38.8873 696.211 37.5812ZM774.954 63.2373L782.059 56.1427L779.94 54.0198L773.793 60.1567L769.633 56.7574L767.735 59.0807L772.945 63.3375L773.995 64.195L774.954 63.2373Z" fill="url(#paint6_radial_1028_5887)"/>
<path d="M819.2 33.8H823.568C825.083 33.8 826.347 34.344 827.36 35.432C828.373 36.5093 828.88 37.832 828.88 39.4C828.88 40.9573 828.373 42.2853 827.36 43.384C826.347 44.4613 825.083 45 823.568 45H819.2V33.8ZM820.688 43.592H823.568C824.709 43.592 825.643 43.192 826.368 42.392C827.093 41.5813 827.456 40.584 827.456 39.4C827.456 38.216 827.093 37.2187 826.368 36.408C825.643 35.608 824.709 35.208 823.568 35.208H820.688V43.592ZM837.532 43.992C836.722 44.8027 835.724 45.208 834.54 45.208C833.356 45.208 832.359 44.8027 831.548 43.992C830.738 43.1813 830.332 42.184 830.332 41C830.332 39.816 830.738 38.8187 831.548 38.008C832.359 37.1973 833.356 36.792 834.54 36.792C835.724 36.792 836.722 37.1973 837.532 38.008C838.354 38.8293 838.764 39.8267 838.764 41C838.764 42.1733 838.354 43.1707 837.532 43.992ZM834.54 43.848C835.34 43.848 836.012 43.576 836.556 43.032C837.1 42.488 837.372 41.8107 837.372 41C837.372 40.1893 837.1 39.512 836.556 38.968C836.012 38.424 835.34 38.152 834.54 38.152C833.751 38.152 833.084 38.424 832.54 38.968C831.996 39.512 831.724 40.1893 831.724 41C831.724 41.8107 831.996 42.488 832.54 43.032C833.084 43.576 833.751 43.848 834.54 43.848ZM844.405 45.208C843.2 45.208 842.197 44.808 841.397 44.008C840.597 43.1973 840.197 42.1947 840.197 41C840.197 39.8053 840.597 38.808 841.397 38.008C842.197 37.1973 843.2 36.792 844.405 36.792C845.195 36.792 845.904 36.984 846.533 37.368C847.163 37.7413 847.632 38.248 847.941 38.888L846.773 39.56C846.571 39.1333 846.256 38.792 845.829 38.536C845.413 38.28 844.939 38.152 844.405 38.152C843.605 38.152 842.933 38.424 842.389 38.968C841.856 39.5227 841.589 40.2 841.589 41C841.589 41.7893 841.856 42.4613 842.389 43.016C842.933 43.56 843.605 43.832 844.405 43.832C844.939 43.832 845.419 43.7093 845.845 43.464C846.272 43.208 846.597 42.8667 846.821 42.44L848.005 43.128C847.653 43.768 847.157 44.2747 846.517 44.648C845.877 45.0213 845.173 45.208 844.405 45.208ZM855.155 41.24V37H856.547V45H855.155V43.848C854.601 44.7547 853.737 45.208 852.563 45.208C851.625 45.208 850.873 44.9147 850.307 44.328C849.742 43.7307 849.459 42.9253 849.459 41.912V37H850.851V41.832C850.851 42.472 851.027 42.9733 851.379 43.336C851.731 43.6987 852.217 43.88 852.835 43.88C853.55 43.88 854.115 43.6613 854.531 43.224C854.947 42.776 855.155 42.1147 855.155 41.24ZM867.547 36.792C868.453 36.792 869.179 37.0853 869.723 37.672C870.277 38.2587 870.555 39.0427 870.555 40.024V45H869.163V40.072C869.163 39.464 869.003 38.9893 868.683 38.648C868.373 38.296 867.947 38.12 867.403 38.12C866.784 38.12 866.299 38.328 865.947 38.744C865.605 39.1493 865.435 39.752 865.435 40.552V45H864.043V40.072C864.043 39.464 863.888 38.9893 863.579 38.648C863.28 38.296 862.869 38.12 862.347 38.12C861.739 38.12 861.243 38.3333 860.859 38.76C860.485 39.176 860.299 39.7733 860.299 40.552V45H858.907V37H860.299V38.072C860.843 37.2187 861.637 36.792 862.683 36.792C863.76 36.792 864.544 37.2453 865.035 38.152C865.589 37.2453 866.427 36.792 867.547 36.792ZM880.405 41.64H873.701C873.839 42.344 874.165 42.8987 874.677 43.304C875.189 43.6987 875.829 43.896 876.597 43.896C877.653 43.896 878.421 43.5067 878.901 42.728L880.085 43.4C879.295 44.6053 878.122 45.208 876.565 45.208C875.306 45.208 874.271 44.8133 873.461 44.024C872.671 43.2133 872.277 42.2053 872.277 41C872.277 39.784 872.666 38.7813 873.445 37.992C874.223 37.192 875.231 36.792 876.469 36.792C877.642 36.792 878.597 37.208 879.333 38.04C880.079 38.8507 880.453 39.8427 880.453 41.016C880.453 41.2187 880.437 41.4267 880.405 41.64ZM876.469 38.104C875.733 38.104 875.114 38.312 874.613 38.728C874.122 39.144 873.818 39.7093 873.701 40.424H879.045C878.927 39.688 878.634 39.1173 878.165 38.712C877.695 38.3067 877.13 38.104 876.469 38.104ZM886.277 36.792C887.216 36.792 887.968 37.0907 888.533 37.688C889.098 38.2747 889.381 39.0747 889.381 40.088V45H887.989V40.168C887.989 39.528 887.813 39.0267 887.461 38.664C887.109 38.3013 886.624 38.12 886.005 38.12C885.29 38.12 884.725 38.344 884.309 38.792C883.893 39.2293 883.685 39.8853 883.685 40.76V45H882.293V37H883.685V38.152C884.24 37.2453 885.104 36.792 886.277 36.792ZM895.916 37V38.344H893.788V42.68C893.788 43.0747 893.863 43.3573 894.012 43.528C894.172 43.688 894.412 43.7733 894.732 43.784C895.052 43.784 895.447 43.7733 895.916 43.752V45C894.689 45.16 893.793 45.0587 893.228 44.696C892.673 44.3333 892.396 43.6613 892.396 42.68V38.344H890.812V37H892.396V35.176L893.788 34.76V37H895.916ZM904.022 38.376V37H905.414V45H904.022V43.624C903.339 44.68 902.331 45.208 900.998 45.208C899.867 45.208 898.913 44.8027 898.134 43.992C897.345 43.1707 896.95 42.1733 896.95 41C896.95 39.8373 897.345 38.8453 898.134 38.024C898.923 37.2027 899.878 36.792 900.998 36.792C902.331 36.792 903.339 37.32 904.022 38.376ZM901.174 43.864C901.985 43.864 902.662 43.592 903.206 43.048C903.75 42.4827 904.022 41.8 904.022 41C904.022 40.1893 903.75 39.512 903.206 38.968C902.662 38.4133 901.985 38.136 901.174 38.136C900.374 38.136 899.702 38.4133 899.158 38.968C898.614 39.512 898.342 40.1893 898.342 41C898.342 41.8 898.614 42.4827 899.158 43.048C899.702 43.592 900.374 43.864 901.174 43.864ZM912.115 37V38.344H909.987V42.68C909.987 43.0747 910.062 43.3573 910.211 43.528C910.371 43.688 910.611 43.7733 910.931 43.784C911.251 43.784 911.646 43.7733 912.115 43.752V45C910.888 45.16 909.992 45.0587 909.427 44.696C908.872 44.3333 908.595 43.6613 908.595 42.68V38.344H907.011V37H908.595V35.176L909.987 34.76V37H912.115ZM914.707 35.544C914.44 35.544 914.216 35.4533 914.035 35.272C913.854 35.0907 913.763 34.872 913.763 34.616C913.763 34.36 913.854 34.1413 914.035 33.96C914.216 33.768 914.44 33.672 914.707 33.672C914.963 33.672 915.182 33.768 915.363 33.96C915.544 34.1413 915.635 34.36 915.635 34.616C915.635 34.872 915.544 35.0907 915.363 35.272C915.182 35.4533 914.963 35.544 914.707 35.544ZM915.395 45H914.003V37H915.395V45ZM924.51 43.992C923.7 44.8027 922.702 45.208 921.518 45.208C920.334 45.208 919.337 44.8027 918.526 43.992C917.716 43.1813 917.31 42.184 917.31 41C917.31 39.816 917.716 38.8187 918.526 38.008C919.337 37.1973 920.334 36.792 921.518 36.792C922.702 36.792 923.7 37.1973 924.51 38.008C925.332 38.8293 925.742 39.8267 925.742 41C925.742 42.1733 925.332 43.1707 924.51 43.992ZM921.518 43.848C922.318 43.848 922.99 43.576 923.534 43.032C924.078 42.488 924.35 41.8107 924.35 41C924.35 40.1893 924.078 39.512 923.534 38.968C922.99 38.424 922.318 38.152 921.518 38.152C920.729 38.152 920.062 38.424 919.518 38.968C918.974 39.512 918.702 40.1893 918.702 41C918.702 41.8107 918.974 42.488 919.518 43.032C920.062 43.576 920.729 43.848 921.518 43.848ZM931.607 36.792C932.546 36.792 933.298 37.0907 933.863 37.688C934.429 38.2747 934.711 39.0747 934.711 40.088V45H933.319V40.168C933.319 39.528 933.143 39.0267 932.791 38.664C932.439 38.3013 931.954 38.12 931.335 38.12C930.621 38.12 930.055 38.344 929.639 38.792C929.223 39.2293 929.015 39.8853 929.015 40.76V45H927.623V37H929.015V38.152C929.57 37.2453 930.434 36.792 931.607 36.792Z" fill="#2B2934"/>
<path d="M204.47 50.4697C204.177 50.7626 204.177 51.2374 204.47 51.5303L209.243 56.3033C209.536 56.5962 210.01 56.5962 210.303 56.3033C210.596 56.0104 210.596 55.5355 210.303 55.2426L206.061 51L210.303 46.7574C210.596 46.4645 210.596 45.9896 210.303 45.6967C210.01 45.4038 209.536 45.4038 209.243 45.6967L204.47 50.4697ZM205 51.75L236 51.75L236 50.25L205 50.25L205 51.75Z" fill="#3B637E"/>
<path d="M578.47 50.4697C578.177 50.7626 578.177 51.2374 578.47 51.5303L583.243 56.3033C583.536 56.5962 584.01 56.5962 584.303 56.3033C584.596 56.0104 584.596 55.5355 584.303 55.2426L580.061 51L584.303 46.7574C584.596 46.4645 584.596 45.9896 584.303 45.6967C584.01 45.4038 583.536 45.4038 583.243 45.6967L578.47 50.4697ZM579 51.75L610 51.75L610 50.25L579 50.25L579 51.75Z" fill="#3B637E"/>
<path d="M236.53 31.5303C236.823 31.2374 236.823 30.7626 236.53 30.4697L231.757 25.6967C231.464 25.4038 230.99 25.4038 230.697 25.6967C230.404 25.9896 230.404 26.4645 230.697 26.7574L234.939 31L230.697 35.2426C230.404 35.5355 230.404 36.0104 230.697 36.3033C230.99 36.5962 231.464 36.5962 231.757 36.3033L236.53 31.5303ZM205 31.75L236 31.75L236 30.25L205 30.25L205 31.75Z" fill="#3B637E"/>
<path d="M610.53 31.5303C610.823 31.2374 610.823 30.7626 610.53 30.4697L605.757 25.6967C605.464 25.4038 604.99 25.4038 604.697 25.6967C604.404 25.9896 604.404 26.4645 604.697 26.7574L608.939 31L604.697 35.2426C604.404 35.5355 604.404 36.0104 604.697 36.3033C604.99 36.5962 605.464 36.5962 605.757 36.3033L610.53 31.5303ZM579 31.75L610 31.75L610 30.25L579 30.25L579 31.75Z" fill="#3B637E"/>
<defs>
<radialGradient id="paint0_radial_1028_5887" cx="0" cy="0" r="1" gradientUnits="userSpaceOnUse" gradientTransform="translate(16.6938 66.8847) rotate(-46.2382) scale(74.6097 91.8546)">
<stop stop-color="#024CE4"/>
<stop offset="0.482969" stop-color="#0065FF"/>
<stop offset="1" stop-color="#1CA2FF"/>
</radialGradient>
<linearGradient id="paint1_linear_1028_5887" x1="43.524" y1="35.9488" x2="44.0718" y2="34.9874" gradientUnits="userSpaceOnUse">
<stop stop-color="#00DCFA"/>
<stop offset="1" stop-color="#14E3FF"/>
</linearGradient>
<linearGradient id="paint2_linear_1028_5887" x1="51.1798" y1="27.8077" x2="31.5867" y2="62.2332" gradientUnits="userSpaceOnUse">
<stop stop-color="#FCC68F"/>
<stop offset="0.507616" stop-color="#FF9C9D"/>
<stop offset="1" stop-color="#FC8ABC"/>
</linearGradient>
<radialGradient id="paint3_radial_1028_5887" cx="0" cy="0" r="1" gradientUnits="userSpaceOnUse" gradientTransform="translate(311.174 53.9609) rotate(-33.8722) scale(93.2299 106.327)">
<stop stop-color="#024CE4"/>
<stop offset="0.482969" stop-color="#0065FF"/>
<stop offset="1" stop-color="#1CA2FF"/>
</radialGradient>
<linearGradient id="paint4_linear_1028_5887" x1="363.726" y1="44.5525" x2="355.78" y2="76.5155" gradientUnits="userSpaceOnUse">
<stop stop-color="#FCC68F"/>
<stop offset="0.507616" stop-color="#FF9C9D"/>
<stop offset="1" stop-color="#FC8ABC"/>
</linearGradient>
<linearGradient id="paint5_linear_1028_5887" x1="727.682" y1="10.0674" x2="722.109" y2="26.8066" gradientUnits="userSpaceOnUse">
<stop stop-color="#FCC68F"/>
<stop offset="0.507616" stop-color="#FF9C9D"/>
<stop offset="1" stop-color="#FC8ABC"/>
</linearGradient>
<radialGradient id="paint6_radial_1028_5887" cx="0" cy="0" r="1" gradientUnits="userSpaceOnUse" gradientTransform="translate(702.008 62.1146) rotate(-33.6467) scale(95.6428 108.724)">
<stop stop-color="#024CE4"/>
<stop offset="0.482969" stop-color="#0065FF"/>
<stop offset="1" stop-color="#1CA2FF"/>
</radialGradient>
</defs>
</svg>
