<svg width="1178" height="111" viewBox="0 0 1178 111" fill="none" xmlns="http://www.w3.org/2000/svg">
<path d="M32.248 46.224H39.304C41.208 46.224 42.728 46.728 43.864 47.736C45 48.728 45.568 50.112 45.568 51.888C45.568 53.712 45 55.112 43.864 56.088C42.744 57.064 41.224 57.552 39.304 57.552H35.896V63H32.248V46.224ZM38.776 54.504C40.84 54.504 41.872 53.632 41.872 51.888C41.872 50.912 41.592 50.232 41.032 49.848C40.488 49.464 39.736 49.272 38.776 49.272H35.896V54.504H38.776ZM47.248 46.224H50.896V59.952H58.576V63H47.248V46.224ZM60.1386 46.224H63.7386L68.8986 57.456L74.0826 46.224H77.6586V63H74.1786V53.472L69.7386 63H68.0586L63.6426 53.472V63H60.1386V46.224Z" fill="#0C6DFA"/>
<rect x="2.12132" y="55.1544" width="75" height="75" rx="10.5" transform="rotate(-45 2.12132 55.1544)" stroke="#0C6DFA" stroke-width="3"/>
<ellipse cx="188.142" cy="55.1543" rx="3" ry="3.16591" transform="rotate(-90 188.142 55.1543)" fill="#3B637E"/>
<ellipse rx="2.67276" ry="2.82058" transform="matrix(-4.37114e-08 -1 -1 4.37114e-08 135.129 55.1223)" fill="#3B637E"/>
<path d="M135.129 55.1227L188.332 55.1227" stroke="#3B637E" stroke-width="2.06814"/>
<rect x="213.309" y="43.7258" width="78" height="22.8571" rx="2" stroke="#0C6DFA" stroke-width="3" stroke-miterlimit="10"/>
<rect x="213.309" y="72.2972" width="78" height="22.8571" rx="2" stroke="#0C6DFA" stroke-width="3" stroke-miterlimit="10"/>
<rect x="213.309" y="15.1544" width="78" height="22.8571" rx="2" stroke="#0C6DFA" stroke-width="3" stroke-miterlimit="10"/>
<path d="M225.621 55.1544C225.621 56.136 224.831 56.9197 223.871 56.9197C222.911 56.9197 222.121 56.136 222.121 55.1544C222.121 54.1728 222.911 53.3891 223.871 53.3891C224.831 53.3891 225.621 54.1728 225.621 55.1544Z" fill="url(#paint0_linear_1120_953)" stroke="#0C6DFA" stroke-width="3"/>
<path d="M225.621 83.7258C225.621 84.7074 224.831 85.4911 223.871 85.4911C222.911 85.4911 222.121 84.7074 222.121 83.7258C222.121 82.7442 222.911 81.9605 223.871 81.9605C224.831 81.9605 225.621 82.7442 225.621 83.7258Z" fill="url(#paint1_linear_1120_953)" stroke="#0C6DFA" stroke-width="3"/>
<path d="M225.621 26.5829C225.621 27.5645 224.831 28.3482 223.871 28.3482C222.911 28.3482 222.121 27.5645 222.121 26.5829C222.121 25.6013 222.911 24.8176 223.871 24.8176C224.831 24.8176 225.621 25.6013 225.621 26.5829Z" fill="url(#paint2_linear_1120_953)" stroke="#0C6DFA" stroke-width="3"/>
<rect x="258.197" y="21.0678" width="2.03125" height="2.05038" fill="#003455" stroke="#0C6DFA" stroke-width="2.03125"/>
<rect x="266.322" y="29.231" width="2.03125" height="2.05038" fill="#003455" stroke="#0C6DFA" stroke-width="2.03125"/>
<rect x="258.197" y="29.231" width="2.03125" height="2.05038" fill="#003455" stroke="#0C6DFA" stroke-width="2.03125"/>
<rect x="274.447" y="21.0678" width="2.03125" height="2.05038" fill="#003455" stroke="#0C6DFA" stroke-width="2.03125"/>
<rect x="274.447" y="29.231" width="2.03125" height="2.05038" fill="#003455" stroke="#0C6DFA" stroke-width="2.03125"/>
<rect x="282.574" y="21.0678" width="2.03125" height="2.05038" fill="#003455" stroke="#0C6DFA" stroke-width="2.03125"/>
<rect x="266.322" y="49.6395" width="2.03125" height="2.05038" fill="#003455" stroke="#0C6DFA" stroke-width="2.03125"/>
<rect x="258.197" y="57.8027" width="2.03125" height="2.05038" fill="#003455" stroke="#0C6DFA" stroke-width="2.03125"/>
<rect x="274.447" y="49.6395" width="2.03125" height="2.05038" fill="#003455" stroke="#0C6DFA" stroke-width="2.03125"/>
<rect x="274.447" y="57.8027" width="2.03125" height="2.05038" fill="#003455" stroke="#0C6DFA" stroke-width="2.03125"/>
<rect x="282.574" y="49.6395" width="2.03125" height="2.05038" fill="#003455" stroke="#0C6DFA" stroke-width="2.03125"/>
<rect x="282.574" y="57.8027" width="2.03125" height="2.05038" fill="#003455" stroke="#0C6DFA" stroke-width="2.03125"/>
<rect x="266.322" y="79.0269" width="2.03125" height="2.05038" fill="#003455" stroke="#0C6DFA" stroke-width="2.03125"/>
<rect x="258.195" y="79.0269" width="2.03125" height="2.05038" fill="#003455" stroke="#0C6DFA" stroke-width="2.03125"/>
<rect x="266.322" y="87.1904" width="2.03125" height="2.05038" fill="#003455" stroke="#0C6DFA" stroke-width="2.03125"/>
<rect x="274.447" y="87.1904" width="2.03125" height="2.05038" fill="#003455" stroke="#0C6DFA" stroke-width="2.03125"/>
<rect x="282.572" y="79.0269" width="2.03125" height="2.05038" fill="#003455" stroke="#0C6DFA" stroke-width="2.03125"/>
<path fill-rule="evenodd" clip-rule="evenodd" d="M265.305 20.0522H269.367V24.1338H265.305V20.0522ZM281.557 28.2154H285.619V32.297H281.557V28.2154ZM261.242 48.6236H257.18V52.7052H261.242V48.6236ZM265.305 56.7869H269.367V60.8686H265.305V56.7869ZM261.242 86.1747H257.18V90.2564H261.242V86.1747ZM273.43 78.0112H277.492V82.0928H273.43V78.0112ZM285.619 86.1747H281.557V90.2564H285.619V86.1747Z" fill="url(#paint3_linear_1120_953)"/>
<path d="M231.996 26.5829H247.434" stroke="#0C6DFA" stroke-width="3" stroke-miterlimit="10"/>
<path d="M231.996 55.1544H247.434" stroke="#0C6DFA" stroke-width="3" stroke-miterlimit="10"/>
<path d="M231.996 83.7258H247.434" stroke="#0C6DFA" stroke-width="3" stroke-miterlimit="10"/>
<path d="M318.606 36.3544C319.511 36.3544 320.263 36.6577 320.86 37.2644C321.467 37.8617 321.77 38.6084 321.77 39.5044C321.77 40.391 321.467 41.1377 320.86 41.7444C320.263 42.351 319.511 42.6544 318.606 42.6544H316.352V46.1544H315.05V36.3544H318.606ZM318.606 41.4364C319.147 41.4364 319.595 41.2544 319.95 40.8904C320.305 40.517 320.482 40.055 320.482 39.5044C320.482 38.9444 320.305 38.4824 319.95 38.1184C319.595 37.7544 319.147 37.5724 318.606 37.5724H316.352V41.4364H318.606ZM324.459 40.3304C324.861 39.4624 325.589 39.0284 326.643 39.0284V40.3024C326.046 40.2744 325.533 40.433 325.103 40.7784C324.674 41.1237 324.459 41.679 324.459 42.4444V46.1544H323.241V39.1544H324.459V40.3304ZM333.57 45.2724C332.852 45.9817 331.979 46.3364 330.952 46.3364C329.926 46.3364 329.053 45.9817 328.334 45.2724C327.625 44.563 327.27 43.6904 327.27 42.6544C327.27 41.6184 327.625 40.7457 328.334 40.0364C329.053 39.327 329.926 38.9724 330.952 38.9724C331.979 38.9724 332.852 39.327 333.57 40.0364C334.289 40.7457 334.648 41.6184 334.648 42.6544C334.648 43.6904 334.289 44.563 333.57 45.2724ZM330.952 45.1464C331.652 45.1464 332.24 44.9084 332.716 44.4324C333.192 43.9564 333.43 43.3637 333.43 42.6544C333.43 41.945 333.192 41.3524 332.716 40.8764C332.24 40.4004 331.652 40.1624 330.952 40.1624C330.262 40.1624 329.678 40.4004 329.202 40.8764C328.726 41.3524 328.488 41.945 328.488 42.6544C328.488 43.3637 328.726 43.9564 329.202 44.4324C329.678 44.9084 330.262 45.1464 330.952 45.1464ZM341.878 46.1544H340.45L338.49 43.5084L336.516 46.1544H335.088L337.776 42.5564L335.242 39.1544H336.684L338.49 41.5904L340.296 39.1544H341.724L339.204 42.5424L341.878 46.1544ZM348.103 39.1544H349.405L346.549 46.5884C346.25 47.3817 345.83 47.9837 345.289 48.3944C344.757 48.8144 344.141 49.001 343.441 48.9544V47.8204C344.3 47.8857 344.93 47.4097 345.331 46.3924L345.457 46.1264L342.405 39.1544H343.707L346.087 44.6424L348.103 39.1544ZM318.606 61.3544C319.511 61.3544 320.263 61.6577 320.86 62.2644C321.467 62.8617 321.77 63.6084 321.77 64.5044C321.77 65.391 321.467 66.1377 320.86 66.7444C320.263 67.351 319.511 67.6544 318.606 67.6544H316.352V71.1544H315.05V61.3544H318.606ZM318.606 66.4364C319.147 66.4364 319.595 66.2544 319.95 65.8904C320.305 65.517 320.482 65.055 320.482 64.5044C320.482 63.9444 320.305 63.4824 319.95 63.1184C319.595 62.7544 319.147 62.5724 318.606 62.5724H316.352V66.4364H318.606ZM324.82 69.9224H329.048V71.1544H323.518V61.3544H324.82V69.9224ZM339.734 61.3544V71.1544H338.446V63.4964L335.24 68.8304H335.072L331.866 63.5104V71.1544H330.564V61.3544H332.034L335.156 66.5344L338.264 61.3544H339.734Z" fill="#003455"/>
<ellipse cx="436.834" cy="55.1543" rx="3" ry="3.16591" transform="rotate(-90 436.834 55.1543)" fill="#3B637E"/>
<ellipse rx="2.67276" ry="2.82058" transform="matrix(-4.37114e-08 -1 -1 4.37114e-08 383.82 55.1223)" fill="#3B637E"/>
<path d="M383.82 55.1227L437.023 55.1227" stroke="#3B637E" stroke-width="2.06814"/>
<circle cx="501" cy="55.1543" r="40.5" stroke="#0C6DFA" stroke-width="3"/>
<path fill-rule="evenodd" clip-rule="evenodd" d="M500.5 37.4905L500.907 37.6052L516.182 41.9108L517.275 42.2189V43.3545V51.0496C517.275 56.2694 515.495 61.4796 512.194 66.1023C509.375 70.0548 505.517 73.38 501.192 75.6305L500.5 75.9908L499.808 75.6305C495.48 73.3784 491.643 70.0528 488.809 66.1055L488.806 66.1023C485.506 61.4801 483.725 56.2883 483.725 51.0496V43.3545V42.2189L484.818 41.9108L500.093 37.6052L500.5 37.4905ZM486.725 44.4902V51.0496C486.725 55.5942 488.268 60.1857 491.247 64.3575C493.654 67.7096 496.872 70.5743 500.5 72.5962C504.132 70.5728 507.365 67.7074 509.752 64.3598L509.752 64.3589C512.731 60.1873 514.275 55.577 514.275 51.0496V44.4902L500.5 40.6074L486.725 44.4902Z" fill="#0C6DFA"/>
<ellipse cx="617.836" cy="55.1543" rx="3" ry="3.16591" transform="rotate(-90 617.836 55.1543)" fill="#3B637E"/>
<ellipse rx="2.67276" ry="2.82058" transform="matrix(-4.37114e-08 -1 -1 4.37114e-08 564.822 55.1223)" fill="#3B637E"/>
<path d="M564.822 55.1227L618.025 55.1227" stroke="#3B637E" stroke-width="2.06814"/>
<path d="M742.401 62.1292L742.061 63.8505L743.814 63.9192C750.844 64.1946 756.444 70.0388 756.502 77.262C756.499 84.6914 750.522 90.6543 743.264 90.6543H666.449C654.321 90.6543 644.502 80.7526 644.502 68.4533C644.502 56.154 654.321 46.2523 666.449 46.2523H666.51H667.908L668.007 44.8585C669.045 30.2236 680.758 19.6543 695.594 19.6543C709.621 19.6543 721.553 28.9308 723.678 42.4005L723.927 43.9809L725.488 43.6303C726.471 43.4096 727.517 43.2974 728.57 43.2974C736.809 43.2974 742.799 50.063 742.799 58.6651C742.799 59.818 742.636 60.9411 742.401 62.1292Z" stroke="#0C6DFA" stroke-width="3"/>
<path d="M679.49 58.224H683.066L689.762 75H686.042L684.602 71.352H677.954L676.514 75H672.77L679.49 58.224ZM683.642 68.448L681.266 62.064L678.89 68.448H683.642ZM688.778 58.224H692.618L695.618 69.072L698.57 58.224H701.378L704.234 69.072L707.234 58.224H711.05L706.346 75H702.914L699.914 64.368L696.938 75H693.482L688.778 58.224ZM718.134 75.36C717.11 75.36 716.094 75.264 715.086 75.072C714.078 74.88 713.254 74.624 712.614 74.304V71.088C713.462 71.504 714.342 71.816 715.254 72.024C716.166 72.232 717.038 72.336 717.87 72.336C718.798 72.336 719.502 72.176 719.982 71.856C720.462 71.536 720.702 71.088 720.702 70.512C720.702 70.096 720.582 69.744 720.342 69.456C720.102 69.168 719.75 68.912 719.286 68.688C718.838 68.448 718.142 68.136 717.198 67.752C715.63 67.112 714.494 66.4 713.79 65.616C713.086 64.816 712.734 63.832 712.734 62.664C712.734 61.72 712.99 60.888 713.502 60.168C714.014 59.432 714.734 58.864 715.662 58.464C716.59 58.064 717.662 57.864 718.878 57.864C719.87 57.864 720.75 57.944 721.518 58.104C722.286 58.264 723.038 58.512 723.774 58.848V61.968C722.366 61.264 720.958 60.912 719.55 60.912C718.654 60.912 717.95 61.072 717.438 61.392C716.926 61.696 716.67 62.136 716.67 62.712C716.67 63.128 716.79 63.472 717.03 63.744C717.27 64.016 717.606 64.256 718.038 64.464C718.47 64.672 719.174 64.976 720.15 65.376C721.286 65.856 722.174 66.32 722.814 66.768C723.454 67.2 723.926 67.72 724.23 68.328C724.534 68.92 724.686 69.656 724.686 70.536C724.686 72.056 724.134 73.24 723.03 74.088C721.942 74.936 720.31 75.36 718.134 75.36Z" fill="#0C6DFA"/>
<ellipse cx="835.836" cy="55.1543" rx="3" ry="3.16591" transform="rotate(-90 835.836 55.1543)" fill="#3B637E"/>
<ellipse rx="2.67276" ry="2.82058" transform="matrix(-4.37114e-08 -1 -1 4.37114e-08 782.822 55.1223)" fill="#3B637E"/>
<path d="M782.822 55.1227L836.025 55.1227" stroke="#3B637E" stroke-width="2.06814"/>
<rect x="937.002" y="33.3682" width="43.3389" height="43.5722" rx="21.6694" fill="#FFC187"/>
<path d="M948.92 66.4666C951.438 64.0282 954.846 62.5329 958.607 62.5329C962.299 62.5329 965.661 63.9707 968.157 66.3285" stroke="white" stroke-width="2.71839" stroke-linejoin="round"/>
<path d="M958.607 56.4303C961.936 56.4303 964.635 53.7062 964.635 50.3459C964.635 46.9855 961.936 44.2614 958.607 44.2614C955.277 44.2614 952.578 46.9855 952.578 50.3459C952.578 53.7062 955.277 56.4303 958.607 56.4303Z" stroke="white" stroke-width="2.71839" stroke-linejoin="round"/>
<rect x="898.002" y="33.3682" width="43.3389" height="43.5722" rx="21.6694" fill="#FC92AF"/>
<path d="M909.92 66.4663C912.438 64.0279 915.846 62.5327 919.607 62.5327C923.299 62.5327 926.661 63.9704 929.157 66.3283" stroke="white" stroke-width="2.71839" stroke-linejoin="round"/>
<path d="M919.607 56.4301C922.936 56.4301 925.635 53.706 925.635 50.3456C925.635 46.9853 922.936 44.2612 919.607 44.2612C916.277 44.2612 913.578 46.9853 913.578 50.3456C913.578 53.706 916.277 56.4301 919.607 56.4301Z" stroke="white" stroke-width="2.71839" stroke-linejoin="round"/>
<rect x="861.002" y="33.3682" width="43.3389" height="43.5721" rx="21.6694" fill="#5CB7FF"/>
<path d="M872.92 66.4663C875.438 64.0279 878.846 62.5327 882.607 62.5327C886.299 62.5327 889.661 63.9704 892.157 66.3283" stroke="white" stroke-width="2.71839" stroke-linejoin="round"/>
<path d="M882.607 56.4302C885.936 56.4302 888.635 53.7061 888.635 50.3457C888.635 46.9854 885.936 44.2613 882.607 44.2613C879.277 44.2613 876.578 46.9854 876.578 50.3457C876.578 53.7061 879.277 56.4302 882.607 56.4302Z" stroke="white" stroke-width="2.71839" stroke-linejoin="round"/>
<path d="M1000.61 45.8958C1000.32 46.2038 999.947 46.3578 999.508 46.3578C999.069 46.3578 998.696 46.2038 998.388 45.8958C998.08 45.5878 997.926 45.2144 997.926 44.7758C997.926 44.3371 998.08 43.9684 998.388 43.6698C998.696 43.3618 999.069 43.2078 999.508 43.2078C999.947 43.2078 1000.32 43.3618 1000.61 43.6698C1000.92 43.9684 1001.08 44.3371 1001.08 44.7758C1001.08 45.2144 1000.92 45.5878 1000.61 45.8958ZM1012.35 45.3498V48.4578H1016.9V49.6898H1011.05V39.8898H1016.83V41.1218H1012.35V44.1318H1016.48V45.3498H1012.35ZM1023.22 49.8718C1021.72 49.8718 1020.5 49.3818 1019.54 48.4018C1018.57 47.4311 1018.09 46.2271 1018.09 44.7898C1018.09 43.3524 1018.57 42.1484 1019.54 41.1778C1020.5 40.1978 1021.72 39.7078 1023.22 39.7078C1024.1 39.7078 1024.93 39.9224 1025.68 40.3518C1026.44 40.7811 1027.03 41.3598 1027.45 42.0878L1026.31 42.7458C1026.03 42.2044 1025.61 41.7751 1025.05 41.4578C1024.5 41.1311 1023.89 40.9678 1023.22 40.9678C1022.08 40.9678 1021.15 41.3318 1020.45 42.0598C1019.74 42.7784 1019.38 43.6884 1019.38 44.7898C1019.38 45.8818 1019.74 46.7871 1020.45 47.5058C1021.15 48.2338 1022.08 48.5978 1023.22 48.5978C1023.89 48.5978 1024.5 48.4391 1025.05 48.1218C1025.61 47.7951 1026.03 47.3658 1026.31 46.8338L1027.45 47.4778C1027.03 48.2058 1026.45 48.7891 1025.7 49.2278C1024.95 49.6571 1024.12 49.8718 1023.22 49.8718ZM1034.82 49.6898H1028.49V48.6258L1031.95 45.0978C1032.87 44.1738 1033.33 43.3804 1033.33 42.7178C1033.33 42.1764 1033.16 41.7518 1032.83 41.4438C1032.5 41.1264 1032.09 40.9678 1031.6 40.9678C1030.67 40.9678 1030 41.4064 1029.58 42.2838L1028.49 41.6398C1028.79 41.0144 1029.21 40.5384 1029.75 40.2118C1030.29 39.8758 1030.9 39.7078 1031.58 39.7078C1032.41 39.7078 1033.13 39.9784 1033.72 40.5198C1034.33 41.0704 1034.63 41.7984 1034.63 42.7038C1034.63 43.6931 1034.05 44.7711 1032.88 45.9378L1030.38 48.4298H1034.82V49.6898ZM1044.54 41.4158C1044.3 41.4158 1044.11 41.3364 1043.95 41.1778C1043.79 41.0191 1043.71 40.8278 1043.71 40.6038C1043.71 40.3798 1043.79 40.1884 1043.95 40.0298C1044.11 39.8618 1044.3 39.7778 1044.54 39.7778C1044.76 39.7778 1044.95 39.8618 1045.11 40.0298C1045.27 40.1884 1045.35 40.3798 1045.35 40.6038C1045.35 40.8278 1045.27 41.0191 1045.11 41.1778C1044.95 41.3364 1044.76 41.4158 1044.54 41.4158ZM1045.14 49.6898H1043.92V42.6898H1045.14V49.6898ZM1050.69 42.5078C1051.51 42.5078 1052.17 42.7691 1052.67 43.2918C1053.16 43.8051 1053.41 44.5051 1053.41 45.3918V49.6898H1052.19V45.4618C1052.19 44.9018 1052.04 44.4631 1051.73 44.1458C1051.42 43.8284 1051 43.6698 1050.46 43.6698C1049.83 43.6698 1049.34 43.8658 1048.97 44.2578C1048.61 44.6404 1048.43 45.2144 1048.43 45.9798V49.6898H1047.21V42.6898H1048.43V43.6978C1048.91 42.9044 1049.67 42.5078 1050.69 42.5078ZM1056.37 44.5798C1056.37 45.0278 1056.83 45.3778 1057.76 45.6298C1058.1 45.7044 1058.39 45.7838 1058.62 45.8678C1058.87 45.9424 1059.13 46.0591 1059.41 46.2178C1059.7 46.3764 1059.92 46.5864 1060.07 46.8478C1060.22 47.1091 1060.29 47.4171 1060.29 47.7718C1060.29 48.4064 1060.04 48.9151 1059.55 49.2978C1059.05 49.6804 1058.43 49.8718 1057.67 49.8718C1057 49.8718 1056.42 49.7271 1055.92 49.4378C1055.44 49.1391 1055.09 48.7378 1054.89 48.2338L1055.94 47.6318C1056.05 47.9678 1056.26 48.2338 1056.57 48.4298C1056.87 48.6258 1057.24 48.7238 1057.67 48.7238C1058.09 48.7238 1058.43 48.6444 1058.68 48.4858C1058.93 48.3271 1059.06 48.0891 1059.06 47.7718C1059.06 47.2958 1058.6 46.9504 1057.67 46.7358C1057.36 46.6518 1057.13 46.5864 1056.97 46.5398C1056.81 46.4931 1056.59 46.4091 1056.31 46.2878C1056.04 46.1664 1055.84 46.0404 1055.7 45.9098C1055.56 45.7698 1055.43 45.5878 1055.31 45.3638C1055.19 45.1304 1055.14 44.8738 1055.14 44.5938C1055.14 43.9871 1055.37 43.4878 1055.84 43.0958C1056.31 42.7038 1056.91 42.5078 1057.62 42.5078C1058.19 42.5078 1058.69 42.6384 1059.13 42.8998C1059.58 43.1518 1059.91 43.5064 1060.14 43.9638L1059.11 44.5378C1058.86 43.9404 1058.36 43.6418 1057.62 43.6418C1057.26 43.6418 1056.96 43.7258 1056.72 43.8938C1056.49 44.0618 1056.37 44.2904 1056.37 44.5798ZM1065.48 42.6898V43.8658H1063.61V47.6598C1063.61 48.0051 1063.68 48.2524 1063.81 48.4018C1063.95 48.5418 1064.16 48.6164 1064.44 48.6258C1064.72 48.6258 1065.07 48.6164 1065.48 48.5978V49.6898C1064.4 49.8298 1063.62 49.7411 1063.12 49.4238C1062.64 49.1064 1062.4 48.5184 1062.4 47.6598V43.8658H1061.01V42.6898H1062.4V41.0938L1063.61 40.7298V42.6898H1065.48ZM1072.57 43.8938V42.6898H1073.79V49.6898H1072.57V48.4858C1071.97 49.4098 1071.09 49.8718 1069.92 49.8718C1068.93 49.8718 1068.1 49.5171 1067.42 48.8078C1066.73 48.0891 1066.38 47.2164 1066.38 46.1898C1066.38 45.1724 1066.73 44.3044 1067.42 43.5858C1068.11 42.8671 1068.94 42.5078 1069.92 42.5078C1071.09 42.5078 1071.97 42.9698 1072.57 43.8938ZM1070.08 48.6958C1070.79 48.6958 1071.38 48.4578 1071.85 47.9818C1072.33 47.4871 1072.57 46.8898 1072.57 46.1898C1072.57 45.4804 1072.33 44.8878 1071.85 44.4118C1071.38 43.9264 1070.79 43.6838 1070.08 43.6838C1069.38 43.6838 1068.79 43.9264 1068.31 44.4118C1067.84 44.8878 1067.6 45.4804 1067.6 46.1898C1067.6 46.8898 1067.84 47.4871 1068.31 47.9818C1068.79 48.4578 1069.38 48.6958 1070.08 48.6958ZM1079.33 42.5078C1080.15 42.5078 1080.81 42.7691 1081.3 43.2918C1081.8 43.8051 1082.04 44.5051 1082.04 45.3918V49.6898H1080.83V45.4618C1080.83 44.9018 1080.67 44.4631 1080.36 44.1458C1080.06 43.8284 1079.63 43.6698 1079.09 43.6698C1078.47 43.6698 1077.97 43.8658 1077.61 44.2578C1077.24 44.6404 1077.06 45.2144 1077.06 45.9798V49.6898H1075.84V42.6898H1077.06V43.6978C1077.55 42.9044 1078.3 42.5078 1079.33 42.5078ZM1087.24 49.8718C1086.19 49.8718 1085.31 49.5218 1084.61 48.8218C1083.91 48.1124 1083.56 47.2351 1083.56 46.1898C1083.56 45.1444 1083.91 44.2718 1084.61 43.5718C1085.31 42.8624 1086.19 42.5078 1087.24 42.5078C1087.94 42.5078 1088.56 42.6758 1089.11 43.0118C1089.66 43.3384 1090.07 43.7818 1090.34 44.3418L1089.32 44.9298C1089.14 44.5564 1088.86 44.2578 1088.49 44.0338C1088.13 43.8098 1087.71 43.6978 1087.24 43.6978C1086.54 43.6978 1085.96 43.9358 1085.48 44.4118C1085.01 44.8971 1084.78 45.4898 1084.78 46.1898C1084.78 46.8804 1085.01 47.4684 1085.48 47.9538C1085.96 48.4298 1086.54 48.6678 1087.24 48.6678C1087.71 48.6678 1088.13 48.5604 1088.5 48.3458C1088.88 48.1218 1089.16 47.8231 1089.36 47.4498L1090.39 48.0518C1090.09 48.6118 1089.65 49.0551 1089.09 49.3818C1088.53 49.7084 1087.92 49.8718 1087.24 49.8718ZM1098.43 46.7498H1092.57C1092.69 47.3658 1092.97 47.8511 1093.42 48.2058C1093.87 48.5511 1094.43 48.7238 1095.1 48.7238C1096.02 48.7238 1096.7 48.3831 1097.12 47.7018L1098.15 48.2898C1097.46 49.3444 1096.43 49.8718 1095.07 49.8718C1093.97 49.8718 1093.06 49.5264 1092.36 48.8358C1091.66 48.1264 1091.32 47.2444 1091.32 46.1898C1091.32 45.1258 1091.66 44.2484 1092.34 43.5578C1093.02 42.8578 1093.9 42.5078 1094.99 42.5078C1096.01 42.5078 1096.85 42.8718 1097.49 43.5998C1098.15 44.3091 1098.47 45.1771 1098.47 46.2038C1098.47 46.3811 1098.46 46.5631 1098.43 46.7498ZM1094.99 43.6558C1094.34 43.6558 1093.8 43.8378 1093.36 44.2018C1092.93 44.5658 1092.67 45.0604 1092.57 45.6858H1097.24C1097.14 45.0418 1096.88 44.5424 1096.47 44.1878C1096.06 43.8331 1095.57 43.6558 1094.99 43.6558ZM1106.02 38.4898L1100.42 51.0898H1099.69L1105.29 38.4898H1106.02ZM1109.12 39.8898V48.4578H1113.35V49.6898H1107.82V39.8898H1109.12ZM1115.35 41.4158C1115.12 41.4158 1114.92 41.3364 1114.76 41.1778C1114.61 41.0191 1114.53 40.8278 1114.53 40.6038C1114.53 40.3798 1114.61 40.1884 1114.76 40.0298C1114.92 39.8618 1115.12 39.7778 1115.35 39.7778C1115.58 39.7778 1115.77 39.8618 1115.93 40.0298C1116.08 40.1884 1116.16 40.3798 1116.16 40.6038C1116.16 40.8278 1116.08 41.0191 1115.93 41.1778C1115.77 41.3364 1115.58 41.4158 1115.35 41.4158ZM1115.95 49.6898H1114.74V42.6898H1115.95V49.6898ZM1121.51 42.5078C1122.33 42.5078 1122.99 42.7691 1123.48 43.2918C1123.98 43.8051 1124.22 44.5051 1124.22 45.3918V49.6898H1123.01V45.4618C1123.01 44.9018 1122.85 44.4631 1122.54 44.1458C1122.24 43.8284 1121.81 43.6698 1121.27 43.6698C1120.64 43.6698 1120.15 43.8658 1119.79 44.2578C1119.42 44.6404 1119.24 45.2144 1119.24 45.9798V49.6898H1118.02V42.6898H1119.24V43.6978C1119.73 42.9044 1120.48 42.5078 1121.51 42.5078ZM1130.96 46.3998V42.6898H1132.18V49.6898H1130.96V48.6818C1130.48 49.4751 1129.72 49.8718 1128.7 49.8718C1127.88 49.8718 1127.22 49.6151 1126.72 49.1018C1126.23 48.5791 1125.98 47.8744 1125.98 46.9878V42.6898H1127.2V46.9178C1127.2 47.4778 1127.35 47.9164 1127.66 48.2338C1127.97 48.5511 1128.39 48.7098 1128.93 48.7098C1129.56 48.7098 1130.05 48.5184 1130.42 48.1358C1130.78 47.7438 1130.96 47.1651 1130.96 46.3998ZM1137.65 46.0778L1140.32 49.6898H1138.89L1136.93 47.0438L1134.96 49.6898H1133.53L1136.22 46.0918L1133.69 42.6898H1135.13L1136.93 45.1258L1138.74 42.6898H1140.17L1137.65 46.0778ZM1000.61 70.8958C1000.32 71.2038 999.947 71.3578 999.508 71.3578C999.069 71.3578 998.696 71.2038 998.388 70.8958C998.08 70.5878 997.926 70.2144 997.926 69.7758C997.926 69.3371 998.08 68.9684 998.388 68.6698C998.696 68.3618 999.069 68.2078 999.508 68.2078C999.947 68.2078 1000.32 68.3618 1000.61 68.6698C1000.92 68.9684 1001.08 69.3371 1001.08 69.7758C1001.08 70.2144 1000.92 70.5878 1000.61 70.8958ZM1014.21 74.8718C1013.3 74.8718 1012.51 74.6618 1011.86 74.2418C1011.21 73.8124 1010.76 73.2198 1010.5 72.4638L1011.62 71.8198C1011.99 73.0051 1012.87 73.5978 1014.24 73.5978C1014.9 73.5978 1015.41 73.4624 1015.76 73.1918C1016.13 72.9211 1016.31 72.5524 1016.31 72.0858C1016.31 71.6284 1016.13 71.2784 1015.78 71.0358C1015.46 70.8211 1014.87 70.5738 1014 70.2938L1013.06 69.9858C1012.86 69.9018 1012.59 69.7804 1012.25 69.6218C1011.92 69.4538 1011.69 69.2858 1011.54 69.1178C1011.13 68.6698 1010.92 68.1238 1010.92 67.4798C1010.92 66.6211 1011.22 65.9491 1011.82 65.4638C1012.41 64.9598 1013.14 64.7078 1014 64.7078C1014.77 64.7078 1015.44 64.8991 1016.02 65.2818C1016.59 65.6644 1017.03 66.1871 1017.32 66.8498L1016.23 67.4798C1015.81 66.4718 1015.06 65.9678 1014 65.9678C1013.47 65.9678 1013.04 66.0984 1012.71 66.3598C1012.39 66.6211 1012.22 66.9758 1012.22 67.4238C1012.22 67.8531 1012.38 68.1798 1012.68 68.4038C1013 68.6371 1013.53 68.8704 1014.28 69.1038L1014.85 69.2858C1015.17 69.4071 1015.34 69.4724 1015.37 69.4818C1015.67 69.5938 1016 69.7478 1016.35 69.9438C1016.6 70.0838 1016.86 70.2984 1017.11 70.5878C1017.43 70.9144 1017.6 71.4044 1017.6 72.0578C1017.6 72.9164 1017.29 73.6024 1016.66 74.1158C1016.03 74.6198 1015.21 74.8718 1014.21 74.8718ZM1024.85 66.0378L1022.72 68.9078C1023.49 69.0478 1024.11 69.3744 1024.57 69.8878C1025.04 70.4011 1025.27 71.0358 1025.27 71.7918C1025.27 72.7531 1024.95 73.5044 1024.29 74.0458C1023.63 74.5964 1022.84 74.8718 1021.91 74.8718C1021.15 74.8718 1020.48 74.6991 1019.91 74.3538C1019.34 74.0084 1018.93 73.5184 1018.69 72.8838L1019.78 72.2398C1020.07 73.1451 1020.78 73.5978 1021.91 73.5978C1022.53 73.5978 1023.02 73.4391 1023.4 73.1218C1023.78 72.7951 1023.97 72.3518 1023.97 71.7918C1023.97 71.2318 1023.78 70.7884 1023.4 70.4618C1023.02 70.1351 1022.53 69.9718 1021.91 69.9718H1021.58L1021.06 69.1738L1023.33 66.1078H1018.97V64.8898H1024.85V66.0378ZM1031.69 69.5798C1031.69 70.0278 1032.15 70.3778 1033.07 70.6298C1033.42 70.7044 1033.71 70.7838 1033.94 70.8678C1034.18 70.9424 1034.44 71.0591 1034.72 71.2178C1035.01 71.3764 1035.23 71.5864 1035.38 71.8478C1035.53 72.1091 1035.61 72.4171 1035.61 72.7718C1035.61 73.4064 1035.36 73.9151 1034.86 74.2978C1034.37 74.6804 1033.74 74.8718 1032.99 74.8718C1032.32 74.8718 1031.73 74.7271 1031.24 74.4378C1030.75 74.1391 1030.41 73.7378 1030.2 73.2338L1031.25 72.6318C1031.36 72.9678 1031.57 73.2338 1031.88 73.4298C1032.19 73.6258 1032.56 73.7238 1032.99 73.7238C1033.41 73.7238 1033.74 73.6444 1034 73.4858C1034.25 73.3271 1034.37 73.0891 1034.37 72.7718C1034.37 72.2958 1033.91 71.9504 1032.99 71.7358C1032.68 71.6518 1032.45 71.5864 1032.29 71.5398C1032.13 71.4931 1031.91 71.4091 1031.63 71.2878C1031.36 71.1664 1031.15 71.0404 1031.01 70.9098C1030.87 70.7698 1030.74 70.5878 1030.62 70.3638C1030.51 70.1304 1030.45 69.8738 1030.45 69.5938C1030.45 68.9871 1030.69 68.4878 1031.15 68.0958C1031.63 67.7038 1032.22 67.5078 1032.93 67.5078C1033.5 67.5078 1034.01 67.6384 1034.44 67.8998C1034.89 68.1518 1035.23 68.5064 1035.45 68.9638L1034.43 69.5378C1034.18 68.9404 1033.68 68.6418 1032.93 68.6418C1032.58 68.6418 1032.28 68.7258 1032.04 68.8938C1031.8 69.0618 1031.69 69.2904 1031.69 69.5798ZM1040.79 67.6898V68.8658H1038.93V72.6598C1038.93 73.0051 1039 73.2524 1039.13 73.4018C1039.27 73.5418 1039.48 73.6164 1039.76 73.6258C1040.04 73.6258 1040.38 73.6164 1040.79 73.5978V74.6898C1039.72 74.8298 1038.94 74.7411 1038.44 74.4238C1037.96 74.1064 1037.71 73.5184 1037.71 72.6598V68.8658H1036.33V67.6898H1037.71V66.0938L1038.93 65.7298V67.6898H1040.79ZM1048 73.8078C1047.29 74.5171 1046.42 74.8718 1045.38 74.8718C1044.34 74.8718 1043.47 74.5171 1042.76 73.8078C1042.05 73.0984 1041.7 72.2258 1041.7 71.1898C1041.7 70.1538 1042.05 69.2811 1042.76 68.5718C1043.47 67.8624 1044.34 67.5078 1045.38 67.5078C1046.42 67.5078 1047.29 67.8624 1048 68.5718C1048.72 69.2904 1049.08 70.1631 1049.08 71.1898C1049.08 72.2164 1048.72 73.0891 1048 73.8078ZM1045.38 73.6818C1046.08 73.6818 1046.67 73.4438 1047.14 72.9678C1047.62 72.4918 1047.86 71.8991 1047.86 71.1898C1047.86 70.4804 1047.62 69.8878 1047.14 69.4118C1046.67 68.9358 1046.08 68.6978 1045.38 68.6978C1044.69 68.6978 1044.11 68.9358 1043.63 69.4118C1043.15 69.8878 1042.92 70.4804 1042.92 71.1898C1042.92 71.8991 1043.15 72.4918 1043.63 72.9678C1044.11 73.4438 1044.69 73.6818 1045.38 73.6818ZM1051.94 67.6898V68.8658C1052.34 67.9978 1053.07 67.5638 1054.12 67.5638V68.8378C1053.53 68.8098 1053.01 68.9684 1052.58 69.3138C1052.15 69.6591 1051.94 70.2144 1051.94 70.9798V74.6898H1050.72V67.6898H1051.94ZM1060.94 68.8938V67.6898H1062.16V74.6898H1060.94V73.4858C1060.34 74.4098 1059.46 74.8718 1058.29 74.8718C1057.3 74.8718 1056.47 74.5171 1055.79 73.8078C1055.1 73.0891 1054.75 72.2164 1054.75 71.1898C1054.75 70.1724 1055.1 69.3044 1055.79 68.5858C1056.48 67.8671 1057.31 67.5078 1058.29 67.5078C1059.46 67.5078 1060.34 67.9698 1060.94 68.8938ZM1058.45 73.6958C1059.16 73.6958 1059.75 73.4578 1060.22 72.9818C1060.7 72.4871 1060.94 71.8898 1060.94 71.1898C1060.94 70.4804 1060.7 69.8878 1060.22 69.4118C1059.75 68.9264 1059.16 68.6838 1058.45 68.6838C1057.75 68.6838 1057.16 68.9264 1056.68 69.4118C1056.21 69.8878 1055.97 70.4804 1055.97 71.1898C1055.97 71.8898 1056.21 72.4871 1056.68 72.9818C1057.16 73.4578 1057.75 73.6958 1058.45 73.6958ZM1070.02 68.8938V67.6898H1071.23V74.3958C1071.23 75.4318 1070.88 76.2344 1070.18 76.8038C1069.47 77.3824 1068.63 77.6718 1067.66 77.6718C1066.87 77.6718 1066.19 77.5224 1065.63 77.2238C1065.06 76.9344 1064.63 76.5144 1064.34 75.9638L1065.4 75.3618C1065.78 76.1458 1066.54 76.5378 1067.68 76.5378C1068.41 76.5378 1068.98 76.3464 1069.39 75.9638C1069.81 75.5811 1070.02 75.0584 1070.02 74.3958V73.4018C1069.41 74.3351 1068.53 74.8018 1067.39 74.8018C1066.38 74.8018 1065.54 74.4471 1064.86 73.7378C1064.16 73.0191 1063.82 72.1558 1063.82 71.1478C1063.82 70.1398 1064.16 69.2811 1064.86 68.5718C1065.54 67.8624 1066.38 67.5078 1067.39 67.5078C1068.54 67.5078 1069.41 67.9698 1070.02 68.8938ZM1070.02 71.1478C1070.02 70.4478 1069.78 69.8598 1069.31 69.3838C1068.83 68.9078 1068.24 68.6698 1067.53 68.6698C1066.82 68.6698 1066.23 68.9078 1065.75 69.3838C1065.28 69.8598 1065.04 70.4478 1065.04 71.1478C1065.04 71.8571 1065.28 72.4498 1065.75 72.9258C1066.23 73.4018 1066.82 73.6398 1067.53 73.6398C1068.24 73.6398 1068.83 73.4018 1069.31 72.9258C1069.78 72.4498 1070.02 71.8571 1070.02 71.1478ZM1080 71.7498H1074.13C1074.26 72.3658 1074.54 72.8511 1074.99 73.2058C1075.44 73.5511 1076 73.7238 1076.67 73.7238C1077.59 73.7238 1078.26 73.3831 1078.68 72.7018L1079.72 73.2898C1079.03 74.3444 1078 74.8718 1076.64 74.8718C1075.54 74.8718 1074.63 74.5264 1073.92 73.8358C1073.23 73.1264 1072.89 72.2444 1072.89 71.1898C1072.89 70.1258 1073.23 69.2484 1073.91 68.5578C1074.59 67.8578 1075.47 67.5078 1076.56 67.5078C1077.58 67.5078 1078.42 67.8718 1079.06 68.5998C1079.72 69.3091 1080.04 70.1771 1080.04 71.2038C1080.04 71.3811 1080.03 71.5631 1080 71.7498ZM1076.56 68.6558C1075.91 68.6558 1075.37 68.8378 1074.93 69.2018C1074.5 69.5658 1074.24 70.0604 1074.13 70.6858H1078.81C1078.71 70.0418 1078.45 69.5424 1078.04 69.1878C1077.63 68.8331 1077.14 68.6558 1076.56 68.6558Z" fill="#2B2934"/>
<defs>
<linearGradient id="paint0_linear_1120_953" x1="227.121" y1="51.8891" x2="220.591" y2="58.389" gradientUnits="userSpaceOnUse">
<stop stop-color="#0DD7CB"/>
<stop offset="1" stop-color="#1AB3E9"/>
</linearGradient>
<linearGradient id="paint1_linear_1120_953" x1="220.621" y1="86.9911" x2="227.148" y2="81.2918" gradientUnits="userSpaceOnUse">
<stop offset="0.0001" stop-color="#FD637F"/>
<stop offset="1" stop-color="#FF8B9E"/>
</linearGradient>
<linearGradient id="paint2_linear_1120_953" x1="220.621" y1="29.8482" x2="227.148" y2="24.1489" gradientUnits="userSpaceOnUse">
<stop stop-color="#201CF8"/>
<stop offset="1" stop-color="#685DF9"/>
</linearGradient>
<linearGradient id="paint3_linear_1120_953" x1="282.953" y1="20.0522" x2="224.526" y2="61.7902" gradientUnits="userSpaceOnUse">
<stop stop-color="#FCC68F"/>
<stop offset="0.507616" stop-color="#FF9C9D"/>
<stop offset="1" stop-color="#FC8ABC"/>
</linearGradient>
</defs>
</svg>
