<svg width="54" height="54" viewBox="0 0 54 54" fill="none" xmlns="http://www.w3.org/2000/svg">
<circle cx="27" cy="27" r="25.5" fill="#F4F9FF" stroke="url(#paint0_linear_1123_1740)" stroke-width="3"/>
<path fill-rule="evenodd" clip-rule="evenodd" d="M17.8572 26.7776C20.3965 26.7683 22.845 28.1166 24.5887 30.5635H32.543V33.5635H23.7806H22.935L22.4972 32.84C21.1804 30.6637 19.4046 29.772 17.8682 29.7776C16.35 29.7832 14.7314 30.6641 13.6742 32.7433L11 31.3837C12.4931 28.4469 15.0596 26.7879 17.8572 26.7776ZM41.3017 31.0903L29.6506 37.5114L12.4986 34.8977L12.0467 37.8635L29.7023 40.554L30.2061 40.6307L30.6523 40.3848L42.7497 33.7178L41.3017 31.0903Z" fill="url(#paint1_radial_1123_1740)"/>
<path fill-rule="evenodd" clip-rule="evenodd" d="M27.5065 9H26.3884L26.069 10.0715L25.8683 10.7448C25.0883 13.3614 23.1107 15.4514 20.5411 16.3746L19.6139 16.7078L18.6211 17.0645V18.1194V18.5677V19.7042L19.7152 20.0117L20.0915 20.1174C22.9277 20.9146 25.1575 23.1096 25.9991 25.9329L26.069 26.1674L26.3884 27.2389H27.5065H27.968H29.0017L29.3697 26.2731L29.6805 25.4576C30.6491 22.9159 32.7643 20.9832 35.3829 20.2472L36.2209 20.0117L37.315 19.7042V18.5677V18.1194V17.0645L36.3222 16.7078L34.9595 16.2182C32.6009 15.3707 30.73 13.5353 29.8375 11.1933L29.3697 9.96585L29.0017 9H27.968H27.5065ZM32.2666 18.2829C30.3989 17.2529 28.8503 15.7259 27.7941 13.872C26.7844 15.7097 25.2923 17.2424 23.4777 18.3012C25.259 19.3098 26.7432 20.7742 27.7757 22.5422C28.8598 20.7399 30.4141 19.2678 32.2666 18.2829Z" fill="url(#paint2_linear_1123_1740)"/>
<defs>
<linearGradient id="paint0_linear_1123_1740" x1="3.675" y1="3.00018" x2="53.2125" y2="7.50258" gradientUnits="userSpaceOnUse">
<stop stop-color="#E8F0FA"/>
<stop offset="1" stop-color="#F4F9FF"/>
</linearGradient>
<radialGradient id="paint1_radial_1123_1740" cx="0" cy="0" r="1" gradientUnits="userSpaceOnUse" gradientTransform="translate(19.0457 39.8671) rotate(-32.8912) scale(22.8485 27.5764)">
<stop stop-color="#024CE4"/>
<stop offset="0.439568" stop-color="#0065FF"/>
<stop offset="1" stop-color="#1CA2FF"/>
</radialGradient>
<linearGradient id="paint2_linear_1123_1740" x1="35.5625" y1="9" x2="21.968" y2="33.5708" gradientUnits="userSpaceOnUse">
<stop stop-color="#FCC68F"/>
<stop offset="0.507616" stop-color="#FF9C9D"/>
<stop offset="1" stop-color="#FC8ABC"/>
</linearGradient>
</defs>
</svg>
