<svg width="54" height="54" viewBox="0 0 54 54" fill="none" xmlns="http://www.w3.org/2000/svg">
<circle cx="27" cy="27" r="25.5" fill="#F4F9FF" stroke="url(#paint0_linear_1123_1918)" stroke-width="3"/>
<g clip-path="url(#clip0_1123_1918)">
<path fill-rule="evenodd" clip-rule="evenodd" d="M22.951 26.1007L20.0594 23.1007C19.6739 22.7007 19.0956 22.7007 18.71 23.1007L15.8185 26.1007C15.4329 26.5007 15.4329 27.1007 15.8185 27.5007L18.71 30.5007C19.0956 30.9007 19.6739 30.9007 20.0594 30.5007L22.951 27.5007C23.3365 27.1007 23.3365 26.5007 22.951 26.1007ZM26.0353 40.0883L37.1197 40.0883L37.1197 37.1109L26.0353 37.1109L26.0353 40.0883ZM26.0353 28.4886L37.1197 28.4886L37.1197 25.5112L26.0353 25.5112L26.0353 28.4886ZM37.1197 16.889L26.0353 16.889L26.0353 13.9116L37.1197 13.9116L37.1197 16.889Z" fill="url(#paint1_linear_1123_1918)"/>
<path fill-rule="evenodd" clip-rule="evenodd" d="M15.3373 40.0112C14.5721 40.0112 13.9344 39.4299 13.9344 38.4999L13.9344 15.4999C13.9344 14.57 14.5721 13.9886 15.3373 13.9886L23.1445 13.9886C23.8783 13.9886 24.5474 14.637 24.5474 15.4999L24.5474 38.4999C24.5474 39.4299 23.9097 40.0112 23.1445 40.0112L15.3373 40.0112ZM10.957 38.4999C10.957 40.97 12.8254 42.9886 15.3373 42.9886L23.1445 42.9886C25.6564 42.9886 27.5248 40.97 27.5248 38.4999L27.5248 15.4999C27.5248 13.1629 25.6879 11.0112 23.1445 11.0112L15.3373 11.0112C12.8254 11.0112 10.957 13.0299 10.957 15.4999L10.957 38.4999ZM42.1441 40.7209L42.1441 36.4782C42.1441 35.9125 41.7351 35.4883 41.1899 35.4883L37.1006 35.4883C36.5554 35.4883 36.1464 35.9125 36.1464 36.4782L36.1464 40.7209C36.1464 41.2866 36.5554 41.7108 37.1006 41.7108L41.1899 41.7108C41.7351 41.7108 42.1441 41.2866 42.1441 40.7209ZM42.1441 24.6794L42.1441 28.922C42.1441 29.4877 41.7351 29.912 41.1899 29.912L37.1006 29.912C36.5554 29.912 36.1464 29.4877 36.1464 28.922L36.1464 24.6794C36.1464 24.1137 36.5554 23.6895 37.1006 23.6895L41.1899 23.6894C41.7351 23.6894 42.1441 24.1137 42.1441 24.6794ZM42.1441 17.5217L42.1441 13.279C42.1441 12.7133 41.7351 12.2891 41.1899 12.2891L37.1006 12.2891C36.5554 12.2891 36.1464 12.7133 36.1464 13.279L36.1464 17.5217C36.1464 18.0873 36.5554 18.5116 37.1006 18.5116L41.1899 18.5116C41.7351 18.5116 42.1441 18.0873 42.1441 17.5217Z" fill="url(#paint2_radial_1123_1918)"/>
</g>
<defs>
<linearGradient id="paint0_linear_1123_1918" x1="3.675" y1="3.00018" x2="53.2125" y2="7.50258" gradientUnits="userSpaceOnUse">
<stop stop-color="#E8F0FA"/>
<stop offset="1" stop-color="#F4F9FF"/>
</linearGradient>
<linearGradient id="paint1_linear_1123_1918" x1="15.5293" y1="16.3657" x2="46.6997" y2="30.9448" gradientUnits="userSpaceOnUse">
<stop stop-color="#FCC68F"/>
<stop offset="0.507616" stop-color="#FF9C9D"/>
<stop offset="1" stop-color="#FC8ABC"/>
</linearGradient>
<radialGradient id="paint2_radial_1123_1918" cx="0" cy="0" r="1" gradientUnits="userSpaceOnUse" gradientTransform="translate(41.2351 34.8852) rotate(-146.049) scale(34.5999 42.4257)">
<stop stop-color="#024CE4"/>
<stop offset="0.439568" stop-color="#0065FF"/>
<stop offset="1" stop-color="#1CA2FF"/>
</radialGradient>
<clipPath id="clip0_1123_1918">
<rect width="32" height="32" fill="white" transform="translate(11 43) rotate(-90)"/>
</clipPath>
</defs>
</svg>
