<svg width="54" height="54" viewBox="0 0 54 54" fill="none" xmlns="http://www.w3.org/2000/svg">
<circle cx="27" cy="27" r="25.5" fill="#F4F9FF" stroke="url(#paint0_linear_1123_1998)" stroke-width="3"/>
<g clip-path="url(#clip0_1123_1998)">
<path fill-rule="evenodd" clip-rule="evenodd" d="M40.6294 22.7491V40.1433H37.1294V22.7491H40.6294ZM25.9142 40.7296V29.5895H22.4142V40.7296H25.9142ZM18.5566 40.241V33.4983H15.0566V40.241H18.5566ZM33.2718 40.241V24.7035H29.7718V40.241H33.2718Z" fill="url(#paint1_linear_1123_1998)"/>
<path fill-rule="evenodd" clip-rule="evenodd" d="M43.3916 12.9772H37.5056L39.2592 14.724L35.1352 18.1999C35.0451 18.2759 34.9309 18.3176 34.813 18.3176H30.4726C29.558 18.3176 28.6797 18.6756 28.0258 19.315L23.8946 23.3542C23.8011 23.4456 23.6757 23.4967 23.545 23.4967H19.635C18.8738 23.4967 18.1333 23.7449 17.5259 24.2036L11.9785 28.3925L13.7863 30.7866L19.3337 26.5977C19.4205 26.5322 19.5263 26.4967 19.635 26.4967H23.545C24.4596 26.4967 25.3379 26.1387 25.9919 25.4993L30.1231 21.4601C30.2165 21.3687 30.342 21.3176 30.4726 21.3176H34.813C35.6385 21.3176 36.4375 21.0258 37.0687 20.4938L41.3927 16.8492L43.3916 18.8404V12.9772ZM12.3919 42.0342H42.9995V39.0342H12.3919V42.0342Z" fill="#036DFF"/>
</g>
<defs>
<linearGradient id="paint0_linear_1123_1998" x1="3.675" y1="3.00018" x2="53.2125" y2="7.50258" gradientUnits="userSpaceOnUse">
<stop stop-color="#E8F0FA"/>
<stop offset="1" stop-color="#F4F9FF"/>
</linearGradient>
<linearGradient id="paint1_linear_1123_1998" x1="42.8664" y1="23.2305" x2="36.1335" y2="48.1775" gradientUnits="userSpaceOnUse">
<stop stop-color="#FCC68F"/>
<stop offset="0.507616" stop-color="#FF9C9D"/>
<stop offset="1" stop-color="#FC8ABC"/>
</linearGradient>
<clipPath id="clip0_1123_1998">
<rect width="31" height="30" fill="white" transform="translate(12 12)"/>
</clipPath>
</defs>
</svg>
