<svg width="54" height="54" viewBox="0 0 54 54" fill="none" xmlns="http://www.w3.org/2000/svg">
<circle cx="27" cy="27" r="25.5" fill="#F4F9FF" stroke="url(#paint0_linear_1123_1785)" stroke-width="3"/>
<path fill-rule="evenodd" clip-rule="evenodd" d="M22.5488 12.0158L22.5488 12.0158L11.0005 15.0647L11.0006 15.0651L11 15.0652L19.6203 43.0046L22.5209 42.2388L17.9572 27.4474L26.6056 25.1641L27.6196 28.4507L30.5202 27.685L25.4494 11.25L22.5488 12.0158ZM25.7208 22.2966L23.4345 14.8862L14.7861 17.1694L17.0725 24.5799L25.7208 22.2966Z" fill="url(#paint1_radial_1123_1785)"/>
<path fill-rule="evenodd" clip-rule="evenodd" d="M38.4905 13.9664L37.877 11.9778L26.5926 14.9569L27.4716 17.8059L24.5742 18.5709L26.743 25.6002L26.7399 25.6011L27.0447 26.5779L27.6225 28.4506L27.6286 28.449L27.6341 28.4667L39.1668 25.3823L39.1721 25.3981L39.4214 25.3142L42.0114 24.6215L41.9609 24.4596L42.0154 24.4412L41.1863 21.9774L41.1172 21.7559L41.1122 21.7572L38.4905 13.9664ZM29.6398 24.8255L38.2083 22.5339L35.8776 15.608L27.4799 17.825L29.6398 24.8255Z" fill="url(#paint2_linear_1123_1785)"/>
<defs>
<linearGradient id="paint0_linear_1123_1785" x1="3.675" y1="3.00018" x2="53.2125" y2="7.50258" gradientUnits="userSpaceOnUse">
<stop stop-color="#E8F0FA"/>
<stop offset="1" stop-color="#F4F9FF"/>
</linearGradient>
<radialGradient id="paint1_radial_1123_1785" cx="0" cy="0" r="1" gradientUnits="userSpaceOnUse" gradientTransform="translate(20.4356 42.9772) rotate(-78.3481) scale(35.0392 38.3968)">
<stop stop-color="#024CE4"/>
<stop offset="0.482969" stop-color="#0065FF"/>
<stop offset="1" stop-color="#1CA2FF"/>
</radialGradient>
<linearGradient id="paint2_linear_1123_1785" x1="41.2696" y1="11.2382" x2="28.7668" y2="34.9157" gradientUnits="userSpaceOnUse">
<stop stop-color="#FCC68F"/>
<stop offset="0.507616" stop-color="#FF9C9D"/>
<stop offset="1" stop-color="#FC8ABC"/>
</linearGradient>
</defs>
</svg>
