<svg width="54" height="54" viewBox="0 0 54 54" fill="none" xmlns="http://www.w3.org/2000/svg">
<circle cx="27" cy="27" r="25.5" fill="#F4F9FF" stroke="url(#paint0_linear_1123_1961)" stroke-width="3"/>
<path fill-rule="evenodd" clip-rule="evenodd" d="M22.5471 14.7002L34.6135 14.5096L34.5661 11.51L20.4514 11.733L18.403 11.7653L19.0524 13.7083L21.9213 22.2919L24.7666 21.3409L22.5471 14.7002ZM21.1093 29.8421L12.7331 35.7503L11.0039 33.2988L19.3801 27.3906L21.1093 29.8421ZM32.2262 31.2862L39.2356 36.2929L28.5994 39.9042L29.5639 42.7449L41.3835 38.7318L42.4013 38.3863V37.3115V35.6393V34.8674L41.7731 34.4187L33.9699 28.845L32.2262 31.2862Z" fill="url(#paint1_linear_1123_1961)"/>
<path fill-rule="evenodd" clip-rule="evenodd" d="M17.8779 10H23.1894C23.4656 10 23.6894 10.2239 23.6894 10.5V15.6311C23.6894 15.9073 23.4656 16.1311 23.1894 16.1311H17.8779C17.6018 16.1311 17.3779 15.9073 17.3779 15.6311V10.5C17.3779 10.2239 17.6018 10 17.8779 10ZM20.1751 20.0229H18.716V21.482V30.4V31.8591H20.1751H33.9456H35.4047V30.4V21.482V20.0229H33.9456H20.1751ZM21.6342 28.9409V22.9411H32.4865V28.9409H21.6342ZM14.8115 31.1803H9.5C9.22386 31.1803 9 31.4042 9 31.6803V36.8115C9 37.0876 9.22386 37.3115 9.5 37.3115H14.8115C15.0876 37.3115 15.3115 37.0876 15.3115 36.8115V31.6803C15.3115 31.4042 15.0876 31.1803 14.8115 31.1803ZM26.2537 37.8689H31.5651C31.8413 37.8689 32.0651 38.0927 32.0651 38.3689V43.5C32.0651 43.7761 31.8413 44 31.5651 44H26.2537C25.9775 44 25.7537 43.7761 25.7537 43.5V38.3689C25.7537 38.0927 25.9775 37.8689 26.2537 37.8689ZM43.6143 34.0787H38.3028C38.0267 34.0787 37.8028 34.3026 37.8028 34.5787V39.7098C37.8028 39.986 38.0267 40.2098 38.3028 40.2098H43.6143C43.8904 40.2098 44.1143 39.986 44.1143 39.7098V34.5787C44.1143 34.3026 43.8904 34.0787 43.6143 34.0787ZM31.8771 10H37.1885C37.4647 10 37.6885 10.2239 37.6885 10.5V15.6311C37.6885 15.9073 37.4647 16.1311 37.1885 16.1311H31.8771C31.6009 16.1311 31.3771 15.9073 31.3771 15.6311V10.5C31.3771 10.2239 31.6009 10 31.8771 10Z" fill="url(#paint2_radial_1123_1961)"/>
<defs>
<linearGradient id="paint0_linear_1123_1961" x1="3.675" y1="3.00018" x2="53.2125" y2="7.50258" gradientUnits="userSpaceOnUse">
<stop stop-color="#E8F0FA"/>
<stop offset="1" stop-color="#F4F9FF"/>
</linearGradient>
<linearGradient id="paint1_linear_1123_1961" x1="39.4578" y1="11.51" x2="15.9381" y2="53.201" gradientUnits="userSpaceOnUse">
<stop stop-color="#FCC68F"/>
<stop offset="0.507616" stop-color="#FF9C9D"/>
<stop offset="1" stop-color="#FC8ABC"/>
</linearGradient>
<radialGradient id="paint2_radial_1123_1961" cx="0" cy="0" r="1" gradientUnits="userSpaceOnUse" gradientTransform="translate(8.26425 45.1998) rotate(-47.6616) scale(56.8264 69.7243)">
<stop stop-color="#024CE4"/>
<stop offset="0.482969" stop-color="#0065FF"/>
<stop offset="1" stop-color="#1CA2FF"/>
</radialGradient>
</defs>
</svg>
