<svg width="54" height="54" viewBox="0 0 54 54" fill="none" xmlns="http://www.w3.org/2000/svg">
<circle cx="27" cy="27" r="25.5" fill="#F4F9FF" stroke="url(#paint0_linear_1123_1877)" stroke-width="3"/>
<path fill-rule="evenodd" clip-rule="evenodd" d="M17.1425 19.6976L18.8354 18.0048C19.1087 17.7314 19.5519 17.7314 19.8253 18.0048L21.5181 19.6976C21.7915 19.971 21.7915 20.4142 21.5181 20.6875L19.8253 22.3804C19.5519 22.6537 19.1087 22.6537 18.8354 22.3804L17.1425 20.6875C16.8692 20.4142 16.8692 19.971 17.1425 19.6976ZM33.4947 34.1766L31.1143 31.7962L33.4947 29.4158L35.8751 31.7962L33.4947 34.1766ZM32.929 25.7389L27.4373 31.2305C27.1249 31.5429 27.1249 32.0495 27.4373 32.3619L32.929 37.8535C33.2414 38.1659 33.7479 38.1659 34.0604 37.8535L39.552 32.3619C39.8644 32.0494 39.8644 31.5429 39.552 31.2305L34.0603 25.7389C33.7479 25.4264 33.2414 25.4264 32.929 25.7389Z" fill="url(#paint1_linear_1123_1877)"/>
<path fill-rule="evenodd" clip-rule="evenodd" d="M13 20.4186C13 16.8597 15.8597 14 19.4186 14C22.9775 14 25.8372 16.8597 25.8372 20.4186C25.8372 21.9903 25.3195 23.379 24.4473 24.5189C22.8559 26.4853 21.8779 29.0566 21.8779 31.7614C21.8779 38.0473 27.0438 43.2132 33.3296 43.2132C39.6155 43.2132 44.7814 38.0473 44.7814 31.7614C44.7814 26.8554 41.6888 22.6148 37.2857 21.0255C37.1644 20.9818 37.0952 20.8528 37.129 20.7285L37.5572 19.1508C37.6134 18.9436 37.3937 18.7702 37.2052 18.873L33.2122 21.051C33.0941 21.1154 33.0505 21.2632 33.1147 21.3814L35.3835 25.5559C35.4885 25.7491 35.7753 25.7155 35.8329 25.5034L36.2115 24.1084C36.2489 23.9708 36.3962 23.8942 36.5286 23.9472C39.6172 25.1837 41.7814 28.2306 41.7814 31.7614C41.7814 36.3904 37.9586 40.2132 33.3296 40.2132C28.7007 40.2132 24.8779 36.3904 24.8779 31.7614C24.8779 29.7657 25.6064 27.8496 26.7892 26.3939L26.8018 26.3784L26.814 26.3625C28.0752 24.723 28.8372 22.6925 28.8372 20.4186C28.8372 15.2028 24.6344 11 19.4186 11C14.2028 11 10 15.2028 10 20.4186C10 23.7217 11.6247 26.6083 14.1402 28.279C14.2451 28.3486 14.2833 28.4856 14.2263 28.5979L13.4911 30.0461C13.3918 30.2416 13.5811 30.4586 13.7883 30.3867L18.2335 28.8445C18.3596 28.8008 18.4271 28.6637 18.3849 28.5371L16.9334 24.1826C16.8649 23.9773 16.5828 23.9564 16.4848 24.1494L15.8204 25.4579C15.7535 25.5898 15.5852 25.6324 15.4677 25.5425C13.9715 24.3972 13 22.558 13 20.4186Z" fill="url(#paint2_radial_1123_1877)"/>
<defs>
<linearGradient id="paint0_linear_1123_1877" x1="3.675" y1="3.00018" x2="53.2125" y2="7.50258" gradientUnits="userSpaceOnUse">
<stop stop-color="#E8F0FA"/>
<stop offset="1" stop-color="#F4F9FF"/>
</linearGradient>
<linearGradient id="paint1_linear_1123_1877" x1="33.4937" y1="17.7154" x2="11.706" y2="45.406" gradientUnits="userSpaceOnUse">
<stop stop-color="#FCC68F"/>
<stop offset="0.507616" stop-color="#FF9C9D"/>
<stop offset="1" stop-color="#FC8ABC"/>
</linearGradient>
<radialGradient id="paint2_radial_1123_1877" cx="0" cy="0" r="1" gradientUnits="userSpaceOnUse" gradientTransform="translate(16.6875 44.9632) rotate(-50.7484) scale(45.5309 54.9813)">
<stop stop-color="#024CE4"/>
<stop offset="0.482969" stop-color="#0065FF"/>
<stop offset="1" stop-color="#1CA2FF"/>
</radialGradient>
</defs>
</svg>
