<svg width="54" height="54" viewBox="0 0 54 54" fill="none" xmlns="http://www.w3.org/2000/svg">
<path d="M51 27C51 40.2548 40.2548 51 27 51C13.7452 51 3 40.2548 3 27C3 13.7452 13.7452 3 27 3C40.2548 3 51 13.7452 51 27Z" fill="#F4F9FF"/>
<path fill-rule="evenodd" clip-rule="evenodd" d="M54 27C54 41.9117 41.9117 54 27 54C12.0883 54 0 41.9117 0 27C0 12.0883 12.0883 0 27 0C41.9117 0 54 12.0883 54 27ZM27 51C40.2548 51 51 40.2548 51 27C51 13.7452 40.2548 3 27 3C13.7452 3 3 13.7452 3 27C3 40.2548 13.7452 51 27 51Z" fill="url(#paint0_linear_1123_1739)"/>
<path fill-rule="evenodd" clip-rule="evenodd" d="M34.6985 18.2992C32.6401 16.4724 29.9579 15.4016 27.0262 15.4016C23.6579 15.4016 20.6638 16.8504 18.543 19.1181L15.6113 17.3543C18.3559 14.0787 22.4727 12 27.0262 12C31.2054 12 35.0104 13.7008 37.6926 16.5354L39.1272 15.7165L39.9381 15.2126L38.6282 21.3228L32.7648 19.4331L34.6985 18.2992ZM31.7698 41.4171L32.2064 43.1179L32.4559 43.9998L26.9668 41.1652L30.2727 35.8738L30.8965 38.1416C35.3876 36.5667 38.6312 32.2203 38.6312 27.1179C38.6312 26.1731 38.5064 25.2282 38.3193 24.3463L41.3134 22.5825C41.75 24.0313 41.9995 25.5431 41.9995 27.1179C41.9995 33.7321 37.6955 39.4014 31.7698 41.4171ZM22.7248 41.5432L23.5357 38.2676C18.8574 36.7558 15.4891 32.3464 15.4891 27.0551V27.055C15.4891 26.6141 15.4891 26.1102 15.5515 25.6692L18.1089 26.2992L15.1772 20.8188L10 24.2834L10.8733 24.5354L12.2455 24.9133C12.1208 25.6062 12.0584 26.3621 12.0584 27.118C12.0584 33.9212 16.5495 39.6535 22.7248 41.5432Z" fill="url(#paint1_radial_1123_1739)"/>
<path fill-rule="evenodd" clip-rule="evenodd" d="M21.116 25.6229L20.0605 26.6887L21.116 27.7546L25.9677 32.6542L27.0231 33.72L28.0785 32.6542L32.9302 27.7546L33.9857 26.6887L32.9302 25.6229L28.0785 20.7233L27.0231 19.6575L25.9677 20.7233L21.116 25.6229ZM27.0231 29.4566L24.2823 26.6887L27.0231 23.9209L29.7639 26.6887L27.0231 29.4566Z" fill="url(#paint2_linear_1123_1739)"/>
<defs>
<linearGradient id="paint0_linear_1123_1739" x1="0.759376" y1="0.000205669" x2="56.4891" y2="5.0654" gradientUnits="userSpaceOnUse">
<stop stop-color="#E8F0FA"/>
<stop offset="1" stop-color="#F4F9FF"/>
</linearGradient>
<radialGradient id="paint1_radial_1123_1739" cx="0" cy="0" r="1" gradientUnits="userSpaceOnUse" gradientTransform="translate(18.109 42.236) rotate(-55.9935) scale(34.5743 42.4274)">
<stop stop-color="#024CE4"/>
<stop offset="0.439568" stop-color="#0065FF"/>
<stop offset="1" stop-color="#1CA2FF"/>
</radialGradient>
<linearGradient id="paint2_linear_1123_1739" x1="32.6802" y1="19.6575" x2="22.0095" y2="38.2905" gradientUnits="userSpaceOnUse">
<stop stop-color="#FCC68F"/>
<stop offset="0.507616" stop-color="#FF9C9D"/>
<stop offset="1" stop-color="#FC8ABC"/>
</linearGradient>
</defs>
</svg>
