<svg width="54" height="54" viewBox="0 0 54 54" fill="none" xmlns="http://www.w3.org/2000/svg">
<circle cx="27" cy="27" r="25.5" fill="#F4F9FF" stroke="url(#paint0_linear_1123_1939)" stroke-width="3"/>
<path fill-rule="evenodd" clip-rule="evenodd" d="M15.2996 11H16.7883H32.12H33.6087V12.4887V14.2022H40.3677H41.8564V15.6909V30.8285V32.3172H40.3677H38.3631V41.5995V43.0882H36.8744H13.4887H12V41.5995V20.2516V18.7629H13.4887H15.2996V12.4887V11ZM18.277 18.7629H24.4538V21.7403H14.9774V40.1108H35.3857V32.3172H25.133V29.3398H38.879V17.1796H33.6087V23.8419H30.6313V13.9774H18.277V18.7629Z" fill="#036DFF"/>
<path fill-rule="evenodd" clip-rule="evenodd" d="M22.026 20.8338L24.0637 22.8715C24.3549 23.1626 24.84 23.1626 25.1311 22.9685L27.1689 20.9308C27.46 20.6397 27.46 20.1545 27.1689 19.8634L25.1311 17.8256C24.84 17.5345 24.3549 17.5345 24.0637 17.8256L22.026 19.7664C21.7349 20.0575 21.7349 20.5426 22.026 20.8338ZM31.4389 26.947L29.207 24.6182C28.9159 24.3271 28.9159 23.7448 29.207 23.4537L31.4389 21.2219C31.73 20.9308 32.3122 20.9308 32.6033 21.2219L34.8351 23.4537C35.1262 23.7448 35.1262 24.3271 34.8351 24.6182L32.6033 26.85C32.3122 27.2381 31.827 27.2381 31.4389 26.947ZM24.2582 35.462L20.8619 32.0657C20.3768 31.5805 20.3768 30.8042 20.8619 30.319L24.2582 26.9228C24.7434 26.4376 25.5197 26.4376 26.0048 26.9228L29.4011 30.319C29.8863 30.8042 29.8863 31.5805 29.4011 32.0657L26.0048 35.462C25.5197 35.9471 24.7434 35.9471 24.2582 35.462Z" fill="url(#paint1_linear_1123_1939)"/>
<defs>
<linearGradient id="paint0_linear_1123_1939" x1="3.675" y1="3.00018" x2="53.2125" y2="7.50258" gradientUnits="userSpaceOnUse">
<stop stop-color="#E8F0FA"/>
<stop offset="1" stop-color="#F4F9FF"/>
</linearGradient>
<linearGradient id="paint1_linear_1123_1939" x1="36.3267" y1="18.1112" x2="25.1662" y2="40.592" gradientUnits="userSpaceOnUse">
<stop stop-color="#FCC68F"/>
<stop offset="0.507616" stop-color="#FF9C9D"/>
<stop offset="1" stop-color="#FC8ABC"/>
</linearGradient>
</defs>
</svg>
