<svg width="24" height="25" viewBox="0 0 24 25" fill="none" xmlns="http://www.w3.org/2000/svg">
<g clip-path="url(#clip0_939_10860)">
<path d="M4.70496 0.229614C2.11975 0.229614 0.00390625 2.34541 0.00390625 4.93066V19.5188C0.00390625 22.1041 2.1197 24.2191 4.70496 24.2191H19.2931C21.8784 24.2191 23.9934 22.1041 23.9934 19.5188V4.93066C23.9934 2.34545 21.8784 0.229614 19.2931 0.229614H4.70496ZM5.88734 4.18837C7.12689 4.18837 7.89041 5.00211 7.91398 6.07177C7.91398 7.11781 7.12685 7.95442 5.86337 7.95442H5.84011C4.62415 7.95442 3.83822 7.11785 3.83822 6.07177C3.83822 5.00213 4.64793 4.18837 5.88732 4.18837H5.88734ZM16.5693 9.18781C18.9532 9.18781 20.7402 10.7459 20.7402 14.0943V20.345H17.1174V14.5134C17.1174 13.0479 16.593 12.0481 15.2819 12.0481C14.281 12.0481 13.6844 12.722 13.4225 13.373C13.3268 13.6059 13.3033 13.9311 13.3033 14.2569V20.345H9.68042C9.68042 20.345 9.72797 10.4663 9.68042 9.44345H13.304V10.9872C13.7855 10.2444 14.6467 9.18778 16.5693 9.18778V9.18781ZM4.05192 9.44425H7.67479V20.3451H4.05192V9.44425Z" fill="#006599"/>
</g>
<defs>
<clipPath id="clip0_939_10860">
<rect width="24" height="24" fill="white" transform="translate(0 0.223633)"/>
</clipPath>
</defs>
</svg>
