<svg width="24" height="25" viewBox="0 0 24 25" fill="none" xmlns="http://www.w3.org/2000/svg">
<path fill-rule="evenodd" clip-rule="evenodd" d="M3.5 10.5414C3.5 5.94152 7.34388 2.22363 11.9934 2.22363C16.6561 2.22363 20.5 5.94152 20.5 10.5414C20.5 12.8593 19.657 15.0113 18.2695 16.8352C16.7388 18.8471 14.8522 20.6001 12.7285 21.9761C12.2425 22.2941 11.8039 22.318 11.2704 21.9761C9.13474 20.6001 7.24809 18.8471 5.7305 16.8352C4.34198 15.0113 3.5 12.8593 3.5 10.5414ZM9.19423 10.8004C9.19423 12.3413 10.4517 13.5533 11.9934 13.5533C13.5362 13.5533 14.8058 12.3413 14.8058 10.8004C14.8058 9.27143 13.5362 8.00046 11.9934 8.00046C10.4517 8.00046 9.19423 9.27143 9.19423 10.8004Z" fill="#0C6DFA"/>
</svg>
