<svg width="165" height="32" viewBox="0 0 165 32" fill="none" xmlns="http://www.w3.org/2000/svg">
<path d="M53.2915 13.9908C53.0515 13.7508 52.7315 13.5268 52.3315 13.3188C51.9475 13.1108 51.5075 12.9428 51.0115 12.8148C50.5155 12.6868 49.9875 12.6228 49.4275 12.6228C48.3555 12.6228 47.5635 12.7988 47.0515 13.1508C46.5395 13.5028 46.2835 13.9908 46.2835 14.6148C46.2835 15.0468 46.4195 15.3908 46.6915 15.6468C46.9635 15.9028 47.3715 16.1188 47.9155 16.2948C48.4755 16.4548 49.1715 16.6308 50.0035 16.8228C50.9795 17.0308 51.8275 17.2788 52.5475 17.5668C53.2675 17.8548 53.8195 18.2388 54.2035 18.7188C54.6035 19.1828 54.8035 19.8148 54.8035 20.6148C54.8035 21.2708 54.6675 21.8388 54.3955 22.3188C54.1395 22.7988 53.7715 23.1908 53.2915 23.4948C52.8275 23.7988 52.2755 24.0228 51.6355 24.1668C51.0115 24.3108 50.3315 24.3828 49.5955 24.3828C48.5075 24.3828 47.4595 24.2308 46.4515 23.9268C45.4595 23.6068 44.5635 23.1508 43.7635 22.5588L44.6755 20.9268C44.9955 21.2148 45.4035 21.4948 45.8995 21.7668C46.3955 22.0228 46.9635 22.2388 47.6035 22.4148C48.2435 22.5748 48.9235 22.6548 49.6435 22.6548C50.6035 22.6548 51.3555 22.5028 51.8995 22.1988C52.4595 21.8788 52.7395 21.4148 52.7395 20.8068C52.7395 20.3428 52.5795 19.9748 52.2595 19.7028C51.9395 19.4148 51.4755 19.1748 50.8675 18.9828C50.2755 18.7908 49.5395 18.5988 48.6595 18.4068C47.6995 18.1828 46.8995 17.9348 46.2595 17.6628C45.6195 17.3748 45.1315 17.0068 44.7955 16.5588C44.4755 16.1108 44.3155 15.5348 44.3155 14.8308C44.3155 13.9828 44.5395 13.2708 44.9875 12.6948C45.4355 12.1028 46.0435 11.6628 46.8115 11.3748C47.5955 11.0708 48.4755 10.9188 49.4515 10.9188C50.4115 10.9188 51.2835 11.0548 52.0675 11.3268C52.8675 11.5988 53.5635 11.9668 54.1555 12.4308L53.2915 13.9908ZM67.8929 22.5348V24.2388H58.0049V11.0148H67.7009V12.7188H59.9249V16.7028H66.6929V18.2868H59.9249V22.5348H67.8929ZM73.1315 14.5908V24.2388H71.2115V11.0148H72.6995L81.5795 20.8548V11.0148H83.4995V24.2388H81.8915L73.1315 14.5908ZM98.2576 12.7188H93.2896V24.2388H91.3696V12.7188H86.3776V11.0148H98.2576V12.7188ZM101.14 24.2388V11.0148H103.06V24.2388H101.14ZM106.403 17.5188C106.403 16.7188 106.555 15.9348 106.859 15.1668C107.163 14.3828 107.611 13.6708 108.203 13.0308C108.795 12.3908 109.515 11.8868 110.363 11.5188C111.227 11.1348 112.211 10.9428 113.315 10.9428C114.595 10.9428 115.699 11.2148 116.627 11.7588C117.571 12.2868 118.267 12.9748 118.715 13.8228L117.203 14.8308C116.787 14.0148 116.203 13.4548 115.451 13.1508C114.699 12.8308 113.963 12.6708 113.243 12.6708C112.443 12.6708 111.739 12.8148 111.131 13.1028C110.523 13.3908 110.011 13.7748 109.595 14.2548C109.179 14.7188 108.867 15.2468 108.659 15.8388C108.451 16.4148 108.347 17.0068 108.347 17.6148C108.347 18.2708 108.467 18.9028 108.707 19.5108C108.963 20.1028 109.307 20.6388 109.739 21.1188C110.187 21.5828 110.707 21.9508 111.299 22.2228C111.907 22.4948 112.571 22.6308 113.291 22.6308C113.787 22.6308 114.299 22.5508 114.827 22.3908C115.355 22.2308 115.843 21.9908 116.291 21.6708C116.739 21.3348 117.099 20.9028 117.371 20.3748L118.979 21.2868C118.675 21.9428 118.203 22.5028 117.563 22.9668C116.939 23.4148 116.243 23.7588 115.475 23.9988C114.707 24.2388 113.947 24.3588 113.195 24.3588C112.203 24.3588 111.291 24.1668 110.459 23.7828C109.627 23.3828 108.907 22.8548 108.299 22.1988C107.691 21.5428 107.219 20.8148 106.883 20.0148C106.563 19.1988 106.403 18.3668 106.403 17.5188ZM127.832 24.3348C126.808 24.3348 125.88 24.1508 125.048 23.7828C124.216 23.3988 123.496 22.8868 122.888 22.2468C122.28 21.6068 121.808 20.8868 121.472 20.0868C121.152 19.2868 120.992 18.4628 120.992 17.6148C120.992 16.7348 121.16 15.8948 121.496 15.0948C121.848 14.2948 122.328 13.5828 122.936 12.9588C123.56 12.3348 124.288 11.8468 125.12 11.4948C125.968 11.1268 126.88 10.9428 127.856 10.9428C128.88 10.9428 129.808 11.1348 130.64 11.5188C131.472 11.9028 132.184 12.4148 132.776 13.0548C133.384 13.6948 133.848 14.4148 134.168 15.2148C134.504 16.0148 134.672 16.8308 134.672 17.6628C134.672 18.5428 134.496 19.3828 134.144 20.1828C133.808 20.9828 133.336 21.6948 132.728 22.3188C132.12 22.9428 131.4 23.4388 130.568 23.8068C129.736 24.1588 128.824 24.3348 127.832 24.3348ZM122.936 17.6388C122.936 18.2788 123.048 18.8948 123.272 19.4868C123.512 20.0788 123.848 20.6148 124.28 21.0948C124.712 21.5588 125.232 21.9268 125.84 22.1988C126.448 22.4708 127.12 22.6068 127.856 22.6068C128.608 22.6068 129.28 22.4628 129.872 22.1748C130.48 21.8868 130.992 21.5028 131.408 21.0228C131.824 20.5428 132.144 20.0068 132.368 19.4148C132.592 18.8228 132.704 18.2228 132.704 17.6148C132.704 16.9748 132.584 16.3588 132.344 15.7668C132.12 15.1748 131.792 14.6468 131.36 14.1828C130.928 13.7188 130.408 13.3508 129.8 13.0788C129.208 12.8068 128.552 12.6708 127.832 12.6708C127.08 12.6708 126.4 12.8148 125.792 13.1028C125.184 13.3748 124.664 13.7508 124.232 14.2308C123.816 14.7108 123.496 15.2468 123.272 15.8388C123.048 16.4308 122.936 17.0308 122.936 17.6388ZM138.018 24.2388V11.0148H144.258C145.122 11.0148 145.882 11.2308 146.538 11.6628C147.21 12.0788 147.73 12.6148 148.098 13.2708C148.482 13.9108 148.674 14.5828 148.674 15.2868C148.674 15.8788 148.546 16.4468 148.29 16.9908C148.05 17.5188 147.706 17.9828 147.258 18.3828C146.81 18.7668 146.282 19.0388 145.674 19.1988L149.178 24.2388H146.97L143.706 19.5828H139.938V24.2388H138.018ZM139.938 17.8788H144.258C144.754 17.8788 145.186 17.7588 145.554 17.5188C145.922 17.2788 146.21 16.9668 146.418 16.5828C146.626 16.1828 146.73 15.7508 146.73 15.2868C146.73 14.8068 146.61 14.3748 146.37 13.9908C146.146 13.6068 145.834 13.3028 145.434 13.0788C145.05 12.8388 144.618 12.7188 144.138 12.7188H139.938V17.8788ZM162.214 22.5348V24.2388H152.326V11.0148H162.022V12.7188H154.246V16.7028H161.014V18.2868H154.246V22.5348H162.214Z" fill="#160A58"/>
<path fill-rule="evenodd" clip-rule="evenodd" d="M22.6545 32.0005H16.3746C16.0883 32.0005 15.9631 31.6587 16.1599 31.4608L17.2334 30.3814L17.6449 29.9677L19.5951 28.0068L29.8828 17.6628C30.5805 16.9612 31.7972 17.1951 32.155 18.1305C32.5844 19.2819 32.7454 20.5052 32.7812 21.6025C32.978 27.3052 28.3441 32.0005 22.6545 32.0005Z" fill="url(#paint0_radial_931_814)"/>
<path fill-rule="evenodd" clip-rule="evenodd" d="M0.792969 27.9751V18.6799C0.792969 17.4213 2.32549 16.7741 3.22697 17.6731L14.4595 28.8381C14.7479 29.1258 14.7479 29.6112 14.4595 29.8989L13.0351 31.3192C12.6385 31.7148 12.1156 31.9305 11.5567 31.9305H4.75949C2.57791 31.9305 0.792969 30.1506 0.792969 27.9751Z" fill="url(#paint1_radial_931_814)"/>
<path fill-rule="evenodd" clip-rule="evenodd" d="M0.792969 27.9751V18.6799C0.792969 17.4213 2.32549 16.7741 3.22697 17.6731L14.4595 28.8381C14.7479 29.1258 14.7479 29.6112 14.4595 29.8989L13.0351 31.3192C12.6385 31.7148 12.1156 31.9305 11.5567 31.9305H4.75949C2.57791 31.9305 0.792969 30.1506 0.792969 27.9751Z" fill="url(#paint2_linear_931_814)"/>
<path fill-rule="evenodd" clip-rule="evenodd" d="M0.792969 27.9751V18.6799C0.792969 17.4213 2.32549 16.7741 3.22697 17.6731L14.4595 28.8381C14.7479 29.1258 14.7479 29.6112 14.4595 29.8989L13.0351 31.3193C12.6385 31.7148 12.1156 31.9305 11.5567 31.9305H4.75949C2.57791 31.9305 0.792969 30.1506 0.792969 27.9751Z" fill="url(#paint3_linear_931_814)"/>
<path fill-rule="evenodd" clip-rule="evenodd" d="M20.1383 20.7591C17.6155 20.939 15.1107 20.939 12.588 20.7591C12.087 20.7231 11.6755 20.3094 11.6397 19.8057C11.4608 17.2692 11.4608 14.7506 11.6397 12.2141C11.6755 11.7104 12.087 11.2966 12.588 11.2606C15.1107 11.0808 17.6155 11.0808 20.1383 11.2607C20.6392 11.2966 21.0507 11.7104 21.0865 12.2141C21.2654 14.7146 21.2654 17.2512 21.0865 19.8057C21.0507 20.3094 20.6571 20.7231 20.1383 20.7591Z" fill="url(#paint4_radial_931_814)"/>
<path fill-rule="evenodd" clip-rule="evenodd" d="M10.1326 -0.000474552L16.4125 -0.000474003C16.6988 -0.000473978 16.824 0.341328 16.6272 0.539212L15.5537 1.61858L15.1422 2.03234L13.192 3.9932L2.90433 14.3372C2.20656 15.0388 0.989928 14.8049 0.632095 13.8695C0.202696 12.7181 0.0416701 11.4948 0.00588646 10.3975C-0.190921 4.69479 4.44302 -0.00047505 10.1326 -0.000474552Z" fill="url(#paint5_radial_931_814)"/>
<path fill-rule="evenodd" clip-rule="evenodd" d="M31.9941 4.02439L31.9941 13.3196C31.9941 14.5782 30.4616 15.2254 29.5601 14.3265L18.3277 3.16139C18.0392 2.87372 18.0392 2.38829 18.3277 2.10062L19.752 0.680261C20.1487 0.284719 20.6715 0.0689706 21.2304 0.0689707L28.0276 0.0689713C30.2092 0.0689715 31.9941 1.84891 31.9941 4.02439Z" fill="url(#paint6_radial_931_814)"/>
<path fill-rule="evenodd" clip-rule="evenodd" d="M31.9941 4.02439L31.9941 13.3196C31.9941 14.5782 30.4616 15.2254 29.5601 14.3265L18.3277 3.16139C18.0392 2.87372 18.0392 2.38829 18.3277 2.10062L19.752 0.680261C20.1487 0.284719 20.6715 0.0689706 21.2304 0.0689707L28.0276 0.0689713C30.2092 0.0689715 31.9941 1.84891 31.9941 4.02439Z" fill="url(#paint7_linear_931_814)"/>
<path fill-rule="evenodd" clip-rule="evenodd" d="M31.9941 4.02439L31.9941 13.3196C31.9941 14.5782 30.4616 15.2254 29.5601 14.3265L18.3277 3.16139C18.0392 2.87372 18.0392 2.38829 18.3277 2.10062L19.752 0.680261C20.1487 0.284719 20.6715 0.0689706 21.2304 0.0689707L28.0276 0.0689713C30.2092 0.0689715 31.9941 1.84891 31.9941 4.02439Z" fill="url(#paint8_linear_931_814)"/>
<path fill-rule="evenodd" clip-rule="evenodd" d="M12.6489 11.2404C15.1716 11.0605 17.6764 11.0605 20.1991 11.2404C20.7001 11.2764 21.1116 11.6901 21.1474 12.1938C21.3263 14.7304 21.3263 17.2489 21.1474 19.7854C21.1116 20.2891 20.7001 20.7029 20.1991 20.7389C17.6764 20.9188 15.1716 20.9188 12.6489 20.7389C12.1479 20.7029 11.7364 20.2891 11.7006 19.7854C11.5217 17.2849 11.5217 14.7483 11.7006 12.1938C11.7364 11.6901 12.13 11.2764 12.6489 11.2404Z" fill="url(#paint9_radial_931_814)"/>
<defs>
<radialGradient id="paint0_radial_931_814" cx="0" cy="0" r="1" gradientUnits="userSpaceOnUse" gradientTransform="translate(14.0896 14.4536) rotate(40.795) scale(21.683 16.0419)">
<stop offset="0.578385" stop-color="#1AA5F7"/>
<stop offset="0.805101" stop-color="#006DFF"/>
<stop offset="0.9172" stop-color="#0047FF"/>
<stop offset="0.9844" stop-color="#3241C8"/>
</radialGradient>
<radialGradient id="paint1_radial_931_814" cx="0" cy="0" r="1" gradientUnits="userSpaceOnUse" gradientTransform="translate(4.19941 18.1176) rotate(95.9131) scale(33.7754 29.4264)">
<stop stop-color="#FFCC77"/>
<stop offset="0.536458" stop-color="#FFA4B0"/>
<stop offset="0.99672" stop-color="#F98AE8"/>
</radialGradient>
<linearGradient id="paint2_linear_931_814" x1="11.3985" y1="18.7175" x2="1.67973" y2="18.7175" gradientUnits="userSpaceOnUse">
<stop stop-color="#FFCC77" stop-opacity="0"/>
<stop offset="0.536458" stop-color="#FFA4B0" stop-opacity="0.3"/>
<stop offset="0.99672" stop-color="#F98AE8"/>
</linearGradient>
<linearGradient id="paint3_linear_931_814" x1="7.67897" y1="18.7175" x2="7.67897" y2="31.9159" gradientUnits="userSpaceOnUse">
<stop stop-color="#FFCC77" stop-opacity="0"/>
<stop offset="0.536458" stop-color="#FFA4B0" stop-opacity="0.3"/>
<stop offset="0.99672" stop-color="#F98AE8"/>
</linearGradient>
<radialGradient id="paint4_radial_931_814" cx="0" cy="0" r="1" gradientUnits="userSpaceOnUse" gradientTransform="translate(16.2726 16.0456) rotate(-90) scale(9.20622 8.43298)">
<stop stop-color="#FFCC77"/>
<stop offset="0.536458" stop-color="#FFA4B0"/>
<stop offset="0.99672" stop-color="#F98AE8"/>
</radialGradient>
<radialGradient id="paint5_radial_931_814" cx="0" cy="0" r="1" gradientUnits="userSpaceOnUse" gradientTransform="translate(18.6975 17.5464) rotate(-139.205) scale(21.683 16.0419)">
<stop offset="0.578385" stop-color="#1AA5F7"/>
<stop offset="0.805101" stop-color="#006DFF"/>
<stop offset="0.9172" stop-color="#0047FF"/>
<stop offset="0.9844" stop-color="#3241C8"/>
</radialGradient>
<radialGradient id="paint6_radial_931_814" cx="0" cy="0" r="1" gradientUnits="userSpaceOnUse" gradientTransform="translate(28.5877 13.8819) rotate(-84.0869) scale(33.7754 29.4264)">
<stop stop-color="#FFCC77"/>
<stop offset="0.536458" stop-color="#FFA4B0"/>
<stop offset="0.99672" stop-color="#F98AE8"/>
</radialGradient>
<linearGradient id="paint7_linear_931_814" x1="21.3886" y1="13.282" x2="31.1074" y2="13.282" gradientUnits="userSpaceOnUse">
<stop stop-color="#FFCC77" stop-opacity="0"/>
<stop offset="0.536458" stop-color="#FFA4B0" stop-opacity="0.3"/>
<stop offset="0.99672" stop-color="#F98AE8"/>
</linearGradient>
<linearGradient id="paint8_linear_931_814" x1="25.1081" y1="13.282" x2="25.1081" y2="0.0836583" gradientUnits="userSpaceOnUse">
<stop stop-color="#FFCC77" stop-opacity="0"/>
<stop offset="0.536458" stop-color="#FFA4B0" stop-opacity="0.3"/>
<stop offset="0.99672" stop-color="#F98AE8"/>
</linearGradient>
<radialGradient id="paint9_radial_931_814" cx="0" cy="0" r="1" gradientUnits="userSpaceOnUse" gradientTransform="translate(16.5145 15.9539) rotate(90) scale(9.20622 8.43298)">
<stop stop-color="#FFCC77"/>
<stop offset="0.536458" stop-color="#FFA4B0"/>
<stop offset="0.99672" stop-color="#F98AE8"/>
</radialGradient>
</defs>
</svg>
