<svg width="672" height="452" viewBox="0 0 672 452" fill="none" xmlns="http://www.w3.org/2000/svg">
<path d="M580.808 436.772H116.244" stroke="#003455" stroke-width="2" stroke-miterlimit="10" stroke-linecap="round" stroke-linejoin="round"/>
<circle cx="333.5" cy="225.5" r="210.5" fill="#E7F3FF"/>
<path d="M186.5 126.5L240.5 262.5H425L464.5 126.5H186.5Z" fill="url(#paint0_linear_1026_1061)"/>
<path d="M441.571 401.673H224.852V409.289H441.571V401.673Z" fill="#2A1F2F"/>
<path d="M215.25 399.024L205.979 416.739H224.687V399.024H215.25Z" fill="#2A1F2F"/>
<path d="M229.324 416.739V399.024H223.529L214.258 416.739H229.324Z" fill="#2A1F2F"/>
<path d="M462.432 409.289H213.098V416.905H462.432V409.289Z" fill="#5498FF"/>
<path d="M463.592 409.124H347.037V416.905H463.592V409.124Z" fill="#2A1F2F"/>
<path d="M449.353 398.197H216.74V401.839H449.353V398.197Z" fill="#EDF2F8"/>
<path d="M488.59 416.739H177.998V428.825H488.59V416.739Z" fill="#5896F2"/>
<path d="M475.181 428.66H191.41V436.772H475.181V428.66Z" fill="#2A1F2F"/>
<path d="M349.686 270.218H221.045V398.859H349.686V270.218Z" fill="#F8E5CD"/>
<path d="M443.89 270.218H349.852V398.859H443.89V270.218Z" fill="#F9AD99"/>
<path d="M221.045 374.356V398.859H248.859L221.045 374.356Z" stroke="#003455" stroke-width="2" stroke-miterlimit="10" stroke-linecap="round" stroke-linejoin="round"/>
<path d="M443.888 374.356V398.859H416.074L443.888 374.356Z" stroke="#003455" stroke-width="2" stroke-miterlimit="10" stroke-linecap="round" stroke-linejoin="round"/>
<path d="M349.852 374.356V398.859H377.5L349.852 374.356Z" stroke="#003455" stroke-width="2" stroke-miterlimit="10" stroke-linecap="round" stroke-linejoin="round"/>
<path d="M349.851 374.356V398.859H322.037L349.851 374.356Z" stroke="#003455" stroke-width="2" stroke-miterlimit="10" stroke-linecap="round" stroke-linejoin="round"/>
<path d="M285.945 337.105C293.56 337.105 299.686 335.284 299.686 332.966C299.686 330.648 293.56 328.827 285.945 328.827C278.329 328.827 272.203 330.648 272.203 332.966C272.203 335.284 278.329 337.105 285.945 337.105Z" stroke="#003455" stroke-width="2" stroke-miterlimit="10"/>
<path fill-rule="evenodd" clip-rule="evenodd" d="M285.944 343.892C282.136 343.892 278.825 343.396 276.507 342.734C275.348 342.402 274.355 342.071 273.858 341.575C273.361 341.078 273.196 340.912 273.196 340.747H271.209C271.209 341.74 271.871 342.568 272.699 343.23C273.527 343.892 274.686 344.224 275.845 344.72C278.494 345.548 281.97 346.045 285.778 346.045C289.752 346.045 293.229 345.548 295.712 344.72C297.036 344.389 298.195 343.892 298.858 343.23C299.685 342.734 300.348 341.906 300.348 340.747H298.361C298.361 340.747 298.361 341.078 297.699 341.575C297.036 341.906 296.209 342.402 295.05 342.734C293.063 343.396 289.752 343.892 285.944 343.892ZM285.944 351.508C282.136 351.508 278.825 351.012 276.507 350.349C275.348 350.018 274.355 349.687 273.858 349.19C273.361 348.694 273.196 348.528 273.196 348.363H271.209C271.209 349.356 271.871 350.184 272.699 350.846C273.527 351.508 274.686 351.839 275.845 352.336C278.494 353.164 281.97 353.661 285.778 353.661C289.752 353.661 293.229 353.164 295.712 352.336C297.036 352.005 298.195 351.508 298.858 350.846C299.685 350.349 300.348 349.522 300.348 348.363H298.361C298.361 348.363 298.361 348.694 297.699 349.19C297.036 349.522 296.209 350.018 295.05 350.349C293.063 351.012 289.752 351.508 285.944 351.508Z" fill="url(#paint1_radial_1026_1061)"/>
<path d="M272.203 332.966V356.144C272.203 358.462 278.329 360.283 285.945 360.283C293.56 360.283 299.686 358.462 299.686 356.144V332.966" stroke="#003455" stroke-width="2" stroke-miterlimit="10"/>
<path d="M299.686 347.7H303.99C308.792 347.7 312.599 343.892 312.599 339.091C312.599 334.29 308.792 330.482 303.99 330.482C303.825 330.482 303.659 330.482 303.494 330.482C302.997 325.846 299.189 322.038 294.388 321.707C292.07 315.25 286.11 310.615 278.825 310.615C270.547 310.615 263.593 316.906 262.435 324.853C262.269 324.853 262.269 324.853 262.103 324.853C255.812 324.853 250.68 329.985 250.68 336.277C250.68 342.568 255.812 347.7 262.103 347.7H271.706" stroke="#003455" stroke-width="2" stroke-miterlimit="10"/>
<path d="M338.592 282.469H310.281V298.363H338.592V282.469Z" fill="#F9AD99"/>
<path d="M240.912 264.755V228H344.388V264.755" fill="#5896F2"/>
<path d="M344.387 239.589V264.755L383.625 264.589V239.589H344.387Z" fill="#FF8080"/>
<path d="M383.625 247.04V274.192L422.863 264.589V247.04H383.625Z" fill="#919DFC"/>
<path d="M344.387 228V264.755" stroke="#003455" stroke-width="1.58061" stroke-miterlimit="10"/>
<path d="M383.625 239.589V264.589" stroke="#003455" stroke-width="1.58061" stroke-miterlimit="10"/>
<path d="M422.863 247.04V264.589" stroke="#003455" stroke-width="1.58061" stroke-miterlimit="10"/>
<path fill-rule="evenodd" clip-rule="evenodd" d="M81.3833 340.934L77.9883 344.329L81.3832 347.724L83.7184 345.389H154.41L173.607 364.428L157.716 380.475H118.427L116.161 378.208L112.766 381.603L116.161 384.998L118.684 382.475H158.133H158.55L158.844 382.179L175.437 365.422H221.046V363.422H175.432L155.526 343.679L155.234 343.389H154.822H83.8381L81.3833 340.934Z" fill="url(#paint2_linear_1026_1061)"/>
<path d="M267.567 239.589H253.494V253.662H267.567V239.589Z" stroke="white" stroke-width="3.16122" stroke-miterlimit="10"/>
<path d="M375.512 247.364H365.578V257.132H375.512V247.364Z" stroke="white" stroke-width="3.16122" stroke-miterlimit="10"/>
<path d="M279.322 239.589H330.646" stroke="#003455" stroke-width="3.16122" stroke-miterlimit="10" stroke-linecap="round"/>
<path d="M279.322 253H330.646" stroke="#003455" stroke-width="3.16122" stroke-miterlimit="10" stroke-linecap="round"/>
<path fill-rule="evenodd" clip-rule="evenodd" d="M494.167 262L494.46 262.293L514.862 282.695H539.407L542.102 280L545.497 283.395L542.102 286.79L540.007 284.695H514.448H514.034L513.741 284.402L493.339 264H464.863L451.414 277.449L450 276.034L463.742 262.293L464.034 262H464.449H493.753H494.167Z" fill="url(#paint3_linear_1026_1061)"/>
<path fill-rule="evenodd" clip-rule="evenodd" d="M490.326 362.395L493.721 359L497.116 362.395L493.721 365.79L492.718 364.786L470.314 387.037L470.021 387.327H469.609H436V385.327H469.197L491.303 363.372L490.326 362.395Z" fill="url(#paint4_linear_1026_1061)"/>
<path fill-rule="evenodd" clip-rule="evenodd" d="M176.789 307.395L173.394 304L169.999 307.395L173.394 310.79L174.398 309.786L196.802 332.037L197.094 332.327H197.506H231.115V330.327H197.919L175.812 308.372L176.789 307.395Z" fill="url(#paint5_radial_1026_1061)"/>
<path fill-rule="evenodd" clip-rule="evenodd" d="M423 323H493.447L524.942 354.331L525.008 354.396L549.442 378.995L549.735 379.291H550.151H594.051L596.428 381.668L599.823 378.273L596.428 374.878L594.016 377.291H550.568L528.051 354.622H557.435H557.847L558.139 354.332L576.887 335.748H601.882L604.362 338.228L607.757 334.833L604.362 331.438L602.051 333.748H576.475H576.063L575.771 334.038L557.024 352.622H526.06L494.565 321.291L494.273 321H493.86H423V323Z" fill="url(#paint6_radial_1026_1061)"/>
<path d="M279.157 377.833C299.913 377.833 316.739 361.006 316.739 340.25C316.739 319.494 299.913 302.668 279.157 302.668C258.4 302.668 241.574 319.494 241.574 340.25C241.574 361.006 258.4 377.833 279.157 377.833Z" fill="#FF8080"/>
<path d="M349.686 273.529H218.893V402.667H349.686V273.529Z" fill="#2A1F2F"/>
<path d="M436.771 262.437H229.655L227.668 273.86H439.917L436.771 262.437Z" fill="#2A1F2F"/>
<path d="M455.479 273.529H347.037V402.667H455.479V273.529Z" fill="#2A1F2F"/>
<path d="M280.812 340.085H216.574V404.819H280.812V340.085Z" fill="white"/>
<path d="M283.461 376.674C305.04 376.674 322.533 359.18 322.533 337.601C322.533 316.022 305.04 298.529 283.461 298.529C261.882 298.529 244.389 316.022 244.389 337.601C244.389 359.18 261.882 376.674 283.461 376.674Z" fill="#FF8080"/>
<path d="M280.813 270.384H215.582V335.118H280.813V270.384Z" fill="white"/>
<path d="M350.181 270.218H286.109V334.952H350.181V270.218Z" fill="white"/>
<path d="M350.844 340.25H286.109V404.985H350.844V340.25Z" fill="white"/>
<path d="M283.461 376.674C305.04 376.674 322.533 359.18 322.533 337.601C322.533 316.022 305.04 298.529 283.461 298.529C261.882 298.529 244.389 316.022 244.389 337.601C244.389 359.18 261.882 376.674 283.461 376.674Z" fill="#FFCC77"/>
<path d="M283.461 376.674C305.04 376.674 322.533 359.18 322.533 337.601C322.533 316.022 305.04 298.529 283.461 298.529C261.882 298.529 244.389 316.022 244.389 337.601C244.389 359.18 261.882 376.674 283.461 376.674Z" stroke="#003455" stroke-width="2" stroke-miterlimit="10" stroke-linecap="round" stroke-linejoin="round"/>
<path d="M283 371C301.225 371 316 356.225 316 338C316 319.775 301.225 305 283 305C264.775 305 250 319.775 250 338C250 356.225 264.775 371 283 371Z" fill="white"/>
<path d="M287.197 341.83C292.767 341.83 297.197 340.455 297.197 338.83C297.197 337.205 292.64 335.83 287.197 335.83C281.628 335.83 277.197 337.205 277.197 338.83C277.197 340.455 281.628 341.83 287.197 341.83Z" stroke="#2A1F2F" stroke-width="2" stroke-miterlimit="10"/>
<path fill-rule="evenodd" clip-rule="evenodd" d="M287.197 347.14C284.383 347.14 281.953 346.776 280.162 346.289C279.267 346.046 278.627 345.803 278.244 345.438C277.86 345.194 277.732 344.951 277.732 344.83H276.197C276.197 345.559 276.709 346.167 277.348 346.532C277.988 346.897 278.755 347.262 279.779 347.627C281.697 348.235 284.383 348.478 287.197 348.478C290.011 348.478 292.697 348.113 294.616 347.627C295.511 347.384 296.407 347.019 297.046 346.532C297.686 346.167 298.197 345.559 298.197 344.83H296.662C296.662 344.83 296.662 345.073 296.151 345.438C295.767 345.681 295 346.046 294.232 346.289C292.441 346.776 290.011 347.14 287.197 347.14ZM287.197 352.492C284.383 352.492 281.953 352.127 280.162 351.64C279.267 351.397 278.627 351.154 278.244 350.789C277.86 350.546 277.732 350.303 277.732 350.181H276.197C276.197 350.911 276.709 351.519 277.348 351.884C277.988 352.249 278.755 352.613 279.779 352.978C281.697 353.586 284.383 353.83 287.197 353.83C290.011 353.83 292.697 353.465 294.616 352.978C295.511 352.735 296.407 352.37 297.046 351.884C297.686 351.519 298.197 350.911 298.197 350.181H296.662C296.662 350.181 296.662 350.424 296.151 350.789C295.767 351.032 295 351.397 294.232 351.64C292.441 352.248 290.011 352.492 287.197 352.492Z" fill="url(#paint7_radial_1026_1061)"/>
<path fill-rule="evenodd" clip-rule="evenodd" d="M287.197 346.568C284.383 346.568 281.953 346.162 280.162 345.622C279.267 345.351 278.627 345.081 278.244 344.676C277.86 344.405 277.732 344.135 277.732 344H276.197C276.197 344.811 276.709 345.486 277.348 345.892C277.988 346.297 278.755 346.703 279.779 347.108C281.697 347.784 284.383 348.054 287.197 348.054C290.011 348.054 292.697 347.649 294.616 347.108C295.511 346.838 296.407 346.432 297.046 345.892C297.686 345.486 298.197 344.811 298.197 344H296.662C296.662 344 296.662 344.27 296.151 344.676C295.767 344.946 295 345.351 294.232 345.622C292.441 346.162 290.011 346.568 287.197 346.568ZM287.197 352.514C284.383 352.514 281.953 352.108 280.162 351.568C279.267 351.297 278.627 351.027 278.244 350.622C277.86 350.351 277.732 350.081 277.732 349.946H276.197C276.197 350.757 276.709 351.432 277.348 351.838C277.988 352.243 278.755 352.649 279.779 353.054C281.697 353.73 284.383 354 287.197 354C290.011 354 292.697 353.595 294.616 353.054C295.511 352.784 296.407 352.378 297.046 351.838C297.686 351.432 298.197 350.757 298.197 349.946H296.662C296.662 349.946 296.662 350.216 296.151 350.622C295.767 350.892 295 351.297 294.232 351.568C292.441 352.243 290.011 352.514 287.197 352.514Z" fill="url(#paint8_radial_1026_1061)"/>
<path fill-rule="evenodd" clip-rule="evenodd" d="M282.085 321C275.655 321 270.239 325.514 268.873 331.598C263.946 332.102 260 336.24 260 341.433C260 346.821 264.342 351.319 269.886 351.319H276.875V348.319H269.886C266.028 348.319 263 345.193 263 341.433C263 337.575 266.126 334.546 269.886 334.546H269.887H269.888H269.889H269.889H269.89H269.891H269.891H269.892H269.893H269.894H269.894H269.895H269.896H269.896H269.897H269.898H269.899H269.899H269.9H269.901H269.901H269.902H269.903H269.903H269.904H269.905H269.905H269.906H269.907H269.907H269.908H269.909H269.909H269.91H269.911H269.911H269.912H269.913H269.913H269.914H269.915H269.915H269.916H269.916H269.917H269.918H269.918H269.919H269.92H269.92H269.921H269.921H269.922H269.923H269.923H269.924H269.924H269.925H269.926H269.926H269.927H269.927H269.928H269.929H269.929H269.93H269.93H269.931H269.931H269.932H269.933H269.933H269.934H269.934H269.935H269.935H269.936H269.936H269.937H269.938H269.938H269.939H269.939H269.94H269.94H269.941H269.941H269.942H269.942H269.943H269.943H269.944H269.945H269.945H269.946H269.946H269.947H269.947H269.948H269.948H269.949H269.949H269.95H269.95H269.951H269.951H269.952H269.952H269.953H269.953H269.954H269.954H269.955H269.955H269.956H269.956H269.957H269.957H269.958H269.958H269.958H269.959H269.959H269.96H269.96H269.961H269.961H269.962H269.962H269.963H269.963H269.964H269.964H269.965H269.965H269.965H269.966H269.966H269.967H269.967H269.968H269.968H269.969H269.969H269.969H269.97H269.97H269.971H269.971H269.972H269.972H269.973H269.973H269.973H269.974H269.974H269.975H269.975H269.976H269.976H269.976H269.977H269.977H269.978H269.978H269.978H269.979H269.979H269.98H269.98H269.981H269.981H269.981H269.982H269.982H269.983H269.983H269.983H269.984H269.984H269.985H269.985H269.985H269.986H269.986H269.987H269.987H269.987H269.988H269.988H269.989H269.989H269.989H269.99H269.99H269.991H269.991H269.991H269.992H269.992H269.993H269.993H269.993H269.994H269.994H269.995H269.995H269.995H269.996H269.996H269.996H269.997H269.997H269.998H269.998H269.998H269.999H269.999H270H270H270H270.001H270.001H270.001H270.002H270.002H270.003H270.003H270.003H270.004H270.004H270.004H270.005H270.005H270.006H270.006H270.006H270.007H270.007H270.007H270.008H270.008H270.009H270.009H270.009H270.01H270.01H270.01H270.011H270.011H270.012H270.012H270.012H270.013H270.013H270.013H270.014H270.014H270.014H270.015H270.015H270.016H270.016H270.016H270.017H270.017H270.017H270.018H270.018H270.019H270.019H270.019H270.02H270.02H270.02H270.021H270.021H270.022H270.022H270.022H270.023H270.023H270.023H270.024H270.024H270.025H270.025H270.025H270.026H270.026H270.026H270.027H270.027H270.028H270.028H270.028H270.029H270.029H270.03H270.03H270.03H270.031H270.031H270.031H270.032H270.032H270.033H270.033H270.033H270.034H270.034H270.035H270.035H270.035H270.036H270.036H270.037H270.037H270.037H270.038H270.038H270.038H270.039H270.039H270.04H270.04H270.04H270.041H270.041H270.042H270.042H270.043H270.043H270.043H270.044H270.044H270.045H270.045H270.045H270.046H270.046H270.047H270.047H270.047H270.048H270.048H270.049H270.049H270.05H270.05H270.05H270.051H270.051H270.052H270.052H270.053H270.053H270.053H270.054H270.054H270.055H270.055H270.056H270.056H270.056H270.057H270.057H270.058H270.058H270.059H270.059H270.06H270.06H270.06H270.061H270.061H270.062H270.062H270.063H270.063H270.064H270.064H270.065H270.065H270.065H270.066H270.066H270.067H270.067H270.068H270.068H270.069H270.069H270.07H270.07H270.071H270.071H270.072H270.072H270.073H270.073H270.074H270.074H270.075H270.075H270.076H270.076H270.077H270.077H270.078H270.078H270.079H270.079H270.08H270.08H270.081H270.081H270.082H270.082H270.083H270.083H270.084H270.084H270.085H270.085H270.086H270.087H270.087H270.088H270.088H270.089H270.089H270.09H270.09H270.091H270.091H270.092H270.093H270.093H270.094H270.094H270.095H270.095H270.096H270.097H270.097H270.098H270.098H270.099H270.099H270.1H270.101H270.101H270.102H270.102H270.103H270.104H270.104H270.105H270.105H270.106H270.107H270.107H270.108H270.108H270.109H270.11H270.11H270.111H270.112H270.112H270.113H270.114H270.114H270.115H270.115H270.116H270.117H270.117H270.118H270.119H270.119H270.12H270.121H270.121H270.122H270.123H270.123H270.124H270.125H270.125H270.126H270.127H270.128H270.128H270.129H270.13H270.13H270.131H270.132H270.132H270.133H270.134H270.135H270.135H270.136H270.137H270.137H270.138H270.139H270.14H270.14H271.461L271.628 333.236C272.297 328.002 276.752 324 282.085 324C286.753 324 290.654 326.999 292.105 331.129L292.444 332.093L293.465 332.131C296.093 332.228 298.331 334.397 298.637 337.151L298.785 338.485H300.128H300.129H300.129H300.13H300.131H300.132H300.132H300.133H300.134H300.135H300.135H300.136H300.137H300.138H300.138H300.139H300.14H300.141H300.141H300.142H300.143H300.144H300.144H300.145H300.146H300.146H300.147H300.148H300.149H300.149H300.15H300.151H300.152H300.152H300.153H300.154H300.155H300.155H300.156H300.157H300.158H300.158H300.159H300.16H300.161H300.161H300.162H300.163H300.164H300.164H300.165H300.166H300.167H300.167H300.168H300.169H300.17H300.17H300.171H300.172H300.173H300.173H300.174H300.175H300.176H300.176H300.177H300.178H300.178H300.179H300.18H300.181H300.181H300.182H300.183H300.184H300.184H300.185H300.186H300.187H300.187H300.188H300.189H300.19H300.19H300.191H300.192H300.193H300.193H300.194H300.195H300.196H300.196H300.197H300.198H300.199H300.199H300.2H300.201H300.202H300.202H300.203H300.204H300.205H300.205H300.206H300.207H300.208H300.208H300.209H300.21H300.211H300.211H300.212H300.213H300.213H300.214H300.215H300.216H300.216H300.217H300.218H300.219H300.219H300.22H300.221H300.222H300.222H300.223H300.224H300.225H300.225H300.226H300.227H300.228H300.228H300.229H300.23H300.231H300.231H300.232H300.233H300.234H300.234H300.235H300.236H300.237H300.237H300.238H300.239H300.24H300.24H300.241H300.242H300.243H300.243H300.244H300.245H300.246H300.246H300.247H300.248H300.248H300.249H300.25H300.251H300.251H300.252H300.253H300.254H300.254H300.255H300.256H300.257H300.257H300.258H300.259H300.26H300.26H300.261H300.262H300.263H300.263H300.264H300.265H300.266H300.266H300.267H300.268H300.269H300.269H300.27H300.271H300.272H300.272H300.273H300.274H300.275H300.275H300.276H300.277H300.278H300.278H300.279H300.28H300.28H300.281H300.282H300.283H300.283H300.284H300.285H300.286H300.286H300.287H300.288H300.289H300.289H300.29H300.291H300.292H300.292H300.293H300.294H300.295H300.295H300.296H300.297H300.298H300.298H300.299H300.3H300.301H300.301H300.302H300.303H300.304H300.304H300.305H300.306H300.307H300.307H300.308H300.309H300.31H300.31H300.311H300.312H300.313H300.313H300.314H300.315H300.315H300.316H300.317H300.318H300.318H300.319H300.32H300.321H300.321H300.322H300.323H300.324H300.324H300.325H300.326H300.327H300.327H300.328H300.329H300.33H300.33H300.331H300.332H300.333H300.333H300.334H300.335H300.336H300.336H300.337H300.338H300.339H300.339H300.34H300.341H300.342H300.342H300.343H300.344H300.345H300.345H300.346H300.347H300.348H300.348H300.349H300.35H300.35H300.351H300.352H300.353H300.353H300.354H300.355H300.356H300.356H300.357H300.358H300.359H300.359H300.36H300.361H300.362H300.362H300.363H300.364H300.365H300.365H300.366H300.367H300.368H300.368H300.369H300.37H300.371H300.371H300.372H300.373H300.374H300.374H300.375H300.376H300.377H300.377H300.378H300.379H300.38H300.38H300.381H300.382H300.382H300.383H300.384H300.385H300.385H300.386H300.387H300.388H300.388H300.389H300.39H300.391H300.391H300.392H300.393H300.394H300.394H300.395H300.396H300.397H300.397H300.398H300.399H300.4H300.4H300.401H300.402H300.403H300.403H300.404H300.405H300.406H300.406H300.407H300.408H300.409H300.409H300.41H300.411H300.412H300.412H300.413H300.414H300.415H300.415H300.416H300.417H300.417H300.418H300.419H300.42H300.42H300.421H300.422H300.423H300.423H300.424H300.425H300.426H300.426H300.427H300.428H300.429H300.429H300.43H300.431H300.432H300.432H300.433H300.434H300.435H300.435H300.436H300.437H300.438H300.438H300.439H300.44H300.441H300.441H300.442H300.443H300.444H300.444H300.445H300.446H300.447H300.447H300.448H300.449H300.45H300.45H300.451H300.452H300.452H300.453H300.454H300.455H300.455H300.456H300.457H300.458H300.458H300.459H300.46H300.461H300.461H300.462H300.463H300.464H300.464H300.465H300.466H300.467H300.467H300.468H300.469H300.47H300.47H300.471H300.472H300.473H300.473H300.474H300.475H300.476H300.476H300.477H300.478H300.479H300.479H300.48H300.481H300.482H300.482H300.483H300.484H300.485H300.485H300.486H300.487H300.487H300.488H300.489H300.49H300.49H300.491H300.492H300.493H300.493H300.494H300.495H300.496H300.496H300.497H300.498H300.499H300.499H300.5H300.501H300.502H300.502H300.503H300.504H300.505H300.505H300.506H300.507H300.508H300.508H300.509C303.219 338.485 305.362 340.717 305.362 343.339C305.362 346.049 303.131 348.192 300.509 348.192H297.459V351.192H300.509C304.749 351.192 308.362 347.744 308.362 343.339C308.362 339.382 305.359 335.97 301.376 335.533C300.522 332.337 297.897 329.776 294.583 329.234C292.501 324.428 287.741 321 282.085 321Z" fill="url(#paint9_linear_1026_1061)"/>
<path d="M277.197 338.83V355.792C277.197 357.437 281.754 358.83 287.197 358.83C292.767 358.83 297.197 357.437 297.197 355.792V338.83" stroke="#2A1F2F" stroke-width="2" stroke-miterlimit="10"/>
<path d="M252.335 341.078C252.335 350.515 256.143 359.124 262.434 365.25C254.321 358.959 249.023 349.191 249.023 338.098C249.023 319.224 264.421 303.827 283.295 303.827C292.731 303.827 301.175 307.635 307.466 313.761C301.672 309.456 294.553 306.807 286.771 306.807C267.566 306.973 252.335 322.204 252.335 341.078Z" fill="#2A1F2F"/>
<path fill-rule="evenodd" clip-rule="evenodd" d="M350.348 270.218H400.844V334.952H350.348V270.218ZM350.68 340.25H400.845V404.985H350.68V340.25ZM457.299 270.218H406.141V334.787H457.299V270.218ZM406 340H457.489V404.238H406V340Z" fill="url(#paint10_linear_1026_1061)"/>
<path d="M350.348 270.218V404.488" stroke="#003455" stroke-width="2" stroke-miterlimit="10" stroke-linecap="round" stroke-linejoin="round"/>
<path d="M215.582 295.714V270.384H245.88" stroke="#003455" stroke-width="1.6071" stroke-miterlimit="10" stroke-linecap="round" stroke-linejoin="round"/>
<path d="M453.162 399.024L462.433 416.739H443.725V399.024H453.162Z" fill="#F8E5CD"/>
<path d="M439.088 416.739V399.024H444.883L454.154 416.739H439.088Z" fill="#2A1F2F"/>
<path d="M370.381 401.673H434.618H442.069L449.353 416.739H376.507L370.381 401.673Z" fill="#2A1F2F"/>
<path d="M433.293 404.985H384.287C381.97 404.985 380.48 407.468 381.473 409.62C382.632 411.938 384.95 413.263 387.433 413.263H436.605C438.923 413.263 440.413 410.779 439.254 408.793C438.26 406.309 435.777 404.985 433.293 404.985Z" fill="url(#paint11_linear_1026_1061)"/>
<path d="M369.388 399.024L378.659 416.739H359.785V399.024H369.388Z" fill="#F8E5CD"/>
<path d="M213.098 416.739H462.432" stroke="#003455" stroke-width="2" stroke-miterlimit="10"/>
<path d="M355.314 416.739V399.024H361.109L370.38 416.739H355.314Z" fill="#2A1F2F"/>
<path d="M392.234 403.163L398.36 414.753" stroke="#2A1F2F" stroke-width="2" stroke-miterlimit="10"/>
<path d="M408.791 403.163L414.917 414.753" stroke="#2A1F2F" stroke-width="2" stroke-miterlimit="10"/>
<path d="M425.348 403.163L431.473 414.753" stroke="#2A1F2F" stroke-width="2" stroke-miterlimit="10"/>
<path d="M101.639 99.647L106.421 130.264L86.3039 108.86L101.639 99.647Z" fill="white"/>
<path d="M88.8394 115.923C104.297 115.661 116.617 102.918 116.355 87.46C116.093 72.0019 103.35 59.6829 87.8916 59.9446C72.4336 60.2063 60.1145 72.9497 60.3762 88.4077C60.6379 103.866 73.3813 116.185 88.8394 115.923Z" fill="white"/>
<path d="M174.801 198.602C163.466 217.411 153.246 226.538 158.763 233.408C164.422 240.276 196.996 216.843 196.996 216.843L174.801 198.602Z" fill="#5896F2"/>
<path d="M140.992 216.37C140.992 216.37 147.879 228.618 160.967 229.391" stroke="#2A1F2F" stroke-width="5" stroke-miterlimit="10" stroke-linecap="round"/>
<path d="M175.369 198.592C175.369 198.592 164.979 189.246 165.475 176.589C165.971 163.932 179.432 195.113 179.432 195.113L175.369 198.592Z" fill="#2A1F2F"/>
<path d="M182.531 193.497C182.531 193.497 175.211 172.445 175.568 168.318C175.924 164.19 181.547 168.927 184.533 177.403C187.519 185.88 188.501 193.538 188.501 193.538L182.531 193.497Z" fill="#2A1F2F"/>
<path d="M179.591 170.95C179.591 170.95 180.07 165.683 184.246 168.881C188.421 172.079 193.757 185.064 192.601 192.332C191.445 199.599 185.158 189.189 185.158 189.189L179.591 170.95Z" fill="#2A1F2F"/>
<path d="M195.436 191.857C195.002 191.438 197.627 178.603 198.405 174.184C199.183 169.765 204.64 181.469 200.96 190.769C198.231 197.494 195.436 191.857 195.436 191.857Z" fill="#2A1F2F"/>
<path d="M196.242 189.143C196.82 189.702 198.106 190.107 199.149 192.931C201.234 198.581 203.151 211.055 198.669 214.968C194.33 218.878 187.539 220.699 182.207 216.383C176.731 211.928 174.8 198.602 174.8 198.602C174.69 192.066 188.816 186.995 196.242 189.143Z" fill="#2A1F2F"/>
<path d="M217.076 53.6489L190.076 194.649L203.076 207.649L346.576 166.649L217.076 53.6489Z" fill="url(#paint12_linear_1026_1061)"/>
<path d="M173.188 204.172L180.36 208.03C181.097 209.58 180.834 210.864 179.567 211.596L172.967 207.871L173.188 204.172Z" fill="#8B8392"/>
<path d="M173.298 210.565C168.398 206.527 161.34 200.961 158.753 199.3C155.305 197.084 163.928 194.38 173.44 202.178C177.361 207.085 176.029 212.366 173.298 210.565Z" fill="#2A1F2F"/>
<path d="M197.713 200.488C198.763 203.739 196.725 209.316 193.056 210.799C189.386 212.283 185.234 210.505 183.748 206.693C182.263 202.881 184.042 198.872 187.854 197.386C191.946 195.611 196.369 196.674 197.713 200.488Z" fill="#615968"/>
<path d="M192.855 207.25C195.758 207.201 198.072 204.807 198.023 201.904C197.974 199.001 195.58 196.687 192.677 196.736C189.773 196.785 187.46 199.179 187.509 202.082C187.558 204.985 189.952 207.299 192.855 207.25Z" fill="#8B8392"/>
<path d="M192.817 205.118C194.544 205.089 195.92 203.666 195.89 201.94C195.861 200.214 194.438 198.838 192.712 198.867C190.985 198.896 189.61 200.319 189.639 202.046C189.668 203.772 191.091 205.148 192.817 205.118Z" fill="#2A1F2F"/>
<path d="M284.923 182.579C266.576 190.137 242.562 198.787 228.421 203.005C211.454 208.125 198.556 210.191 192.201 204.187C188.153 200.134 187.607 193.038 189.016 183.918C191.581 167.531 205.397 118.977 205.397 118.977C205.397 118.977 196.062 163.618 194.484 187.947C194.14 192.785 195.337 196.318 197.36 198.273C202.414 203.019 211.363 202.726 223.112 199.969C238.825 196.292 284.923 182.579 284.923 182.579Z" fill="url(#paint13_linear_1026_1061)"/>
<path d="M99.9026 248.901L91.2501 258.285L97.3546 257.897L104.468 249.96L99.9026 248.901Z" fill="#8B8392"/>
<path d="M104.225 252.38C104.651 252.373 104.935 252.368 105.359 252.219C107.755 251.042 117.903 246.038 121.954 241.848C126.281 237.227 107.014 240.822 99.1729 247.776C98.1928 248.645 98.2193 250.208 99.3703 251.041C100.23 251.453 101.802 251.995 104.225 252.38Z" fill="#2A1F2F"/>
<path d="M165.655 237.555L154.924 266.871L118.628 288.803L118.197 288.526L109.714 282.701L111.641 245.433L111.639 245.291L156.738 231.31L165.655 237.555Z" fill="#F8FEFC"/>
<path d="M120.552 251.393L118.196 288.526L109.712 282.701L111.639 245.433L120.552 251.393Z" fill="#8B8392"/>
<path d="M163.837 272.973L118.627 288.803L120.552 251.393L165.654 237.555L163.837 272.973Z" fill="#CCC5CD"/>
<path d="M118.627 288.803L120.552 251.393L165.656 237.697" stroke="#2A1F2F" stroke-width="2" stroke-miterlimit="10"/>
<path d="M46.8079 185.136L29.5486 214.988C28.7226 216.566 28.4673 218.276 29.0644 219.971L34.0272 236.088C34.9254 238.773 37.372 240.579 40.2135 240.531L67.0638 239.935L64.339 179.723L46.8079 185.136Z" fill="#3773CD"/>
<path d="M72.8691 171.477L57.4038 198.173L64.2784 226.48L131.154 214.405L113.867 158.703L72.8691 171.477Z" fill="#2A1F2F"/>
<path d="M64.1975 179.725L58.6327 161.628L50.7149 164.036L46.8086 185.136L64.1975 179.725Z" fill="#2A1F2F"/>
<path d="M138.703 156.719L132.996 138.625L125.22 141.03L121.172 162.133L138.703 156.719Z" fill="#2A1F2F"/>
<path d="M58.3206 218.765C46.5812 213.705 35.0102 218.591 31.7665 220.067C31.203 220.361 31.0705 220.932 31.3619 221.353C32.5298 223.181 36.1491 227.099 46.2438 227.354C59.4691 227.841 58.3206 218.765 58.3206 218.765Z" fill="#8B8392"/>
<path d="M46.9351 234.591C53.6833 234.476 59.0612 228.913 58.947 222.165C58.8327 215.417 53.2696 210.039 46.5214 210.153C39.7732 210.267 34.3954 215.831 34.5096 222.579C34.6239 229.327 40.187 234.705 46.9351 234.591Z" fill="#2A1F2F"/>
<path d="M45.8077 235.178C49.4171 235.117 52.2937 232.142 52.2326 228.532C52.1715 224.923 49.1958 222.046 45.5864 222.107C41.9769 222.168 39.1003 225.144 39.1614 228.753C39.2225 232.363 42.1982 235.239 45.8077 235.178Z" fill="#EDF2F8"/>
<path d="M58.3202 218.765C46.2967 213.71 35.1544 218.731 31.7662 220.067C31.6265 220.212 31.2075 220.645 31.3471 220.501C31.889 218.928 37.1821 212.585 43.684 210.486C53.2924 207.196 58.2962 217.344 58.3202 218.765Z" fill="#EDF2F8"/>
<path d="M45.7 228.785C45.7 228.785 44.6543 259.358 72.2196 267.418" stroke="#2A1F2F" stroke-width="5" stroke-miterlimit="10" stroke-linecap="round"/>
<g clip-path="url(#clip0_1026_1061)">
<path d="M91.6545 283.322C68.8238 288.303 48.878 283.953 44.7667 272.038C41.9308 263.757 47.3061 253.858 57.68 245.127C50.6267 253.1 47.5506 261.601 50.0077 268.686C53.9765 280.095 70.8345 285.432 91.6545 283.322Z" fill="#E7F3FF"/>
</g>
<path d="M115.548 258.016C115.548 258.016 135.471 251.141 145.11 258.084C154.75 265.026 117.643 264.233 117.643 264.233L115.548 258.016Z" fill="#2A1F2F"/>
<path d="M118.019 269.627C118.019 269.627 145.953 265.886 146.317 270.569C146.68 275.253 131.088 277.649 115.024 277.352L118.019 269.627Z" fill="#2A1F2F"/>
<path d="M137.002 274.422C143.68 274.309 145.763 279.817 129.737 281.793C113.711 283.77 111.122 281.966 111.122 281.966L116.856 276.469L137.002 274.422Z" fill="#2A1F2F"/>
<path d="M129.552 279.238C130.9 283.337 123.305 288.013 110.332 285.675C97.3601 283.336 118.193 279.857 118.763 279.99C119.474 279.978 129.552 279.238 129.552 279.238Z" fill="#2A1F2F"/>
<path d="M115.548 258.016C115.548 258.016 84.2188 254.282 75.8771 256.84C67.5354 259.397 66.2926 269.935 72.1924 274.241C78.0921 278.546 109.067 286.549 112.424 283.366C115.781 280.182 123.044 264.284 115.548 258.016Z" fill="#5896F2"/>
<path d="M94.2815 261.076C99.1073 260.71 103.796 260.63 108.487 260.693C110.618 260.657 112.212 262.478 112.106 264.611C111.762 269.449 110.847 274.154 109.361 278.727C108.824 280.584 106.849 281.47 104.995 281.075C100.285 279.876 95.8537 278.388 91.8442 276.608C90.8425 276.199 90.1152 275.216 89.8118 274.084C89.0413 270.544 89.5471 266.841 91.3316 263.115C91.8806 261.969 93.0028 261.097 94.2815 261.076Z" fill="#EDF2F8"/>
<path d="M47.7182 180.146L55.0702 177.89L56.3708 162.377" stroke="white" stroke-width="2" stroke-miterlimit="10"/>
<path d="M122.083 157.143L129.435 154.887L130.736 139.374" stroke="white" stroke-width="2" stroke-miterlimit="10"/>
<path d="M103.944 212.413L107.609 211.279L105.383 204.084L101.718 205.218L103.944 212.413Z" fill="#EDF2F8"/>
<path d="M153.303 213.178L69.6066 239.039C68.1931 239.489 66.6158 238.663 66.1655 237.25L50.5307 186.778C50.0804 185.365 50.9064 183.787 52.32 183.337L136.016 157.476C137.43 157.025 139.007 157.851 139.457 159.265L155.092 209.737C155.542 211.15 154.716 212.727 153.303 213.178Z" fill="#5896F2"/>
<path d="M62.8778 194.101L72.2013 224.357C72.8033 226.336 74.8093 227.297 76.7887 226.695L140.409 207.001C142.388 206.399 143.349 204.393 142.747 202.413L133.423 172.158C132.821 170.178 130.815 169.217 128.836 169.819L65.2161 189.514C63.3787 190.114 62.2758 192.122 62.8778 194.101Z" fill="#2A1F2F"/>
<path d="M135.093 203.68L129.297 205.483C128.025 205.931 126.732 205.1 126.284 203.829L122.973 192.942C122.525 191.67 121.235 190.982 119.961 191.287L74.7197 205.27C73.4482 205.718 72.155 204.888 71.7072 203.616L69.1547 195.559C68.7069 194.287 69.5377 192.994 70.8092 192.546L126.511 175.259C127.783 174.811 129.076 175.642 129.524 176.914L136.745 200.525C137.195 201.939 136.365 203.232 135.093 203.68Z" fill="#2B2934"/>
<path d="M49.7773 184.233L66.9219 239.937" stroke="#2A1F2F" stroke-width="2" stroke-miterlimit="10"/>
<path fill-rule="evenodd" clip-rule="evenodd" d="M129.361 184.164L125.26 185.371C124.355 182.259 121.058 180.61 117.947 181.515L116.741 177.414C122.113 175.76 127.707 178.792 129.361 184.164ZM76.0618 200.558L80.1628 199.351C79.2574 196.24 80.907 192.943 83.8762 192.04L82.6699 187.939C77.4394 189.591 74.4075 195.185 76.0618 200.558ZM115.003 189.247L121.248 187.314L124.692 198.446L118.448 200.378L115.003 189.247ZM84.2103 198.87L90.4548 196.937L93.8993 208.069L87.6548 210.001L84.2103 198.87ZM102.813 212.79L113.628 209.444L112.536 205.914L105.06 208.228L104.441 206.33L101.048 207.383L102.704 212.897L102.813 212.79Z" fill="#EDF2F8"/>
<path d="M111.639 245.291L120.553 251.393" stroke="#2A1F2F" stroke-width="2" stroke-miterlimit="10"/>
<path d="M157.34 283.742L161.554 297.598" stroke="#2A1F2F" stroke-width="2" stroke-miterlimit="10" stroke-linecap="round" stroke-linejoin="round"/>
<path d="M174.372 265.689L188.653 261.326" stroke="#2A1F2F" stroke-width="2" stroke-miterlimit="10" stroke-linecap="round" stroke-linejoin="round"/>
<path d="M173.881 278.63L187.075 285.655" stroke="#2A1F2F" stroke-width="2" stroke-miterlimit="10" stroke-linecap="round" stroke-linejoin="round"/>
<path d="M151.882 246.741L161.353 243.739" stroke="#2A1F2F" stroke-width="2" stroke-miterlimit="10"/>
<path d="M151.966 251.714L161.439 248.853" stroke="#2A1F2F" stroke-width="2" stroke-miterlimit="10"/>
<path d="M151.484 256.839L160.955 253.836" stroke="#2A1F2F" stroke-width="2" stroke-miterlimit="10"/>
<path d="M159.096 269.447C161.007 266.477 160.844 262.968 158.732 261.61C156.62 260.251 153.359 261.557 151.448 264.527C149.537 267.497 149.7 271.006 151.812 272.365C153.924 273.723 157.185 272.417 159.096 269.447Z" stroke="#2A1F2F" stroke-width="2" stroke-miterlimit="10"/>
<path fill-rule="evenodd" clip-rule="evenodd" d="M204.293 155.929C203.902 155.538 203.902 154.905 204.293 154.515L208.515 150.293C208.905 149.902 209.538 149.902 209.929 150.293L214.151 154.515C214.541 154.905 214.541 155.538 214.151 155.929L209.929 160.151C209.538 160.541 208.905 160.541 208.515 160.151L204.293 155.929ZM212.293 192.786C211.903 192.395 211.903 191.762 212.293 191.371L214.372 189.293C214.762 188.902 215.395 188.902 215.786 189.293L217.864 191.371C218.255 191.762 218.255 192.395 217.864 192.786L215.786 194.864C215.395 195.255 214.762 195.255 214.372 194.864L212.293 192.786ZM253.786 177.293C253.395 176.902 252.762 176.902 252.372 177.293L250.293 179.372C249.903 179.762 249.903 180.395 250.293 180.786L252.372 182.864C252.762 183.255 253.395 183.255 253.786 182.864L255.864 180.786C256.255 180.395 256.255 179.762 255.864 179.372L253.786 177.293Z" fill="url(#paint14_radial_1026_1061)"/>
<path d="M586.225 206.485C581.82 205.064 557.806 205.916 557.522 209.895C557.237 214.016 563.063 215.011 570.737 214.584C578.41 214.158 590.915 208.048 586.225 206.485Z" fill="#2A1F2F"/>
<path d="M589.067 213.447L583.951 211.458C583.099 211.174 582.815 210.179 583.099 209.469C583.383 208.616 584.378 208.332 585.088 208.616L590.204 210.605C591.056 210.89 591.34 211.884 591.056 212.595C590.772 213.447 589.919 213.874 589.067 213.447Z" fill="#8B8392"/>
<path d="M497.131 191.138C497.131 191.138 526.119 197.817 541.608 173.092" stroke="#003455" stroke-width="5.26018" stroke-miterlimit="10" stroke-linecap="round"/>
<path d="M606.403 125.346L635.107 141.261C636.528 142.114 637.665 143.393 637.949 145.098L641.786 160.729C642.496 163.287 641.217 165.986 638.944 167.407L616.776 180.196L589.352 129.751L606.403 125.346Z" fill="#D94A5B"/>
<path d="M578.41 127.052L604.13 141.262L612.514 167.55L552.122 190.854L538.623 136.857L578.41 127.052Z" fill="#2A1F2F"/>
<path d="M589.495 129.467L585.09 111.989L592.763 110L606.405 125.347L589.495 129.467Z" fill="#2A1F2F"/>
<path d="M518.445 151.493L513.045 129.894L520.718 128.046L534.36 143.251L518.445 151.493Z" fill="#2A1F2F"/>
<path d="M613.508 158.455C620.613 148.651 632.407 146.803 635.817 146.519C636.386 146.519 636.812 146.803 636.812 147.372C636.812 149.361 635.675 154.334 627.718 159.592C617.202 166.271 613.508 158.455 613.508 158.455Z" fill="#8B8392"/>
<path d="M624.877 167.265C631.312 167.265 636.529 162.049 636.529 155.613C636.529 149.178 631.312 143.961 624.877 143.961C618.441 143.961 613.225 149.178 613.225 155.613C613.225 162.049 618.441 167.265 624.877 167.265Z" fill="#2A1F2F"/>
<path d="M628.713 166.413C632.166 166.413 634.966 163.614 634.966 160.161C634.966 156.707 632.166 153.908 628.713 153.908C625.26 153.908 622.461 156.707 622.461 160.161C622.461 163.614 625.26 166.413 628.713 166.413Z" fill="white"/>
<path d="M613.509 158.455C620.756 148.366 632.408 146.945 635.818 146.519C635.961 146.519 636.529 146.661 636.387 146.661C635.25 145.667 627.719 143.109 621.324 144.53C611.946 146.519 612.941 157.176 613.509 158.455Z" fill="white"/>
<path d="M628.855 160.303C628.855 160.303 644.77 184.744 626.297 204.921" stroke="#003455" stroke-width="5.26018" stroke-miterlimit="10" stroke-linecap="round"/>
<path d="M603.134 121.652L596.029 123.499L587.361 111.421" stroke="white" stroke-width="1.31497" stroke-miterlimit="10"/>
<path d="M531.091 139.556L523.986 141.404L515.318 129.325" stroke="white" stroke-width="1.31497" stroke-miterlimit="10"/>
<path d="M571.533 168.93L568.086 169.789L569.805 176.683L573.252 175.824L571.533 168.93Z" fill="white"/>
<path d="M533.365 200.8L614.503 180.48C615.924 180.196 616.776 178.775 616.35 177.354L604.13 128.473C603.846 127.052 602.425 126.199 601.004 126.625L519.866 146.803C518.445 147.087 517.592 148.508 518.018 149.929L530.239 198.811C530.523 200.232 531.944 201.085 533.365 200.8Z" fill="#FF8080"/>
<path d="M597.736 140.551L604.983 169.965C605.409 171.813 604.272 173.66 602.425 174.086L540.897 189.433C539.05 189.859 537.202 188.722 536.776 186.875L529.529 157.461C529.103 155.613 530.239 153.766 532.087 153.34L593.615 137.993C595.32 137.567 597.168 138.704 597.736 140.551Z" fill="#2A1F2F"/>
<path d="M543.454 184.033L549.138 182.612C550.417 182.328 551.127 181.049 550.843 179.77L548.285 169.255C548.001 167.976 548.711 166.839 549.99 166.413L593.756 155.471C595.035 155.187 595.746 153.908 595.462 152.629L593.472 144.814C593.188 143.535 591.909 142.825 590.63 143.109L536.775 156.608C535.496 156.892 534.786 158.171 535.07 159.45L540.754 182.328C541.038 183.607 542.175 184.317 543.454 184.033Z" fill="#2B2934"/>
<path d="M573.703 172.096L563.086 174.742L563.945 178.189L574.562 175.543L573.703 172.096Z" fill="white"/>
<path d="M586.226 153.34L590.205 152.345C588.926 147.23 583.668 144.104 578.553 145.383L579.547 149.361C582.389 148.651 585.373 150.356 586.226 153.34Z" fill="white"/>
<path d="M538.622 165.276L542.601 164.281C541.891 161.297 543.738 158.313 546.58 157.603L545.585 153.624C540.47 154.903 537.343 160.161 538.622 165.276Z" fill="white"/>
<path d="M603.562 126.057L617.062 179.912" stroke="#003455" stroke-width="1.31497" stroke-miterlimit="10"/>
<path d="M574.431 175.507L573.153 170.25L569.742 171.102L570.737 174.655L574.431 175.507Z" fill="white"/>
<path d="M477.379 199.664C478.942 195.401 483.915 194.833 483.915 194.833L483.205 198.101L477.379 199.664Z" fill="#2A1F2F"/>
<path d="M479.367 210.747C480.504 206.342 485.477 205.206 485.477 205.206L485.051 208.616L479.367 210.747Z" fill="#2A1F2F"/>
<path d="M486.898 194.69L479.367 199.806H479.509C479.509 199.806 486.614 201.795 486.898 201.795C487.183 201.795 486.898 194.69 486.898 194.69Z" fill="#2A1F2F"/>
<path d="M497.272 179.344C479.084 174.228 474.252 174.797 478.373 179.486C482.21 183.891 494.004 185.312 494.004 185.312L497.272 179.344Z" fill="#2A1F2F"/>
<path d="M578.411 266.308L497.699 277.391C495.71 277.676 494.005 276.255 493.721 274.265L481.216 183.749C480.932 181.759 482.353 180.054 484.342 179.77L512.904 175.791C513.756 175.649 514.751 175.933 515.462 176.36L524.84 183.18C525.55 183.749 526.545 183.891 527.398 183.749L566.333 178.349C568.322 178.065 570.027 179.486 570.311 181.475L581.395 262.187C581.821 264.318 580.4 266.024 578.411 266.308Z" fill="#5896F2"/>
<path d="M562.106 188.514L492.703 198.069L502.259 267.472L571.661 257.917L562.106 188.514Z" fill="white"/>
<path d="M549.848 234.62L544.732 230.783" stroke="#003455" stroke-width="2.3935" stroke-miterlimit="10"/>
<path d="M537.769 233.483L538.622 239.735L528.959 241.014L528.391 236.893" stroke="#003455" stroke-width="2.3935" stroke-miterlimit="10"/>
<path d="M514.893 225.526L551.412 220.552L552.406 227.515L517.166 241.441" stroke="#003455" stroke-width="2.3935" stroke-miterlimit="10"/>
<path d="M526.544 223.82L525.834 218.989L529.955 218.421L535.497 217.71L536.207 222.542" stroke="#003455" stroke-width="2.3935" stroke-miterlimit="10"/>
<path d="M531.234 241.441C531.234 241.441 531.661 245.135 534.503 244.709C537.202 244.282 536.634 240.162 536.634 240.162" stroke="#003455" stroke-width="2.3935" stroke-miterlimit="10"/>
<path d="M514.182 220.694L517.734 246.982" stroke="#003455" stroke-width="2.3935" stroke-miterlimit="10"/>
<path d="M510.488 234.478L511.625 242.719" stroke="#003455" stroke-width="2.3935" stroke-miterlimit="10"/>
<path d="M509.066 225.952L515.461 228.936" stroke="#003455" stroke-width="2.3935" stroke-miterlimit="10"/>
<path fill-rule="evenodd" clip-rule="evenodd" d="M547.292 233.341L549.707 233.057L553.828 232.489L556.244 232.204L556.528 234.62L557.096 238.741L557.381 241.157L554.965 241.441L550.844 242.009L548.428 242.293L548.144 239.878L547.576 235.757L547.292 233.341ZM552.407 235.046L554.112 234.762L554.397 236.467L554.539 237.036L554.823 238.741L553.118 239.025L552.549 239.167L550.844 239.451L550.56 237.746L550.418 237.178L550.134 235.473L551.839 235.188L552.407 235.046ZM501.252 219.984L503.668 219.7L507.078 219.273L509.494 218.989L509.778 221.405L510.204 224.815L510.488 227.231L508.073 227.515L504.662 227.941L502.247 228.226L501.962 225.81L501.536 222.4L501.252 219.984ZM506.225 221.689L507.362 221.547L507.504 222.684L507.646 223.963L507.788 225.099L506.652 225.242L505.373 225.384L504.236 225.526L504.094 224.389L503.952 223.11L503.81 221.973L504.947 221.831L506.225 221.689ZM523.277 234.904C524.84 234.762 525.835 233.199 525.693 231.778C525.551 230.215 523.988 229.22 522.567 229.362C521.004 229.505 520.009 231.068 520.151 232.489C520.293 234.052 521.714 235.046 523.277 234.904Z" fill="url(#paint15_linear_1026_1061)"/>
<path fill-rule="evenodd" clip-rule="evenodd" d="M535.496 197.39L555.958 194.548L556.384 196.964L535.78 199.806L535.496 197.39ZM541.891 201.937L556.669 199.806L557.095 202.222L542.175 204.353L541.891 201.937ZM518.586 258.208L506.508 259.913L506.792 262.187L518.87 260.624L518.586 258.208Z" fill="url(#paint16_radial_1026_1061)"/>
<path d="M479.369 212.026C478.8 210.179 480.079 208.474 481.926 208.048C496.278 205.206 502.531 203.074 503.241 205.916C503.952 208.9 491.873 213.305 484.342 214.158C481.074 214.584 479.795 213.447 479.369 212.026Z" fill="#2A1F2F"/>
<path d="M480.647 205.206C482.21 205.632 486.189 205.063 487.752 204.637C492.015 203.642 500.114 201.653 499.119 199.095C497.983 195.827 478.657 198.101 477.805 199.095C477.094 199.948 475.815 203.927 480.647 205.206Z" fill="#2A1F2F"/>
<path d="M499.688 208.9C500.682 208.758 501.677 209.184 502.103 210.037C502.814 211.6 501.535 213.163 496.562 215.295C492.725 216.858 487.325 217.142 483.773 217.284C481.215 217.426 479.368 215.863 480.22 213.447C480.647 212.311 481.641 211.174 482.92 211.316L499.688 208.9Z" fill="#2A1F2F"/>
<path d="M498.268 214.726C498.694 217.284 493.294 219.984 486.047 220.836C478.658 221.547 481.5 216.005 481.5 216.005L490.168 213.731L498.268 214.726Z" fill="#2A1F2F"/>
<path d="M596.74 209.326L610.24 219.984L626.155 213.305L613.224 205.348L596.74 209.326Z" fill="white"/>
<path d="M581.11 216.289C580.826 216.858 568.89 217.426 559.511 222.542C549.991 227.799 552.549 231.636 559.369 230.357C566.19 229.078 582.105 222.542 582.105 222.542L581.11 216.289Z" fill="#2A1F2F"/>
<path d="M585.232 227.231C585.232 227.231 570.312 230.925 561.644 234.762C552.976 238.599 560.081 241.014 566.475 240.588C573.012 240.02 589.211 231.21 589.211 231.21L585.232 227.231Z" fill="#2A1F2F"/>
<path d="M590.63 233.767C590.63 233.767 585.657 237.462 576.989 241.867C566.19 247.267 558.374 244.283 563.774 238.883C569.174 233.483 588.783 229.646 588.783 229.646L590.63 233.767Z" fill="#2A1F2F"/>
<path d="M594.182 238.314C594.182 238.314 587.219 246.13 580.115 249.54C573.72 253.377 572.015 249.682 575.141 246.556C577.415 244.425 586.651 237.32 590.203 234.762C592.193 233.341 594.182 238.314 594.182 238.314Z" fill="#2A1F2F"/>
<path d="M581.111 216.289C581.111 216.289 608.394 200.374 617.062 199.38C625.73 198.385 630.988 207.479 627.293 213.874C623.599 220.126 598.447 239.878 594.042 238.314C589.779 236.751 576.706 224.957 581.111 216.289Z" fill="#FF8080"/>
<path d="M601.857 210.605C597.31 212.168 592.905 214.016 588.642 215.863C586.652 216.716 585.942 218.989 586.937 220.836C589.21 225.099 591.91 229.078 595.036 232.631C596.315 234.051 598.447 234.194 600.01 233.057C603.846 230.073 607.399 226.947 610.383 223.678C611.093 222.826 611.377 221.689 611.235 220.552C610.525 217 608.536 213.874 605.551 211.174C604.415 210.463 603.136 210.179 601.857 210.605Z" fill="white"/>
<path d="M553.049 161.545L546.707 163.126L549.526 174.432L555.868 172.851L553.049 161.545Z" fill="white"/>
<path d="M583.907 158.164L572.5 161L573.428 164.723L584.835 161.887L583.907 158.164Z" fill="white"/>
<path d="M584.459 155.869L581.15 156.694L582.56 162.347L585.869 161.522L584.459 155.869Z" fill="white"/>
<path d="M358.394 196H352V199.695H358.394V196Z" fill="#F3F6FB"/>
<path d="M356.446 188.935H354.457V197.887H356.446V188.935Z" fill="#F3F6FB"/>
<path d="M314.811 102.255C318.221 115.612 344.083 131.243 367.387 106.375" stroke="#003455" stroke-width="5" stroke-miterlimit="10" stroke-linecap="round"/>
<path d="M316.089 102.254C325.326 96.7127 326.889 73.5507 323.194 59.7672C322.342 56.641 319.5 54.5096 316.373 54.5096L291.648 53.9412L316.089 102.254Z" fill="#919DFC"/>
<path d="M314.953 152.273H243.194C241.204 152.273 239.783 150.71 239.783 148.863V57.0673C239.783 55.078 241.346 53.657 243.194 53.657H314.953C316.942 53.657 318.363 55.2201 318.363 57.0673V148.721C318.363 150.71 316.8 152.273 314.953 152.273Z" fill="#FF8080"/>
<path d="M273.033 63.4617H250.439V86.0552H273.033V63.4617Z" stroke="white" stroke-width="3" stroke-miterlimit="10" stroke-linecap="round" stroke-linejoin="round"/>
<path d="M308.273 119.733H250.439V140.479H308.273V119.733Z" stroke="white" stroke-width="3" stroke-miterlimit="10" stroke-linecap="round" stroke-linejoin="round"/>
<path d="M250.439 107.796H308.273" stroke="#003455" stroke-width="3" stroke-miterlimit="10" stroke-linecap="round"/>
<path d="M250.439 96.8547H308.273" stroke="#003455" stroke-width="3" stroke-miterlimit="10" stroke-linecap="round"/>
<path d="M280.992 86.0552H308.275" stroke="#003455" stroke-width="3" stroke-miterlimit="10" stroke-linecap="round"/>
<path d="M280.992 74.9717H308.275" stroke="#003455" stroke-width="3" stroke-miterlimit="10" stroke-linecap="round"/>
<path d="M280.992 63.4617H308.275" stroke="#003455" stroke-width="3" stroke-miterlimit="10" stroke-linecap="round"/>
<path d="M247.456 50.3887H236.656V61.1881H247.456V50.3887Z" fill="#D94A5B"/>
<path d="M289.516 148.294H283.406V154.404H289.516V148.294Z" fill="#FFC187"/>
<path d="M243.193 96.9968H235.662V104.528H243.193V96.9968Z" fill="#D94A5B"/>
<path d="M242.057 55.7883H234.525V63.3195H242.057V55.7883Z" fill="#FFC187"/>
<path d="M274.598 51.9517H268.914V57.6356H274.598V51.9517Z" fill="#FFC187"/>
<path d="M321.205 111.207H315.521V116.891H321.205V111.207Z" fill="#FFC187"/>
<path d="M312.111 133.8H302.875V143.036H312.111V133.8Z" fill="#D94A5B"/>
<path d="M312.537 92.876H303.301V102.112H312.537V92.876Z" fill="#D94A5B"/>
<path d="M307.563 97.9915H301.879V103.675H307.563V97.9915Z" fill="#FFC187"/>
<path d="M245.188 131.936L244.193 125.826C244.193 125.542 244.193 125.4 244.335 125.116L249.451 120" stroke="#003455" stroke-width="2" stroke-miterlimit="10" stroke-linecap="round"/>
<path d="M238.936 138.331L232.826 137.336C232.542 137.336 232.4 137.336 232.116 137.478L227 142.594" stroke="#003455" stroke-width="2" stroke-miterlimit="10" stroke-linecap="round"/>
<path d="M242.347 134.92L237.516 130.089" stroke="#003455" stroke-width="2" stroke-miterlimit="10" stroke-linecap="round"/>
<path d="M261.246 147.993L267.356 148.988C267.641 148.988 267.783 148.988 268.067 148.846L273.182 143.73" stroke="#003455" stroke-width="2" stroke-miterlimit="10" stroke-linecap="round"/>
<path d="M254.851 154.246L255.846 160.356C255.846 160.64 255.846 160.782 255.703 161.066L250.588 166.182" stroke="#003455" stroke-width="2" stroke-miterlimit="10" stroke-linecap="round"/>
<path d="M258.262 150.977L263.093 155.667" stroke="#003455" stroke-width="2" stroke-miterlimit="10" stroke-linecap="round"/>
<path d="M258.191 150.804C263.408 145.587 264.082 137.805 259.699 133.421C255.315 129.037 247.532 129.712 242.316 134.928C237.1 140.144 236.425 147.927 240.809 152.311C245.193 156.695 252.975 156.02 258.191 150.804Z" fill="#FFC187"/>
<path d="M240.783 152.398L251.156 142.025" stroke="#003455" stroke-width="2" stroke-miterlimit="10"/>
<path d="M245.898 133.641C248.456 140.178 253.003 144.725 259.54 147.283" stroke="#003455" stroke-width="2" stroke-miterlimit="10" stroke-linecap="round"/>
<path d="M253.289 130.089C253.289 129.805 253.289 129.52 253.431 129.094C254 126.963 256.131 125.542 258.262 125.968" stroke="#003455" stroke-width="2" stroke-miterlimit="10" stroke-linecap="round"/>
<path d="M262.951 139.894C263.377 139.894 263.662 139.894 264.088 139.751C266.219 139.183 267.64 137.052 267.214 134.92" stroke="#003455" stroke-width="2" stroke-miterlimit="10" stroke-linecap="round"/>
<path d="M455 85.6662L476.599 56.394" stroke="#2A1F2F" stroke-width="2" stroke-miterlimit="10"/>
<path d="M445.542 74.1191L470.835 97.5653C472.114 98.7021 472.824 100.407 472.824 102.112V119.022C472.824 121.864 470.977 124.28 468.277 124.99L442.415 132.379L427.211 74.1191H445.542Z" fill="#7271FC"/>
<path d="M416.696 68.7195L439.29 89.75L440.995 118.738L373.641 126.98V68.7195H416.696Z" fill="#2A1F2F"/>
<path d="M427.354 74.1193V55.0781H435.595L445.542 74.1193H427.354Z" fill="#2A1F2F"/>
<path d="M349.342 77.1193V55.0781H357.726L367.672 74.1193L349.342 77.1193Z" fill="#2A1F2F"/>
<path d="M444.404 109.644C454.067 101.402 466.572 102.539 470.124 103.107C470.692 103.25 470.977 103.676 470.835 104.244C470.266 106.376 467.993 111.065 458.472 114.333C446.109 118.596 444.404 109.644 444.404 109.644Z" fill="#8B8392"/>
<path d="M456.625 121.864C463.374 121.864 468.845 116.393 468.845 109.644C468.845 102.895 463.374 97.4233 456.625 97.4233C449.876 97.4233 444.404 102.895 444.404 109.644C444.404 116.393 449.876 121.864 456.625 121.864Z" fill="#2A1F2F"/>
<path d="M459.466 121.864C463.076 121.864 466.003 118.938 466.003 115.328C466.003 111.718 463.076 108.791 459.466 108.791C455.856 108.791 452.93 111.718 452.93 115.328C452.93 118.938 455.856 121.864 459.466 121.864Z" fill="#EDF2F8"/>
<path d="M444.405 109.644C454.352 101.26 466.573 102.823 470.125 103.107C470.267 103.107 470.836 103.391 470.694 103.391C469.699 102.113 462.878 97.5654 455.915 97.4233C445.826 97.1391 444.121 108.223 444.405 109.644Z" fill="#EDF2F8"/>
<path d="M461.883 116.749C468.277 121.722 473.961 145.594 446.82 151.42" stroke="#003455" stroke-width="5" stroke-miterlimit="10" stroke-linecap="round"/>
<path d="M449.379 77.6716L463.873 91.1709L472.825 78.382C473.251 77.6716 473.251 76.819 472.683 76.1085C468.846 71.5613 464.157 68.2931 458.757 66.4458C458.047 66.1616 457.052 66.4458 456.626 67.1563L449.379 77.6716Z" fill="#2A1F2F"/>
<path d="M443.269 69.5721H435.453L429.77 55.0781" stroke="white" stroke-width="2" stroke-miterlimit="10"/>
<path d="M365.398 69.5721H357.582L351.898 55.0781" stroke="white" stroke-width="2" stroke-miterlimit="10"/>
<path d="M469.699 83.0715C470.125 82.361 470.125 81.5084 469.557 80.7979C465.72 76.2508 461.031 72.9825 455.631 71.1353C454.921 70.8511 453.926 71.1353 453.5 71.8458" stroke="white" stroke-width="2" stroke-miterlimit="10"/>
<path d="M475.842 59.6839C477.412 59.6839 478.684 58.4115 478.684 56.842C478.684 55.2724 477.412 54 475.842 54C474.272 54 473 55.2724 473 56.842C473 58.4115 474.272 59.6839 475.842 59.6839Z" fill="#2A1F2F"/>
<path d="M399.075 109.644H395.238V117.175H399.075V109.644Z" fill="#EDF2F8"/>
<path d="M352.042 132.379H439.716C441.279 132.379 442.416 131.1 442.416 129.679V76.819C442.416 75.2559 441.137 74.1191 439.716 74.1191H352.042C350.479 74.1191 349.342 75.398 349.342 76.819V129.679C349.342 131.1 350.621 132.379 352.042 132.379Z" fill="#919DFC"/>
<path d="M432.896 87.3342V119.022C432.896 121.011 431.333 122.574 429.343 122.574H362.842C360.852 122.574 359.289 121.011 359.289 119.022V87.3342C359.289 85.3448 360.852 83.7817 362.842 83.7817H429.343C431.191 83.7817 432.896 85.3448 432.896 87.3342Z" fill="#2A1F2F"/>
<path d="M366.677 117.885H372.788C374.066 117.885 375.203 116.749 375.203 115.47V104.102C375.203 102.823 376.34 101.686 377.619 101.686H424.938C426.216 101.686 427.353 100.55 427.353 99.2706V90.8869C427.353 89.608 426.216 88.4712 424.938 88.4712H366.677C365.398 88.4712 364.262 89.608 364.262 90.8869V115.612C364.262 116.749 365.256 117.885 366.677 117.885Z" fill="#373443"/>
<path d="M401.35 90.4604V95.1497H420.391" stroke="white" stroke-width="4" stroke-miterlimit="10"/>
<path d="M405.176 105.986L413.844 105.991L413.846 102.296L405.178 102.292L405.176 105.986Z" fill="#EDF2F8"/>
<path d="M375.106 105.85L384.059 105.854L384.06 102.302L375.108 102.297L375.106 105.85Z" fill="#EDF2F8"/>
<path d="M400.212 113.338H388.844V117.033H400.212V113.338Z" fill="#EDF2F8"/>
<path d="M367.672 99.2706H371.935C371.935 96.0023 374.493 93.4446 377.761 93.4446V89.1816C372.219 89.1816 367.672 93.7288 367.672 99.2706Z" fill="#EDF2F8"/>
<path d="M442.558 74.1191L442.416 132.379" stroke="#003455" stroke-width="2" stroke-miterlimit="10"/>
<path d="M326.889 68.4352C326.179 66.4459 323.905 65.167 321.774 65.3091C306.995 66.0196 302.448 69.0036 304.296 70.5667C306.427 72.2719 317.795 73.2666 324.189 72.414C327.458 71.9877 327.6 70.1404 326.889 68.4352Z" fill="#2A1F2F"/>
<path d="M310.407 52.9467C308.986 61.0463 307.849 65.4513 304.439 66.5881C301.028 67.7249 302.449 54.6519 305.433 48.6838C308.417 42.7157 313.675 51.5257 314.812 54.5098H306.57L310.407 52.9467Z" fill="#2A1F2F"/>
<path d="M300.459 53.7991C300.459 53.7991 297.901 45.2732 293.212 45.1311C288.523 44.989 287.386 65.7353 290.512 66.5879C293.638 67.4405 296.054 56.7831 296.196 52.8044C296.338 48.8256 294.491 53.7991 294.491 53.7991H300.459Z" fill="#2A1F2F"/>
<path d="M288.95 63.6039C285.255 66.7301 282.413 60.3357 283.692 50.673C284.971 41.0103 290.371 46.1259 291.223 48.3994C292.218 50.8151 288.95 63.6039 288.95 63.6039Z" fill="#2A1F2F"/>
<path d="M284.402 47.9732C280.566 45.8417 279.145 48.8258 279.145 53.0887C279.145 57.3517 279.997 62.7514 282.413 61.6146C284.828 60.4778 285.397 52.9466 285.397 52.9466L284.402 47.9732Z" fill="#2A1F2F"/>
<path d="M395.949 148.721C390.976 154.689 391.118 164.067 401.917 172.451C414.28 181.972 439.857 169.183 452.362 161.936C456.625 159.378 458.33 153.978 456.199 149.431C455.488 148.01 454.92 146.731 454.351 145.737C452.646 142.326 448.952 140.337 445.257 140.621C431.616 141.474 399.928 144.031 395.949 148.721Z" fill="#919DFC"/>
<path d="M415.417 139.342C419.822 140.479 418.401 154.973 414.28 163.073C410.017 171.172 405.186 159.236 407.601 154.689C410.017 150 415.417 139.342 415.417 139.342Z" fill="#2A1F2F"/>
<path d="M387.707 137.637C393.107 137.211 400.07 148.436 402.485 155.541C404.901 162.646 397.37 164.067 394.812 159.662C391.97 155.257 387.707 137.637 387.707 137.637Z" fill="#2A1F2F"/>
<path d="M393.676 150.71L389.128 156.11C387.707 157.815 385.576 158.668 383.445 158.668H362.414C358.293 158.668 354.883 162.078 354.883 166.199V194.334C354.883 198.455 358.293 201.865 362.414 201.865H417.832C421.953 201.865 425.363 198.455 425.363 194.334V165.773V158.668V155.541C425.363 151.421 421.953 148.01 417.832 148.01H399.359C397.228 148.152 395.097 149.147 393.676 150.71Z" fill="#FFC187"/>
<path d="M376.907 171.314H361.561C361.276 171.314 360.992 171.03 360.992 170.746V166.341C360.992 166.057 361.276 165.772 361.561 165.772H376.907C377.191 165.772 377.476 166.057 377.476 166.341V170.746C377.476 171.03 377.191 171.314 376.907 171.314Z" fill="white"/>
<path d="M362.414 201.865H417.832C421.953 201.865 425.363 198.455 425.363 194.334V165.773V158.668V155.542" stroke="#003455" stroke-width="2" stroke-miterlimit="10"/>
<path d="M401.775 195.613L404.617 178.988" stroke="#003455" stroke-width="2" stroke-miterlimit="10"/>
<path d="M397.37 193.482L390.549 187.94L397.37 182.682" stroke="#003455" stroke-width="2" stroke-miterlimit="10"/>
<path d="M409.021 182.682L416.126 187.94L409.021 193.482" stroke="#003455" stroke-width="2" stroke-miterlimit="10"/>
<path d="M431.048 158.81C431.901 162.362 425.933 171.03 419.538 176.288C416.128 179.13 416.554 167.478 416.554 167.478L431.048 158.81Z" fill="#2A1F2F"/>
<path d="M386.003 138.205C384.298 139.2 383.587 141.332 384.156 143.321C385.577 149.147 390.124 162.788 392.397 163.215C395.239 163.641 396.376 156.252 394.529 147.016C393.108 139.769 389.271 136.216 386.003 138.205Z" fill="#2A1F2F"/>
<path d="M410.585 141.331C410.585 141.331 400.354 158.383 402.485 160.515C404.617 162.646 413.569 155.683 416.411 147.015C419.253 138.347 413.711 137.353 410.585 141.331Z" fill="#2A1F2F"/>
<path d="M423.231 148.294C423.231 148.294 407.032 159.946 411.437 163.072C415.132 165.772 423.089 160.373 428.347 155.541C433.178 151.136 428.489 145.594 423.231 148.294Z" fill="#2A1F2F"/>
<path d="M418.542 158.667C418.542 158.667 409.874 164.635 413 167.477C416.126 170.319 431.473 164.351 432.183 158.525C432.752 152.699 422.095 155.115 418.542 158.667Z" fill="#2A1F2F"/>
<g clip-path="url(#clip1_1026_1061)">
<path d="M646.079 224.54C645.809 232.936 637.082 239.859 624.782 242.765C634.596 239.379 639.265 233.185 639.5 225.889C639.869 214.394 626.21 204.592 606.72 203.965C601.522 203.798 596.606 204.24 592.169 205.298C597.734 203.376 604.369 202.389 611.465 202.617C630.855 203.24 646.448 213.046 646.079 224.54Z" fill="#E7F3FF"/>
</g>
<path d="M471 46L467 28" stroke="#FFE9CE" stroke-width="2"/>
<path d="M481.667 46.9862L492.41 32" stroke="#FFE9CE" stroke-width="2"/>
<path d="M487.001 57.698L505.166 60.8628" stroke="#FFE9CE" stroke-width="2"/>
<mask id="path-257-inside-1_1026_1061" fill="white">
<path fill-rule="evenodd" clip-rule="evenodd" d="M91.9588 138.131C90.7263 138.581 89.4505 138.955 88.1353 139.247C71.8358 142.868 55.6771 132.546 52.0439 116.192C48.4106 99.8385 58.6787 83.6455 74.9782 80.0243C91.2777 76.4032 107.436 86.725 111.07 103.079C113.446 113.777 109.874 124.406 102.557 131.492L109.703 150.702L91.9588 138.131Z"/>
</mask>
<path d="M88.1353 139.247L88.786 142.175L88.786 142.175L88.1353 139.247ZM91.9588 138.131L93.693 135.683L92.4092 134.774L90.9312 135.313L91.9588 138.131ZM52.0439 116.192L49.1153 116.843L52.0439 116.192ZM74.9782 80.0243L75.6288 82.9529L74.9782 80.0243ZM111.07 103.079L113.998 102.428L113.998 102.428L111.07 103.079ZM102.557 131.492L100.47 129.337L99.0614 130.701L99.745 132.538L102.557 131.492ZM109.703 150.702L107.969 153.15L115.907 158.773L112.515 149.656L109.703 150.702ZM88.786 142.175C90.2294 141.855 91.6311 141.444 92.9864 140.95L90.9312 135.313C89.8215 135.717 88.6716 136.055 87.4847 136.318L88.786 142.175ZM49.1153 116.843C53.1058 134.805 70.8599 146.158 88.786 142.175L87.4847 136.318C72.8118 139.578 58.2484 130.287 54.9725 115.542L49.1153 116.843ZM74.3275 77.0957C56.4014 81.0783 45.1247 98.8809 49.1153 116.843L54.9725 115.542C51.6965 100.796 60.9559 86.2128 75.6288 82.9529L74.3275 77.0957ZM113.998 102.428C110.008 84.4661 92.2537 73.1132 74.3275 77.0957L75.6288 82.9529C90.3017 79.6931 104.865 88.9839 108.141 103.729L113.998 102.428ZM104.644 133.647C112.681 125.864 116.61 114.183 113.998 102.428L108.141 103.729C110.283 113.371 107.067 122.948 100.47 129.337L104.644 133.647ZM99.745 132.538L106.892 151.748L112.515 149.656L105.368 130.446L99.745 132.538ZM111.438 148.254L93.693 135.683L90.2246 140.579L107.969 153.15L111.438 148.254Z" fill="#FFE9CE" mask="url(#path-257-inside-1_1026_1061)"/>
<path d="M82.6318 95.0358C82.5839 95.0119 82.5359 95 82.5 95C82.4641 95 82.4042 95.0119 82.3682 95.0358L69 98.8211V106.547C69 114.667 74.642 122.249 82.2844 125.557C82.3563 125.616 82.4281 125.652 82.5 125.652C82.5719 125.652 82.6437 125.616 82.7156 125.557C90.358 122.249 96 114.667 96 106.547V98.8211L82.6318 95.0358Z" fill="white" stroke="#2A1F2F" stroke-width="2" stroke-miterlimit="10"/>
<path fill-rule="evenodd" clip-rule="evenodd" d="M82.8278 99.113L82.4502 99.0066L82.0726 99.113L73.4517 101.543L72.4375 101.829V102.883V107.225C72.4375 110.308 73.4857 113.347 75.407 116.037L75.409 116.04C77.0585 118.338 79.2898 120.271 81.8077 121.582L82.4502 121.916L83.0927 121.582C85.6078 120.273 87.8516 118.34 89.4934 116.037C91.415 113.347 92.4629 110.297 92.4629 107.225V102.883V101.829L91.4487 101.543L82.8278 99.113ZM82.6748 118.624C84.4558 117.544 86.0364 116.091 87.2276 114.421L87.2281 114.42C88.8508 112.147 89.6793 109.655 89.6793 107.225V103.936L82.6748 101.962V118.624Z" fill="url(#paint17_radial_1026_1061)"/>
<defs>
<linearGradient id="paint0_linear_1026_1061" x1="325" y1="350.5" x2="236.5" y2="120.5" gradientUnits="userSpaceOnUse">
<stop stop-color="white"/>
<stop offset="1" stop-color="white" stop-opacity="0"/>
</linearGradient>
<radialGradient id="paint1_radial_1026_1061" cx="0" cy="0" r="1" gradientUnits="userSpaceOnUse" gradientTransform="translate(273.382 353.025) rotate(-24.4796) scale(29.8902 27.7813)">
<stop stop-color="#024CE4"/>
<stop offset="0.483" stop-color="#0065FF"/>
<stop offset="1" stop-color="#1CA2FF"/>
</radialGradient>
<linearGradient id="paint2_linear_1026_1061" x1="224.811" y1="347.97" x2="213.596" y2="414.933" gradientUnits="userSpaceOnUse">
<stop stop-color="#FFCC77"/>
<stop offset="0.555955" stop-color="#FF9CAA"/>
<stop offset="0.951248" stop-color="#F98AB2"/>
</linearGradient>
<linearGradient id="paint3_linear_1026_1061" x1="545.626" y1="265.768" x2="540.801" y2="301.997" gradientUnits="userSpaceOnUse">
<stop stop-color="#FFCC77"/>
<stop offset="0.555955" stop-color="#FF9CAA"/>
<stop offset="0.951248" stop-color="#F98AB2"/>
</linearGradient>
<linearGradient id="paint4_linear_1026_1061" x1="498.781" y1="363.703" x2="487.83" y2="406.952" gradientUnits="userSpaceOnUse">
<stop stop-color="#FFCC77"/>
<stop offset="0.555955" stop-color="#FF9CAA"/>
<stop offset="0.951248" stop-color="#F98AB2"/>
</linearGradient>
<radialGradient id="paint5_radial_1026_1061" cx="0" cy="0" r="1" gradientUnits="userSpaceOnUse" gradientTransform="translate(226.248 331.519) rotate(-143.624) scale(53.1592 75.5729)">
<stop stop-color="#024CE4"/>
<stop offset="0.483" stop-color="#0065FF"/>
<stop offset="1" stop-color="#1CA2FF"/>
</radialGradient>
<radialGradient id="paint6_radial_1026_1061" cx="0" cy="0" r="1" gradientUnits="userSpaceOnUse" gradientTransform="translate(437.715 379.936) rotate(-27.5582) scale(145.947 178.216)">
<stop stop-color="#024CE4"/>
<stop offset="0.483" stop-color="#0065FF"/>
<stop offset="1" stop-color="#1CA2FF"/>
</radialGradient>
<radialGradient id="paint7_radial_1026_1061" cx="0" cy="0" r="1" gradientUnits="userSpaceOnUse" gradientTransform="translate(277.949 353.573) rotate(-23.4089) scale(21.873 19.6542)">
<stop stop-color="#024CE4"/>
<stop offset="0.483" stop-color="#0065FF"/>
<stop offset="1" stop-color="#1CA2FF"/>
</radialGradient>
<radialGradient id="paint8_radial_1026_1061" cx="0" cy="0" r="1" gradientUnits="userSpaceOnUse" gradientTransform="translate(277.949 353.714) rotate(-25.6888) scale(22.2742 21.4446)">
<stop stop-color="#024CE4"/>
<stop offset="0.483" stop-color="#0065FF"/>
<stop offset="1" stop-color="#1CA2FF"/>
</radialGradient>
<linearGradient id="paint9_linear_1026_1061" x1="309.635" y1="325.841" x2="295.169" y2="368.278" gradientUnits="userSpaceOnUse">
<stop stop-color="#FFCC77"/>
<stop offset="0.555955" stop-color="#FF9CAA"/>
<stop offset="0.951248" stop-color="#F98AB2"/>
</linearGradient>
<linearGradient id="paint10_linear_1026_1061" x1="460.553" y1="292.594" x2="358.407" y2="441.447" gradientUnits="userSpaceOnUse">
<stop stop-color="#FFCC77"/>
<stop offset="0.555955" stop-color="#FF9CAA"/>
<stop offset="0.951248" stop-color="#FA8EC2"/>
</linearGradient>
<linearGradient id="paint11_linear_1026_1061" x1="441.249" y1="406.359" x2="440.215" y2="419.728" gradientUnits="userSpaceOnUse">
<stop stop-color="#FFCC77"/>
<stop offset="0.555955" stop-color="#FF9CAA"/>
<stop offset="0.951248" stop-color="#F98AB2"/>
</linearGradient>
<linearGradient id="paint12_linear_1026_1061" x1="199.076" y1="207.149" x2="277.576" y2="123.149" gradientUnits="userSpaceOnUse">
<stop stop-color="white"/>
<stop offset="1" stop-color="white" stop-opacity="0"/>
</linearGradient>
<linearGradient id="paint13_linear_1026_1061" x1="286.708" y1="132.353" x2="191.605" y2="316.001" gradientUnits="userSpaceOnUse">
<stop stop-color="#FFCC77"/>
<stop offset="0.555955" stop-color="#FF9CAA"/>
<stop offset="0.951248" stop-color="#F98AB2"/>
</linearGradient>
<radialGradient id="paint14_radial_1026_1061" cx="0" cy="0" r="1" gradientUnits="userSpaceOnUse" gradientTransform="translate(208.125 194.467) rotate(-52.1845) scale(65.0901 93.8603)">
<stop stop-color="#024CE4"/>
<stop offset="0.483" stop-color="#0065FF"/>
<stop offset="1" stop-color="#1CA2FF"/>
</radialGradient>
<linearGradient id="paint15_linear_1026_1061" x1="558.858" y1="222.71" x2="551.037" y2="257.353" gradientUnits="userSpaceOnUse">
<stop stop-color="#FFCC77"/>
<stop offset="0.555955" stop-color="#FF9CAA"/>
<stop offset="0.951248" stop-color="#F98AB2"/>
</linearGradient>
<radialGradient id="paint16_radial_1026_1061" cx="0" cy="0" r="1" gradientUnits="userSpaceOnUse" gradientTransform="translate(505.047 261.139) rotate(-7.83911) scale(13.0175 13.0174)">
<stop stop-color="#024CE4"/>
<stop offset="0.483" stop-color="#0065FF"/>
<stop offset="1" stop-color="#1CA2FF"/>
</radialGradient>
<radialGradient id="paint17_radial_1026_1061" cx="0" cy="0" r="1" gradientUnits="userSpaceOnUse" gradientTransform="translate(73.3833 121.614) rotate(-50.0759) scale(30.4848 36.9778)">
<stop stop-color="#024CE4"/>
<stop offset="0.482969" stop-color="#0065FF"/>
<stop offset="1" stop-color="#1CA2FF"/>
</radialGradient>
<clipPath id="clip0_1026_1061">
<rect width="51" height="36" fill="white" transform="translate(51.1484 243) rotate(18.0382)"/>
</clipPath>
<clipPath id="clip1_1026_1061">
<rect width="54.5" height="39.7" fill="white" transform="translate(592.275 202) rotate(1.84117)"/>
</clipPath>
</defs>
</svg>
