<svg width="294" height="177" viewBox="0 0 294 177" fill="none" xmlns="http://www.w3.org/2000/svg">
<path d="M146.704 88.2918C135.368 107.101 125.148 116.228 130.665 123.098C136.324 129.966 168.899 106.534 168.899 106.534L146.704 88.2918Z" fill="#0552DC"/>
<path d="M112.896 106.06C112.896 106.06 119.783 118.308 132.871 119.081" stroke="#2A1F2F" stroke-width="5" stroke-miterlimit="10" stroke-linecap="round"/>
<path d="M147.274 88.2821C147.274 88.2821 136.883 78.9361 137.379 66.2792C137.875 53.6223 151.336 84.8025 151.336 84.8025L147.274 88.2821Z" fill="#2A1F2F"/>
<path d="M154.436 83.1866C154.436 83.1866 147.115 62.1349 147.472 58.0075C147.828 53.88 153.451 58.6168 156.437 67.0934C159.423 75.5699 160.405 83.2277 160.405 83.2277L154.436 83.1866Z" fill="#2A1F2F"/>
<path d="M151.495 60.6403C151.495 60.6403 151.974 55.3738 156.15 58.5718C160.326 61.7699 165.662 74.7544 164.506 82.022C163.35 89.2896 157.062 78.8793 157.062 78.8793L151.495 60.6403Z" fill="#2A1F2F"/>
<path d="M168.146 78.8333C168.724 79.392 170.01 79.7966 171.053 82.6213C173.138 88.2707 175.055 100.745 170.573 104.658C166.234 108.568 159.443 110.389 154.112 106.073C148.636 101.618 146.705 88.2919 146.705 88.2919C146.594 81.7563 160.72 76.6851 168.146 78.8333Z" fill="#2A1F2F"/>
<path d="M145.093 93.8619L152.264 97.7198C153.001 99.2706 152.738 100.554 151.472 101.286L144.871 97.5607L145.093 93.8619Z" fill="#8B8392"/>
<path d="M145.202 100.255C140.302 96.2168 133.244 90.6516 130.658 88.99C127.209 86.7745 135.833 84.0703 145.345 91.8679C149.265 96.7757 147.933 102.057 145.202 100.255Z" fill="#2A1F2F"/>
<path d="M169.617 90.1784C170.667 93.4293 168.63 99.0065 164.96 100.49C161.29 101.973 157.138 100.196 155.653 96.3838C154.167 92.5718 155.947 88.5623 159.759 87.0766C163.85 85.3019 168.274 86.364 169.617 90.1784Z" fill="#615968"/>
<path d="M164.759 96.9396C167.662 96.8905 169.976 94.497 169.927 91.5938C169.878 88.6905 167.484 86.3767 164.581 86.4259C161.678 86.475 159.364 88.8685 159.413 91.7718C159.462 94.6751 161.856 96.9888 164.759 96.9396Z" fill="#FBBF61"/>
<path d="M71.8069 138.591L63.1544 147.975L69.2589 147.587L76.3726 139.65L71.8069 138.591Z" fill="#8B8392"/>
<path d="M76.1293 142.071C76.5555 142.063 76.8397 142.059 77.2635 141.909C79.6596 140.732 89.8074 135.728 93.8579 131.538C98.1853 126.917 78.9181 130.512 71.0772 137.466C70.0971 138.336 70.1236 139.898 71.2746 140.732C72.1343 141.144 73.7068 141.685 76.1293 142.071Z" fill="#2A1F2F"/>
<path d="M18.7103 74.8259L1.45091 104.679C0.624902 106.256 0.369612 107.966 0.966788 109.661L5.92957 125.778C6.82774 128.464 9.27433 130.27 12.1159 130.222L38.9661 129.625L36.2413 69.4128L18.7103 74.8259Z" fill="#224C98"/>
<path d="M44.7715 61.1675L29.3062 87.8634L36.1808 116.171L103.056 104.095L85.7695 48.3934L44.7715 61.1675Z" fill="#2A1F2F"/>
<path d="M36.0998 69.4155L30.5351 51.3185L22.6172 53.7265L18.7109 74.8261L36.0998 69.4155Z" fill="#2A1F2F"/>
<path d="M110.607 46.4096L104.9 28.3151L97.1245 30.7206L93.0761 51.8227L110.607 46.4096Z" fill="#2A1F2F"/>
<path d="M30.2229 108.455C18.4836 103.395 6.91258 108.281 3.66884 109.757C3.10534 110.051 2.97289 110.622 3.26426 111.043C4.43215 112.871 8.05144 116.789 18.1462 117.045C31.3714 117.531 30.2229 108.455 30.2229 108.455Z" fill="#8B8392"/>
<path d="M18.8375 124.281C25.5857 124.167 30.9635 118.603 30.8493 111.855C30.735 105.107 25.1719 99.7292 18.4238 99.8434C11.6756 99.9577 6.2977 105.521 6.41195 112.269C6.5262 119.017 12.0893 124.395 18.8375 124.281Z" fill="#2A1F2F"/>
<path d="M17.71 124.868C21.3195 124.807 24.196 121.831 24.1349 118.222C24.0738 114.612 21.0982 111.736 17.4887 111.797C13.8792 111.858 11.0027 114.834 11.0638 118.443C11.1249 122.053 14.1005 124.929 17.71 124.868Z" fill="#EDF2F8"/>
<path d="M30.2226 108.455C18.1991 103.4 7.05672 108.421 3.66851 109.757C3.52884 109.901 3.10982 110.335 3.24949 110.19C3.79134 108.618 9.08445 102.275 15.5863 100.175C25.1947 96.8861 30.1985 107.034 30.2226 108.455Z" fill="#EDF2F8"/>
<path d="M17.6023 118.475C17.6023 118.475 16.5566 149.048 44.1219 157.108" stroke="#2A1F2F" stroke-width="5" stroke-miterlimit="10" stroke-linecap="round"/>
<path d="M87.4507 147.705C87.4507 147.705 107.373 140.831 117.013 147.773C126.652 154.716 89.5457 153.923 89.5457 153.923L87.4507 147.705Z" fill="#2A1F2F"/>
<path d="M89.9218 159.318C89.9218 159.318 117.856 155.576 118.219 160.26C118.583 164.944 102.99 167.339 86.926 167.043L89.9218 159.318Z" fill="#2A1F2F"/>
<path d="M108.904 164.113C115.582 163.999 117.665 169.507 101.639 171.484C85.6132 173.46 83.0246 171.657 83.0246 171.657L88.7583 166.159L108.904 164.113Z" fill="#2A1F2F"/>
<path d="M101.454 168.929C102.802 173.027 95.2071 177.704 82.2348 175.365C69.2624 173.027 90.0949 169.547 90.6656 169.68C91.376 169.668 101.454 168.929 101.454 168.929Z" fill="#2A1F2F"/>
<path d="M87.4523 147.706C87.4523 147.706 56.1231 143.972 47.7814 146.53C39.4397 149.087 38.1969 159.625 44.0967 163.93C49.9964 168.236 80.9716 176.239 84.3285 173.055C87.6855 169.872 94.9486 153.974 87.4523 147.706Z" fill="#2374F7"/>
<path d="M66.1858 150.766C71.0116 150.4 75.7002 150.321 80.3912 150.384C82.5223 150.348 84.1165 152.168 84.0105 154.302C83.666 159.14 82.7508 163.845 81.265 168.418C80.7279 170.275 78.7533 171.161 76.899 170.766C72.1888 169.566 67.758 168.078 63.7485 166.298C62.7468 165.889 62.0195 164.907 61.7161 163.775C60.9456 160.235 61.4514 156.531 63.2359 152.806C63.7849 151.66 64.9071 150.788 66.1858 150.766Z" fill="#EDF2F8"/>
<path d="M19.6225 69.8366L26.9744 67.5804L28.2751 52.0675" stroke="white" stroke-width="2" stroke-miterlimit="10"/>
<path d="M93.9858 46.8337L101.338 44.5774L102.638 29.0645" stroke="white" stroke-width="2" stroke-miterlimit="10"/>
<path d="M125.207 102.867L41.5109 128.729C40.0974 129.179 38.5201 128.353 38.0698 126.94L22.435 76.468C21.9847 75.0545 22.8107 73.4772 24.2243 73.0269L107.92 47.1655C109.334 46.7152 110.911 47.5412 111.362 48.9548L126.996 99.4263C127.447 100.84 126.621 102.417 125.207 102.867Z" fill="#0552DC"/>
<path d="M34.7801 83.7913L44.1037 114.047C44.7057 116.026 46.7116 116.987 48.6911 116.385L112.311 96.6905C114.29 96.0885 115.251 94.0826 114.649 92.1031L105.326 61.8477C104.724 59.8682 102.718 58.9073 100.738 59.5093L37.1185 79.2039C35.2811 79.8035 34.1781 81.8119 34.7801 83.7913Z" fill="#2A1F2F"/>
<path d="M106.997 93.3696L101.201 95.1732C99.9295 95.6211 98.6364 94.7903 98.1885 93.5188L94.8776 82.6317C94.4297 81.3602 93.139 80.6715 91.8651 80.9773L46.624 94.9603C45.3525 95.4082 44.0593 94.5773 43.6115 93.3059L41.059 85.2483C40.6111 83.9768 41.442 82.6837 42.7134 82.2358L98.4154 64.9492C99.6869 64.5013 100.98 65.3321 101.428 66.6036L108.649 90.2151C109.1 91.6286 108.269 92.9218 106.997 93.3696Z" fill="#2B2934"/>
<path d="M62.3598 86.6268L56.1152 88.5591L59.5597 99.6906L65.8043 97.7584L62.3598 86.6268Z" fill="#EDF2F8"/>
<path d="M93.1527 77.0038L86.9082 78.936L90.3527 90.0676L96.5972 88.1353L93.1527 77.0038Z" fill="#EDF2F8"/>
<path d="M74.6731 102.494L85.5332 99.1338L84.441 95.6043L73.581 98.9648L74.6731 102.494Z" fill="#EDF2F8"/>
<path d="M52.0677 89.0416L47.9667 90.2479C46.3124 84.8755 49.3443 79.2815 54.5747 77.6297L55.7811 81.7307C52.8119 82.6337 51.1623 85.9303 52.0677 89.0416Z" fill="#EDF2F8"/>
<path d="M101.266 73.8537L97.1652 75.0601C96.2598 71.9488 92.9631 70.2992 89.8519 71.2046L88.6455 67.1036C94.018 65.4493 99.6119 68.4812 101.266 73.8537Z" fill="#EDF2F8"/>
<path d="M74.609 102.587L72.9524 97.0724L76.3454 96.0201L77.5446 99.6949L74.609 102.587Z" fill="#EDF2F8"/>
<path d="M81.6735 98.8096L80.0168 93.2951L83.4099 92.2428L84.609 95.9176L81.6735 98.8096Z" fill="#EDF2F8"/>
<path d="M274 20.2236L163 86.7236L166.5 96.7236L274 20.2236Z" fill="url(#paint0_linear_939_10800)"/>
<circle cx="274" cy="20.2236" r="3" fill="#FBBF61"/>
<circle cx="274" cy="20.2236" r="7.5" stroke="#FBBF61"/>
<circle cx="274" cy="20.2236" r="13.5" stroke="#FBBF61" stroke-opacity="0.5"/>
<circle cx="274" cy="20.2236" r="19.5" stroke="#FBBF61" stroke-opacity="0.2"/>
<defs>
<linearGradient id="paint0_linear_939_10800" x1="172.5" y1="91.7236" x2="256" y2="36.2236" gradientUnits="userSpaceOnUse">
<stop stop-color="#FBBF61"/>
<stop offset="1" stop-color="#FBBF61" stop-opacity="0.5"/>
</linearGradient>
</defs>
</svg>
