<svg width="32" height="33" viewBox="0 0 32 33" fill="none" xmlns="http://www.w3.org/2000/svg">
<path d="M11.4353 12.5829H5.99166C4.73544 12.5829 3.73047 11.578 3.73047 10.3218V7.47433C3.73047 6.21811 4.73544 5.21313 5.99166 5.21313H11.4353C12.6915 5.21313 13.6965 6.21811 13.6965 7.47433V10.4055C13.6127 11.578 12.6077 12.5829 11.4353 12.5829Z" stroke="#0C6DFA" stroke-width="2.5" stroke-miterlimit="10" stroke-linecap="round"/>
<path d="M11.4353 29.5002H5.99166C4.73544 29.5002 3.73047 28.4952 3.73047 27.239V19.2829C3.73047 18.0267 4.73544 17.0217 5.99166 17.0217H11.4353C12.6915 17.0217 13.6965 18.0267 13.6965 19.2829V27.239C13.6127 28.4952 12.6077 29.5002 11.4353 29.5002Z" stroke="#2B2934" stroke-width="2.5" stroke-miterlimit="10" stroke-linecap="round"/>
<path d="M26.0075 17.6078H20.5639C19.3077 17.6078 18.3027 16.6028 18.3027 15.3466V7.47433C18.3027 6.21811 19.3077 5.21313 20.5639 5.21313H26.0075C27.2638 5.21313 28.2687 6.21811 28.2687 7.47433V15.4304C28.2687 16.6028 27.2638 17.6078 26.0075 17.6078Z" stroke="#2B2934" stroke-width="2.5" stroke-miterlimit="10" stroke-linecap="round"/>
<path d="M26.0075 29.5002H20.5639C19.3077 29.5002 18.3027 28.4952 18.3027 27.239V24.3078C18.3027 23.0516 19.3077 22.0466 20.5639 22.0466H26.0075C27.2638 22.0466 28.2687 23.0516 28.2687 24.3078V27.239C28.2687 28.4952 27.2638 29.5002 26.0075 29.5002Z" stroke="#2B2934" stroke-width="2.5" stroke-miterlimit="10" stroke-linecap="round"/>
</svg>
