<svg width="32" height="33" viewBox="0 0 32 33" fill="none" xmlns="http://www.w3.org/2000/svg">
<g clip-path="url(#clip0_937_1714)">
<path d="M24.5992 14.3V24.2999C24.5992 27.8999 21.6992 30.7999 18.0992 30.7999H7.69922C4.09922 30.7999 1.19922 27.8999 1.19922 24.2999V8.69995C1.19922 5.09995 4.09922 2.19995 7.69922 2.19995H18.1992C19.4992 2.19995 20.6992 2.59995 21.6992 3.19995" stroke="#2B2934" stroke-width="2.5" stroke-miterlimit="10" stroke-linecap="round"/>
<path d="M29.2992 9.00005L17.0992 21.3001C16.9992 21.4001 16.7992 21.5001 16.5992 21.5001L10.1992 22.6001C9.49922 22.8001 8.89922 22.2001 8.99922 21.5001L10.3992 15.0001C10.3992 14.8001 10.4992 14.6001 10.6992 14.5001L22.6992 2.50005C23.5992 1.50005 24.9992 1.50005 25.8992 2.40005L29.3992 5.90005C30.1992 6.70005 30.1992 8.20005 29.2992 9.00005Z" stroke="#0C6DFA" stroke-width="2.5" stroke-miterlimit="10" stroke-linecap="round"/>
<path d="M11.8008 13.4L18.1008 19.8" stroke="#0C6DFA" stroke-width="2.5" stroke-miterlimit="10" stroke-linecap="round"/>
<path d="M19.5 5.80005L25.8 12.1" stroke="#0C6DFA" stroke-width="2.5" stroke-miterlimit="10" stroke-linecap="round"/>
</g>
<defs>
<clipPath id="clip0_937_1714">
<rect width="32" height="32" fill="white" transform="translate(0 0.5)"/>
</clipPath>
</defs>
</svg>
