<svg width="24" height="25" viewBox="0 0 24 25" fill="none" xmlns="http://www.w3.org/2000/svg">
<path d="M23.6435 5.16071C22.8085 5.53071 21.9115 5.78071 20.9685 5.89371C21.9415 5.3115 22.6694 4.39518 23.0165 3.31571C22.1023 3.8587 21.1018 4.2409 20.0585 4.44571C19.3569 3.69657 18.4276 3.20004 17.4148 3.03318C16.4021 2.86633 15.3626 3.0385 14.4577 3.52296C13.5529 4.00742 12.8333 4.77707 12.4107 5.71241C11.988 6.64776 11.886 7.69646 12.1205 8.69571C10.2682 8.60271 8.45613 8.12126 6.80192 7.28261C5.14772 6.44397 3.68834 5.26687 2.5185 3.82771C2.1185 4.51771 1.8885 5.31771 1.8885 6.16971C1.88805 6.93671 2.07693 7.69195 2.43838 8.36844C2.79982 9.04493 3.32266 9.62175 3.9605 10.0477C3.22078 10.0242 2.49737 9.82429 1.8505 9.46471V9.52471C1.85043 10.6005 2.22253 11.6431 2.90368 12.4757C3.58483 13.3083 4.53307 13.8796 5.5875 14.0927C4.90128 14.2784 4.18184 14.3058 3.4835 14.1727C3.781 15.0983 4.3605 15.9077 5.14087 16.4876C5.92124 17.0675 6.86342 17.3889 7.8355 17.4067C6.18533 18.7021 4.14739 19.4048 2.0495 19.4017C1.67788 19.4018 1.30658 19.3801 0.9375 19.3367C3.06698 20.7059 5.54584 21.4325 8.0775 21.4297C16.6475 21.4297 21.3325 14.3317 21.3325 8.17571C21.3325 7.97571 21.3275 7.77371 21.3185 7.57371C22.2298 6.91468 23.0164 6.09861 23.6415 5.16371L23.6435 5.16071Z" fill="#50ABF1"/>
</svg>
