<svg width="114" height="28" viewBox="0 0 114 28" fill="none" xmlns="http://www.w3.org/2000/svg">
<g clip-path="url(#clip0_939_10368)">
<path d="M3.66811 26.8202C3.55564 26.8202 3.4426 26.8111 3.33017 26.7938C2.20522 26.6174 1.20065 25.5979 0.703567 24.6657C-0.605419 22.2121 -0.0861043 18.9968 2.24666 15.1086C2.31372 14.9976 2.38607 14.8735 2.46428 14.7398C3.11908 13.6222 4.46762 11.3192 5.7562 11.3192C5.78445 11.3192 5.81343 11.3197 5.84231 11.3225C6.57218 11.3798 7.09615 12.1579 7.34333 12.8668C7.6333 13.6983 7.28683 14.4648 6.88638 15.3519L6.83187 15.472C6.5603 16.0758 6.36241 16.7582 6.17105 17.4181C6.10142 17.6595 6.03174 17.899 5.95808 18.138C5.64839 19.144 5.45116 20.0632 5.33812 21.0325C5.29469 21.4018 5.27758 21.7723 5.26116 22.1301C5.25332 22.3064 5.24536 22.4697 5.23553 22.6344C5.22564 22.7918 5.2927 22.9482 5.4137 23.0521C5.72136 23.3155 6.14802 23.4435 6.71876 23.4435C7.02187 23.4435 7.33356 23.4092 7.6083 23.3788L7.66878 23.3725C7.92323 23.3446 8.1961 23.2846 8.55308 23.1794C8.56359 23.176 8.57349 23.1748 8.58337 23.1748C8.61486 23.1748 8.64515 23.1884 8.66483 23.213C8.69182 23.2464 8.69575 23.2916 8.67471 23.3279C8.30266 23.9709 7.61751 24.6456 6.63851 25.3333C6.50313 25.4274 6.3677 25.5257 6.2309 25.625C5.37819 26.2429 4.58328 26.8202 3.66811 26.8202Z" fill="#F39710"/>
<path d="M6.61491 6.58813C5.63791 6.58813 4.84375 5.80745 4.84375 4.84869C4.84375 3.88927 5.63791 3.10858 6.61491 3.10858C7.5913 3.10858 8.38614 3.88927 8.38614 4.84869C8.38614 5.80745 7.5913 6.58813 6.61491 6.58813Z" fill="#F49710"/>
<path d="M99.1816 23.7955C98.3787 23.3823 98.0763 22.3228 98.3511 21.2065C98.4801 20.2986 98.7273 19.5967 98.9725 18.6935C99.5714 16.4834 101.176 12.2983 101.176 12.2983C102.322 11.2091 114 8.21574 114 8.21574C114 8.21574 113.863 7.65206 111.846 7.42809L103.781 6.73973C103.781 6.73973 104.476 4.71108 104.532 3.59147C104.56 3.04081 104.395 2.30668 104.182 1.82047C103.951 1.29098 103.329 0.41284 102.879 0.197283C101.385 -0.521326 100.395 0.884853 99.7739 1.77141C98.6051 3.43786 97.478 5.71771 96.6681 7.42809C96.6681 7.42809 92.7541 8.26796 90.5912 8.98854C89.2037 9.41597 88.4023 10.1068 88.4023 11.0599C88.4023 12.3157 90.0631 13.3345 92.1117 13.3345C92.4156 13.3345 92.7087 13.3101 92.9909 13.2674C93.405 13.2351 93.8173 13.1963 94.2136 13.1841C93.8014 14.5445 93.3655 15.9612 92.9613 17.4636C92.459 19.3314 91.9428 21.6855 92.3604 23.7607C92.7292 25.5982 93.5688 26.5958 94.9652 27.3519C95.5536 27.6695 96.3604 28.0647 97.1691 27.991C97.7588 27.9374 98.5872 27.4468 99.0724 27.1052C99.632 26.712 100.241 25.9939 100.675 25.3833C101.121 24.7588 101.341 23.9686 101.575 23.2189C101.562 23.2209 101.589 23.2165 101.575 23.2189C100.827 23.9027 99.9061 24.1688 99.1816 23.7955Z" fill="#D22536"/>
<path d="M99.1821 23.7955C98.3794 23.3823 98.0769 22.3228 98.3518 21.2065C98.4807 20.2986 98.7279 19.5967 98.9725 18.6935C99.5713 16.4834 101.177 12.2983 101.177 12.2983C102.322 11.2091 114 8.21574 114 8.21574C114 8.21574 113.863 7.65206 111.846 7.42809L103.782 6.73973C103.782 6.73973 104.477 4.71108 104.533 3.59147C104.56 3.04081 104.395 2.30668 104.182 1.82047C103.951 1.29098 103.329 0.41284 102.88 0.197283C101.385 -0.521326 100.396 0.884853 99.7739 1.77141C98.6049 3.43786 97.4786 5.71771 96.668 7.42809C96.668 7.42809 92.7548 8.26796 90.5917 8.98854C89.2037 9.41597 88.4023 10.1068 88.4023 11.0599C88.4023 12.3157 90.063 13.3345 92.1124 13.3345C92.4156 13.3345 92.7087 13.3101 92.9908 13.2674C93.4049 13.2351 93.8178 13.1963 94.2138 13.1841C93.8021 14.5445 93.3656 15.9612 92.9619 17.4636C92.4595 19.3314 91.9434 21.6855 92.3609 23.76C92.7298 25.5982 93.5687 26.5958 94.9659 27.3519C95.5535 27.6695 96.3611 28.0647 97.169 27.991C97.7587 27.9374 98.5871 27.4468 99.0731 27.1052C99.6325 26.7114 100.241 25.9939 100.676 25.3833C101.122 24.7582 101.341 23.9692 101.575 23.2189C101.562 23.2216 101.589 23.2165 101.575 23.2189C100.828 23.9027 99.9067 24.1688 99.1821 23.7955Z" fill="#B41E25"/>
<path d="M97.8915 20.8663C97.854 21.0244 97.8251 21.1806 97.8066 21.3337C97.8153 21.2918 97.8226 21.2492 97.833 21.2059C97.8495 21.0883 97.8712 20.9779 97.8915 20.8663Z" fill="#D22536"/>
<path d="M101.575 23.2189C101.589 23.2162 101.56 23.2218 101.575 23.2189V23.2189Z" fill="#61161E"/>
<path d="M101.562 23.2303C101.571 23.2229 101.576 23.2181 101.576 23.2181C101.571 23.2229 101.567 23.2263 101.562 23.2303Z" fill="#61161E"/>
<path d="M19.2552 18.6006H28.2383V16.5835H19.2552V18.6006ZM19.2552 13.7801L28.2383 13.7969V11.96L19.2552 11.958V13.7801ZM26.0345 8.56186C27.8832 8.56186 29.3586 8.40168 30.2422 9.20498C30.5014 9.44001 31.0338 10.1185 31.1475 10.4769C31.3048 10.861 31.2521 13.1802 31.2521 13.1802C31.2521 13.1802 31.2377 14.0144 31.1437 14.3211C30.999 14.7951 30.5762 15.0638 30.0917 15.3053C30.6078 15.5149 31.0391 15.7203 31.1943 16.1904C31.2915 16.9723 31.2718 18.7207 31.2134 19.4387C31.1285 20.0896 30.8852 20.5448 30.4566 20.9947C30.183 21.2808 29.9412 21.51 29.5362 21.6786C29.1304 21.8471 26.285 21.8083 26.285 21.8083L16.5117 21.8044V8.56186H26.0345Z" fill="#333334"/>
<path d="M39.2431 8.57752H42.635L48.7461 21.8109H45.422L42.7172 16.5862H38.9604L36.506 21.8109H33.082L36.7887 13.7886H41.5653L40.6133 11.973H37.6902L39.2431 8.57752Z" fill="#333334"/>
<path d="M65.9917 8.57083V11.9794H54.0461L54.0448 13.7917H64.6143C65.0285 14.0209 65.5991 14.2881 65.8669 14.8325C66.0514 15.0805 65.9759 19.8094 65.5525 20.4983C65.2421 21.0025 65.0021 21.5784 64.2631 21.8173H51.2479L51.2531 18.571H63.3617V16.6036H55.2973C55.2973 16.6036 53.724 16.6017 52.6924 16.5965C52.1454 16.461 51.4334 15.7933 51.3399 15.0786C51.1967 13.9828 51.1584 10.923 51.4899 10.2082C51.7825 9.57746 52.6917 8.81493 53.4938 8.63409C54.2795 8.52822 56.8449 8.56702 56.8449 8.56702C56.8449 8.56702 62.8548 8.57083 65.9917 8.57083Z" fill="#333334"/>
<path d="M83.4433 8.56541V11.8745H71.7115L71.7101 13.7927L83.4433 13.7979V16.5969H71.7115L71.7083 18.466H83.4433V21.8112H72.3223C71.8212 21.8112 71.2354 21.808 70.7693 21.8112C70.2519 21.6789 69.3676 20.9892 69.1165 20.434C68.5561 19.195 68.6871 15.1808 68.6871 15.1808C68.6871 15.1808 68.6609 12.0636 68.766 10.6446C68.837 9.68252 69.9009 8.77847 70.9199 8.62749C71.8889 8.53187 74.0756 8.56541 74.0756 8.56541H83.4433Z" fill="#333334"/>
</g>
<defs>
<clipPath id="clip0_939_10368">
<rect width="114" height="28" fill="white"/>
</clipPath>
</defs>
</svg>
