<svg width="152" height="26" viewBox="0 0 152 26" fill="none" xmlns="http://www.w3.org/2000/svg">
<path d="M61.1465 25.038H63.715V8.77612H61.1465V25.038Z" fill="#231F20"/>
<path d="M42.5527 8.77565H31.5801V10.7584H35.7828V25.0375H38.3499V10.7584H42.5527V8.77565Z" fill="#231F20"/>
<path d="M50.7292 8.41088C45.9316 8.41088 42.0469 12.2437 42.0469 16.9792C42.0469 21.6881 45.9316 25.5013 50.7292 25.5013C55.5184 25.5013 59.4087 21.6881 59.4087 16.9792C59.4087 12.2437 55.5184 8.41088 50.7292 8.41088ZM50.7292 23.2866C47.1881 23.2866 44.3328 20.4599 44.3328 16.9792C44.3328 13.4733 47.1881 10.648 50.7292 10.648C54.2618 10.648 57.1398 13.4733 57.1398 16.9792C57.1398 20.4599 54.2618 23.2866 50.7292 23.2866Z" fill="#231F20"/>
<path d="M73.7429 8.77565H70.7499L63.75 16.0891L70.8265 25.0375H73.7997L66.7402 16.0891L73.7429 8.77565Z" fill="#231F20"/>
<path d="M84.8123 8.77565L80.8652 16.8968L76.9293 8.77565H74.4688L79.5958 19.3225L79.6143 25.0375H82.1373V19.3225L87.2772 8.77565H84.8123Z" fill="#231F20"/>
<path d="M94.9187 8.41088C90.121 8.41088 86.2363 12.2437 86.2363 16.9792C86.2363 21.6881 90.121 25.5013 94.9187 25.5013C99.7078 25.5013 103.598 21.6881 103.598 16.9792C103.598 12.2437 99.7078 8.41088 94.9187 8.41088ZM94.9187 23.2866C91.3776 23.2866 88.5223 20.4599 88.5223 16.9792C88.5223 13.4733 91.3776 10.648 94.9187 10.648C98.4513 10.648 101.329 13.4733 101.329 16.9792C101.329 20.4599 98.4513 23.2866 94.9187 23.2866Z" fill="#231F20"/>
<path d="M127.458 16.1855H119.814V18.0118H125.155C124.621 21.0034 122.006 23.2866 118.818 23.2866C115.279 23.2866 112.399 20.4613 112.399 16.9792C112.399 13.4733 115.279 10.648 118.818 10.648C120.751 10.648 122.493 11.4948 123.666 12.8208L125.286 11.2838C123.71 9.52736 121.402 8.41231 118.818 8.41231C114.026 8.41231 110.129 12.2437 110.129 16.9792C110.129 21.6881 114.026 25.5013 118.818 25.5013C123.627 25.5013 127.495 21.6881 127.495 16.9792C127.495 16.7249 127.495 16.437 127.458 16.1855Z" fill="#231F20"/>
<path d="M126.754 25.0374L129.195 25.057L133.972 13.7612L138.766 25.057L141.187 25.0374L133.992 8.02806L126.754 25.0374Z" fill="#231F20"/>
<path d="M151.433 19.6914C150.924 16.6076 147.735 15.8432 145.288 14.6667C144.607 14.3397 144.259 13.6858 144.235 12.9746C144.177 11.4319 145.643 10.3029 147.191 10.7011C147.972 10.9331 148.209 11.2042 148.991 12.3625L150.884 11.2251C149.728 8.63872 147.036 7.89116 144.728 8.79802C142.047 9.87813 141.131 13.3043 142.984 15.5135C144.316 17.112 146.448 17.1846 148.107 18.3612C149.27 19.1702 149.46 20.5354 148.913 21.6756C148.405 22.8074 147.209 23.404 145.976 23.2867C144.57 23.1148 143.434 21.8698 143.159 20.5354L141.262 21.3807C141.539 23.3621 144.039 25.4218 146.367 25.4218C149.399 25.405 151.92 22.7892 151.433 19.6914Z" fill="#231F20"/>
<path d="M25.5354 8.73366H17.2293L17.2095 16.7626H8.86219V8.73366H0.507812V0.497948H25.5354V8.73366Z" fill="#0D4DA1"/>
<path d="M25.5801 16.8232H17.2441V25.0184H25.5801V16.8232Z" fill="#ED1A3A"/>
</svg>
