<svg width="134" height="31" viewBox="0 0 134 31" fill="none" xmlns="http://www.w3.org/2000/svg">
<path d="M9.24107 1.81824L7.85352 5.10861L9.4273 5.00482L10.9319 9.26538C10.9871 9.20208 11.0475 9.14392 11.1122 9.09092C11.177 9.03866 11.2462 8.99082 11.3191 8.94959C11.392 8.90837 11.4692 8.87304 11.5502 8.84359C11.6312 8.81489 11.7151 8.79207 11.8034 8.77587C11.891 8.76042 11.9801 8.75158 12.0684 8.74937C12.156 8.7479 12.2444 8.75232 12.332 8.7641C12.4196 8.77514 12.5064 8.7928 12.5925 8.81562C12.6779 8.83918 12.7633 8.86789 12.8465 8.90248L11.3058 4.87969L12.6146 4.79283L9.24107 1.81824Z" fill="#0066CC"/>
<path d="M10.5462 10.7722L5.79977 15.7188L4.19286 14.0965L2.38867 21.8071L9.50236 19.4538L7.90134 17.8381L12.0927 12.7302C11.9344 12.6684 11.7806 12.586 11.6348 12.4866C11.4884 12.3865 11.3507 12.2694 11.2248 12.137C11.099 12.0045 10.9856 11.8565 10.8877 11.6968C10.7905 11.537 10.7088 11.3648 10.6477 11.183C10.636 11.1484 10.6249 11.1138 10.6153 11.0792C10.605 11.0446 10.5962 11.0107 10.5874 10.9761C10.5785 10.9415 10.5712 10.9077 10.5646 10.8731C10.5572 10.8392 10.5513 10.8053 10.5462 10.7722Z" fill="#E31B23"/>
<path d="M14.043 9.9668C14.0592 9.99477 14.0754 10.0227 14.0901 10.0514C14.1055 10.0802 14.1203 10.1089 14.1342 10.1383C14.1482 10.1678 14.1622 10.1972 14.1755 10.2274C14.1887 10.2576 14.2012 10.2885 14.2137 10.3194C14.2778 10.4806 14.3227 10.6425 14.3507 10.8023C14.3786 10.9627 14.3882 11.121 14.3816 11.2741C14.3742 11.4287 14.3507 11.5774 14.3102 11.7195C14.2697 11.8623 14.2115 11.997 14.1387 12.1214L18.7496 13.52L18.8217 15.1732L21.5313 13.4132L18.6046 10.1471L18.665 11.5376L14.043 9.9668Z" fill="#01AD4E"/>
<path d="M11.8066 8.77577C11.7183 8.79122 11.6343 8.81404 11.5534 8.84349C11.4724 8.87293 11.3951 8.90826 11.3222 8.94949C11.2486 8.99144 11.1802 9.03855 11.1154 9.09082C11.0506 9.14382 10.9903 9.20197 10.935 9.26527C10.8548 9.35729 10.7849 9.4596 10.7267 9.57076C10.6678 9.68264 10.6215 9.80336 10.5876 9.93071C10.5537 10.0595 10.5324 10.1942 10.5258 10.3348C10.5191 10.4762 10.5265 10.6226 10.5493 10.7721C10.5545 10.8059 10.5604 10.8398 10.567 10.8737C10.5736 10.9075 10.581 10.9421 10.5898 10.9767C10.5979 11.0106 10.6075 11.0452 10.6178 11.0798C10.6281 11.1144 10.6384 11.149 10.6502 11.1836C10.712 11.3654 10.793 11.5376 10.8901 11.6974C10.9873 11.8578 11.1014 12.0058 11.2273 12.1375C11.3532 12.27 11.4908 12.3878 11.6373 12.4872C11.783 12.5866 11.9369 12.669 12.0951 12.7308C12.1938 12.7699 12.2939 12.8008 12.3955 12.8236C12.4963 12.8464 12.5972 12.8611 12.6987 12.867C12.7996 12.8729 12.8997 12.8707 12.9991 12.8589C13.0977 12.8479 13.1949 12.8273 13.2906 12.7978C13.3855 12.7684 13.4753 12.7308 13.5585 12.6859C13.6417 12.6418 13.719 12.5895 13.7904 12.5321C13.8618 12.4739 13.9266 12.4114 13.9855 12.3422C14.0436 12.2737 14.0966 12.2001 14.143 12.1221C14.2159 11.9984 14.2733 11.863 14.3145 11.7202C14.355 11.5781 14.3785 11.4294 14.3859 11.2748C14.3925 11.121 14.3829 10.9635 14.355 10.803C14.327 10.6433 14.2821 10.482 14.2181 10.3201C14.2055 10.2892 14.193 10.2583 14.1798 10.2281C14.1665 10.1979 14.1525 10.1685 14.1386 10.139C14.1246 10.1096 14.1099 10.0809 14.0944 10.0522C14.0789 10.0235 14.0635 9.99549 14.0473 9.96751C13.9759 9.84459 13.8949 9.72828 13.8073 9.62155C13.7197 9.51408 13.624 9.41544 13.5224 9.32563C13.4209 9.23583 13.3134 9.15486 13.2008 9.08419C13.0881 9.01353 12.9711 8.95243 12.8519 8.90311C12.7687 8.86851 12.684 8.83981 12.5979 8.81625C12.5118 8.7927 12.4249 8.77577 12.3373 8.76472C12.2497 8.75368 12.1614 8.74853 12.0738 8.75C11.9825 8.75147 11.8942 8.75957 11.8066 8.77577Z" fill="#FEDE58"/>
<path d="M27.3816 18.4392L25.3691 18.4466V7.71643H27.3816V18.4392ZM28.4166 12.6145L34.5505 7.73851H37.1725L30.9414 12.6586L37.2108 18.4473H34.7633L28.4166 12.6145Z" fill="black" stroke="black" stroke-width="0.515271"/>
<path d="M41.011 16.6416C41.011 17.1311 41.3261 17.3763 41.9576 17.3763H45.7368C46.372 17.3763 46.69 17.1466 46.69 16.688V10.9553H48.1777V16.8411C48.1328 17.9121 47.4004 18.448 45.9804 18.448H41.7213C40.3014 18.448 39.5918 17.9121 39.5918 16.8411V10.9449H41.0117V16.6416H41.011Z" fill="black" stroke="black" stroke-width="0.515271"/>
<path d="M50.2402 10.9495H56.6289C57.9627 11.0209 58.6752 11.5567 58.765 12.5564L58.7584 13.3521C58.7584 13.8924 58.4993 14.2501 57.9811 14.4231C58.4993 14.5453 58.7584 14.8685 58.7584 15.3926L58.765 16.8412C58.6745 17.8445 57.9627 18.3797 56.6289 18.4481H50.2402V10.9495ZM56.1489 13.8821C56.9469 13.899 57.3429 13.6355 57.3385 13.0915V12.8265C57.3385 12.2892 56.9844 12.0205 56.277 12.0205H51.6594V17.3756H56.277C56.9844 17.369 57.3385 17.1055 57.3385 16.5851V15.6568C57.3385 15.171 56.9167 14.9274 56.0746 14.9274H52.4581V13.8821H56.1489Z" fill="black" stroke="black" stroke-width="0.515271"/>
<path d="M63.0163 10.9495H67.2753C68.6997 10.9495 69.4115 11.4802 69.4115 12.5409V16.8353C69.4071 17.91 68.6946 18.4467 67.2753 18.4467H63.0163C61.5963 18.4467 60.8867 17.9108 60.8867 16.8398V12.5556C60.8867 11.4853 61.5963 10.9495 63.0163 10.9495ZM62.3067 12.786V16.6624C62.3067 17.1386 62.6195 17.3764 63.2467 17.3764H67.053C67.675 17.3764 67.9857 17.1416 67.9857 16.6727V12.7404C67.9857 12.2612 67.6677 12.0212 67.0324 12.0212H63.2599C62.6239 12.0205 62.3067 12.2759 62.3067 12.786Z" fill="black" stroke="black" stroke-width="0.515271"/>
<path d="M79.6419 10.9597V12.0204H76.1535V18.4518H74.7475V12.0204H71.1914L71.198 10.9597H79.6419Z" fill="black" stroke="black" stroke-width="0.515271"/>
<path d="M82.8923 17.3755H89.2471V18.4465H81.4863V10.9545H89.2471V12.0203H82.8923V17.3755ZM89.1388 13.8716V14.9272H83.6762V13.8716H89.1388Z" fill="black" stroke="black" stroke-width="0.515271"/>
<path d="M92.8161 18.4422L91.4102 18.4474V10.9495H92.8161V18.4422ZM93.5397 14.3716L97.826 10.9649H99.6582L95.3041 14.4025L99.6847 18.4474H97.974L93.5397 14.3716Z" fill="black" stroke="black" stroke-width="0.515271"/>
<path d="M113.921 13.4242C114.205 13.564 114.468 13.7407 114.714 13.9549C114.958 14.1691 115.16 14.4238 115.318 14.7175C115.476 15.0119 115.556 15.3675 115.556 15.7863C115.556 16.384 115.403 16.8831 115.1 17.2814C114.796 17.6803 114.419 17.9968 113.971 18.2309C113.522 18.465 113.04 18.6321 112.524 18.7315C112.009 18.8316 111.547 18.8809 111.138 18.8809H102.617V16.3995H109.771C110.008 16.3995 110.226 16.3848 110.424 16.3546C110.622 16.3244 110.794 16.2699 110.94 16.1904C111.085 16.1109 111.2 16.0013 111.286 15.8614C111.372 15.7223 111.415 15.5427 111.415 15.3233C111.415 15.104 111.372 14.9273 111.286 14.7926C111.2 14.6579 111.085 14.5511 110.94 14.4709C110.794 14.3914 110.622 14.3362 110.424 14.3068C110.226 14.2766 110.008 14.2619 109.771 14.2619H104.321V11.8703H109.771C110.008 11.8703 110.226 11.8555 110.424 11.8254C110.622 11.7952 110.794 11.7407 110.94 11.6612C111.085 11.5817 111.2 11.472 111.286 11.3322C111.372 11.1931 111.415 11.0134 111.415 10.7941C111.415 10.5747 111.372 10.3981 111.286 10.2634C111.2 10.1286 111.085 10.0219 110.94 9.94168C110.794 9.86218 110.622 9.80697 110.424 9.77753C110.226 9.74735 110.008 9.73262 109.771 9.73262H102.617V7.25049H111.138C111.547 7.25049 112.009 7.30054 112.524 7.39992C113.04 7.49929 113.522 7.66639 113.971 7.90047C114.42 8.13455 114.796 8.45107 115.1 8.85004C115.404 9.24901 115.556 9.74735 115.556 10.3451C115.556 10.7639 115.476 11.1202 115.318 11.4139C115.16 11.7083 114.958 11.9623 114.714 12.1765C114.469 12.3907 114.205 12.5681 113.921 12.7072C113.637 12.8471 113.376 12.9663 113.138 13.0657C113.375 13.1651 113.637 13.2851 113.921 13.4242Z" fill="black"/>
<path d="M116.941 7.25049H125.086C127.159 7.25049 128.722 7.74883 129.772 8.74551C130.823 9.74219 131.348 11.182 131.348 13.0657C131.348 14.9494 130.823 16.3899 129.772 17.3859C128.722 18.3826 127.16 18.8809 125.086 18.8809H116.941V7.25049ZM120.746 16.3995H124.015C125.125 16.3995 125.934 16.108 126.443 15.525C126.952 14.942 127.206 14.122 127.206 13.0657C127.206 12.0094 126.951 11.1894 126.443 10.6064C125.934 10.0234 125.125 9.73189 124.015 9.73189H120.746V16.3995Z" fill="black"/>
<path d="M35.9512 28.4901V27.9468H39.9556C40.3892 27.9454 40.6049 27.821 40.6019 27.5744V27.062C40.6049 26.8243 40.3892 26.705 39.9556 26.705H37.3027C36.3598 26.705 35.8887 26.4297 35.8887 25.8799L35.8931 25.5022C35.8931 24.9605 36.3642 24.6889 37.3071 24.6874H41.4956V25.2306H37.4463C37.0363 25.2306 36.8316 25.344 36.8316 25.57V25.8188C36.8316 26.0565 37.0304 26.1758 37.4286 26.1758H40.1308C41.0767 26.1758 41.5493 26.4275 41.5493 26.9318V27.6745C41.5464 28.2177 41.0738 28.4908 40.1308 28.4923H35.9512V28.4901Z" fill="black"/>
<path d="M48.1662 26.5881V27.8173C48.1632 28.2627 47.6855 28.4879 46.7337 28.4931H44.373C43.433 28.4879 42.9619 28.2561 42.959 27.7967V26.5881C42.9678 26.0463 43.4426 25.7747 44.3819 25.7732H46.7389C47.6818 25.7732 48.1573 26.0448 48.1662 26.5881ZM46.613 26.3142H44.5254C44.1154 26.3157 43.9071 26.4313 43.9012 26.6609V27.6731C43.8982 27.8556 44.1706 27.9484 44.7183 27.9498H46.5769C46.9987 27.9498 47.2114 27.8814 47.2144 27.7452V26.6609C47.2151 26.4313 47.0142 26.3157 46.613 26.3142Z" fill="black"/>
<path d="M49.2441 24.6859H50.1871V28.4901H49.2441V24.6859Z" fill="black"/>
<path d="M52.2164 25.7754V27.6024C52.2193 27.8299 52.4232 27.9447 52.8266 27.9469H55.3721V25.7754H56.3194V28.4901H52.6875C51.7475 28.4887 51.2764 28.217 51.2734 27.6753V25.7761H52.2164V25.7754Z" fill="black"/>
<path d="M58.9726 25.7629V24.6868H59.9156V25.7629H61.3296V26.3062H59.9156V28.4902H58.9726V26.3084H57.5586V25.7622H58.9726V25.7629Z" fill="black"/>
<path d="M63.1843 25.2455H62.2148V24.6868H63.1843V25.2455ZM62.2281 25.7526H63.1799V28.4909H62.2281V25.7526Z" fill="black"/>
<path d="M69.4989 26.5881V27.8173C69.496 28.2627 69.0183 28.4879 68.0665 28.4931H65.7051C64.7651 28.4879 64.294 28.2561 64.291 27.7967V26.5881C64.2998 26.0463 64.7746 25.7747 65.7139 25.7732H68.0709C69.0138 25.7732 69.4901 26.0448 69.4989 26.5881ZM67.9458 26.3142H65.8582C65.4482 26.3157 65.2399 26.4313 65.234 26.6609V27.6731C65.231 27.8556 65.5034 27.9484 66.051 27.9498H67.9097C68.3315 27.9498 68.5442 27.8814 68.5472 27.7452V26.6609C68.5472 26.4313 68.3469 26.3157 67.9458 26.3142Z" fill="black"/>
<path d="M71.5191 28.4902H70.5762V25.7703H74.3472C75.2931 25.7739 75.7657 26.0463 75.7657 26.5881L75.7701 28.4872H74.8183V26.6683C74.8095 26.4372 74.5997 26.3187 74.1897 26.3135H71.5184V28.4902H71.5191Z" fill="black"/>
<path d="M83.9288 28.4849H82.9902V24.6859H87.228C88.1643 24.6911 88.6361 24.9921 88.642 25.5891V25.8865C88.6361 26.4297 88.1643 26.7028 87.228 26.7043H84.4492V26.1736H87.0439C87.4812 26.1736 87.6991 26.0676 87.6991 25.8556V25.5759C87.6991 25.3447 87.4922 25.2292 87.0793 25.2292H83.928V28.4849H83.9288Z" fill="black"/>
<path d="M90.0597 26.3142V25.7732H93.3545C94.2945 25.7732 94.7671 26.0389 94.773 26.5704V28.4909H90.8901C90.0222 28.4909 89.5879 28.2649 89.5879 27.8129V27.4375C89.5879 26.9789 89.9891 26.7485 90.7907 26.7463H93.2824V27.2896H91.208C90.7561 27.2896 90.5286 27.3956 90.5257 27.6076H90.5301C90.5301 27.8335 90.7399 27.9469 91.1587 27.9469H93.83L93.8256 26.7434C93.8256 26.457 93.6144 26.3135 93.1926 26.3135H90.0597V26.3142Z" fill="black"/>
<path d="M95.8711 28.4901V26.5777C95.874 26.0448 96.3451 25.7769 97.2851 25.7754H99.1931V26.3113H97.4331C97.026 26.3127 96.8199 26.4261 96.8133 26.6506V28.4909H95.8711V28.4901Z" fill="black"/>
<path d="M101.531 25.7629V24.6868H102.474V25.7629H103.888V26.3062H102.474V28.4902H101.531V26.3084H100.117V25.7622H101.531V25.7629Z" fill="black"/>
<path d="M105.548 28.4902H104.605V25.7703H108.377C109.322 25.7739 109.795 26.0463 109.795 26.5881L109.799 28.4872H108.848V26.6683C108.839 26.4372 108.629 26.3187 108.219 26.3135H105.548V28.4902H105.548Z" fill="black"/>
<path d="M115.871 27.9469V28.4901H112.307C111.373 28.485 110.901 28.2185 110.893 27.6907V26.5881C110.893 26.0463 111.364 25.7747 112.307 25.7732H114.668C115.601 25.7769 116.073 26.0029 116.082 26.4511V27.2999H112.352V26.7463H115.135L115.139 26.5211C115.136 26.3849 114.979 26.3164 114.668 26.3164H112.553C112.074 26.3164 111.835 26.446 111.835 26.7044V27.5457C111.835 27.8151 112.048 27.9484 112.472 27.9469H115.871Z" fill="black"/>
<path d="M117.176 28.4901V26.5777C117.179 26.0448 117.65 25.7769 118.59 25.7754H120.498V26.3113H118.738C118.331 26.3127 118.125 26.4261 118.118 26.6506V28.4909H117.176V28.4901Z" fill="black"/>
<path d="M26.2422 21.8068C27.7166 22.1734 28.7177 22.3722 30.4821 22.381C38.6175 22.381 79.3608 22.381 79.3608 22.381C79.3608 22.381 117.451 22.381 125.057 22.381C126.821 22.3722 127.822 22.1734 129.296 21.8068C127.822 21.4402 126.822 21.2415 125.057 21.2327C117.451 21.2327 79.3608 21.2327 79.3608 21.2327C79.3608 21.2327 38.6175 21.2327 30.4821 21.2327C28.7177 21.2415 27.7166 21.4402 26.2422 21.8068Z" fill="#2A62AC"/>
</svg>
