<svg width="118" height="33" viewBox="0 0 118 33" fill="none" xmlns="http://www.w3.org/2000/svg">
<path d="M91.7516 2.65596C91.7416 2.6909 91.5075 3.79922 91.2287 5.11723C90.9498 6.43523 90.4319 8.87154 90.0833 10.534C89.7298 12.1965 89.0675 15.3068 88.6143 17.4485C88.1611 19.5903 87.7379 21.5823 87.6731 21.8768L87.5586 22.416H89.1322H90.7058L91.2137 20.0047C91.4976 18.6817 92.0055 16.2703 92.3491 14.6528C92.6927 13.0302 93.2106 10.5939 93.4994 9.23599C93.7883 7.87804 94.1568 6.13568 94.3211 5.36685C94.4854 4.59801 94.6747 3.69938 94.7444 3.36987C94.8091 3.04037 94.8788 2.73084 94.8938 2.68092C94.9187 2.60104 94.8241 2.59605 93.3451 2.59605C92.13 2.59605 91.7665 2.61102 91.7516 2.65596Z" fill="black"/>
<path d="M118.245 5.49168C118.111 5.54161 117.374 5.79622 116.607 6.05583C115.845 6.32043 115.208 6.54509 115.198 6.56006C115.183 6.57504 115.023 7.28896 114.839 8.14766L114.506 9.71029L113.529 9.72527L112.548 9.73525L112.494 10.0248C112.459 10.1796 112.339 10.7537 112.225 11.2929L112.016 12.2814H112.977C113.714 12.2814 113.938 12.2964 113.938 12.3413C113.938 12.3762 113.768 13.215 113.559 14.2035C112.573 18.9163 112.504 19.3357 112.563 20.1095C112.673 21.4325 113.345 22.2063 114.635 22.4959C115.218 22.6307 116.672 22.6207 117.444 22.4759C117.772 22.416 118.051 22.3511 118.071 22.3312C118.101 22.2962 119.017 19.8949 119.017 19.8549C119.017 19.8449 118.843 19.8799 118.634 19.9348C118.116 20.0646 117.239 20.0346 116.821 19.8749C116.268 19.6652 115.945 19.2309 115.895 18.6268C115.86 18.2473 115.989 17.5284 116.592 14.7027L117.105 12.3064L118.733 12.2914C119.63 12.2864 120.362 12.2714 120.362 12.2564C120.362 12.2415 120.486 11.6823 120.636 11.0083C120.785 10.3294 120.909 9.7702 120.909 9.75522C120.909 9.74524 120.182 9.73525 119.291 9.73525C117.947 9.73525 117.673 9.72527 117.673 9.66536C117.673 9.63041 117.877 8.65689 118.121 7.50863C118.37 6.36536 118.569 5.4168 118.569 5.40681C118.569 5.38185 118.499 5.39683 118.245 5.49168Z" fill="black"/>
<path d="M6.89207 9.51065C5.08441 9.82517 3.3166 10.9784 2.17623 12.581C1.13048 14.0538 0.498047 16.1156 0.498047 18.0327C0.498047 20.3542 1.67327 22.0217 3.69506 22.5758C4.0536 22.6757 4.22789 22.6907 5.00474 22.6907C6.02061 22.6907 6.38911 22.6308 7.14604 22.3312C7.69381 22.1165 8.23661 21.802 8.81924 21.3577C9.06325 21.168 9.26244 21.0282 9.26244 21.0382C9.26244 21.0781 9.01345 22.2364 8.98357 22.3262C8.95868 22.4111 9.05827 22.4161 10.5472 22.4161H12.1407L12.1656 22.2763C12.1806 22.2014 12.7782 19.3807 13.4903 16.0058C14.2074 12.6309 14.79 9.84015 14.79 9.8052C14.79 9.74529 14.5211 9.73531 13.2313 9.73531H11.6776L11.588 10.1447C11.5382 10.3743 11.4635 10.7138 11.4187 10.8985L11.344 11.238L11.105 10.8985C10.6319 10.2196 10.1389 9.82517 9.50645 9.60051C9.16783 9.48069 9.06325 9.47071 8.21669 9.45573C7.58426 9.44575 7.17094 9.46073 6.89207 9.51065ZM8.98357 11.9869C9.56123 12.1616 9.99447 12.561 10.2534 13.1451C10.4875 13.6644 10.5323 13.9339 10.5273 14.7777C10.5223 15.6464 10.4227 16.2454 10.1538 17.0093C9.56621 18.6718 8.44078 19.845 7.09624 20.1945C6.73272 20.2893 5.98575 20.2893 5.65211 20.1994C5.25373 20.0946 4.92506 19.8999 4.65118 19.6103C4.14324 19.0712 3.95899 18.492 3.96397 17.4237C3.96895 16.2904 4.203 15.2919 4.69101 14.3383C5.65211 12.4412 7.39005 11.4877 8.98357 11.9869Z" fill="black"/>
<path d="M23.2351 9.51557C19.9186 10.1346 17.369 13.2599 16.9806 17.169C16.7266 19.765 17.6777 21.6622 19.6198 22.411C20.6158 22.8004 22.0948 22.8154 23.2053 22.456C23.8825 22.2413 24.8585 21.6871 25.5408 21.133L25.7101 20.9932L25.6802 21.1429C25.3217 22.9652 25.0129 23.8538 24.4303 24.7375C24.0966 25.2318 23.524 25.7859 23.1007 26.0255C22.0002 26.6396 20.5959 26.6446 19.8041 26.0355C19.3559 25.6911 18.9774 24.9222 18.8928 24.1684C18.8729 23.9737 18.838 23.8638 18.8031 23.8788C17.9715 24.1983 15.7655 25.1519 15.7505 25.1968C15.7207 25.2767 15.9647 26.1454 16.144 26.5797C16.6369 27.7879 17.847 28.5867 19.5003 28.8113C20.073 28.8862 21.6466 28.8413 22.2242 28.7364C25.1972 28.1773 27.3634 26.2602 28.2996 23.3646C28.4838 22.8004 28.5087 22.7006 29.6292 17.3986C30.4259 13.6543 30.8741 11.5525 31.1131 10.4192L31.2625 9.73524H29.679H28.0904L28.0107 10.1197C27.8464 10.8585 27.7916 11.0932 27.7717 11.1131C27.7568 11.1281 27.6671 11.0233 27.5675 10.8885C27.1293 10.2894 26.467 9.8251 25.72 9.58547C25.4262 9.48562 25.237 9.47064 24.5 9.45566C23.8775 9.44568 23.514 9.46066 23.2351 9.51557ZM25.2121 11.9569C26.0388 12.1715 26.5467 12.6608 26.8305 13.5195C26.95 13.869 26.96 13.9738 26.96 14.7277C26.96 15.3268 26.9351 15.6662 26.8754 15.9758C26.4172 18.1824 25.1573 19.77 23.5289 20.1944C23.1654 20.2842 22.4185 20.2892 22.0848 20.1994C21.537 20.0546 21.0391 19.6752 20.7702 19.2009C20.4963 18.7266 20.3967 18.2374 20.4017 17.4236C20.4066 16.0856 20.7552 14.8924 21.4474 13.8041C21.791 13.2649 22.5479 12.551 23.0409 12.2914C23.773 11.9119 24.5697 11.7871 25.2121 11.9569Z" fill="black"/>
<path d="M41.2531 9.53054C40.4613 9.72524 39.6845 10.2095 38.808 11.0532C38.4993 11.3478 38.2453 11.5724 38.2453 11.5475C38.2453 11.5225 38.325 11.1081 38.4196 10.6339C38.5142 10.1596 38.5939 9.76019 38.5939 9.7502C38.5939 9.74022 37.9017 9.73523 37.0552 9.73523H35.5164L35.4865 9.87002C35.4367 10.1047 33.8681 17.5534 33.6888 18.3971C33.5942 18.8364 33.3701 19.8898 33.1909 20.7435C33.0116 21.5923 32.8572 22.3212 32.8423 22.3511C32.8273 22.401 33.156 22.416 34.4009 22.416H35.9795L36.6468 19.2808C37.3888 15.7811 37.4635 15.4965 37.7723 14.8525C38.5989 13.1201 40.0779 12.0517 41.3328 12.2814C41.766 12.3612 42.0001 12.4911 42.3288 12.8305L42.6026 13.1201L43.2749 12.0717C44.5049 10.1496 44.3954 10.3443 44.2908 10.2295C44.1065 10.0248 43.4592 9.63538 43.1454 9.53553C42.7172 9.40573 41.776 9.40073 41.2531 9.53054Z" fill="black"/>
<path d="M78.8053 9.51558C76.5594 9.86006 74.7816 10.9534 73.6014 12.7207C72.1822 14.8475 71.6045 18.1076 72.3116 20.0197C72.5556 20.6737 73.0486 21.3327 73.6014 21.7421C74.4778 22.3861 75.7527 22.7156 77.3761 22.7156C79.1837 22.7156 80.5781 22.3312 81.8529 21.4725C83.7402 20.2044 85.0848 17.8529 85.4333 15.207C85.528 14.4831 85.5031 13.4546 85.3786 12.8555C84.9752 10.9484 83.7004 9.84009 81.5441 9.51059C80.9217 9.41573 79.4227 9.42072 78.8053 9.51558ZM80.4884 11.9818C81.2254 12.2115 81.7085 12.7706 81.9525 13.6843C82.0819 14.1585 82.067 15.2369 81.9226 15.9259C81.5342 17.798 80.5432 19.3407 79.363 19.9198C78.8202 20.1844 78.4616 20.2693 77.884 20.2693C77.0972 20.2693 76.5992 20.0746 76.151 19.6003C75.8622 19.2958 75.6979 18.9762 75.5584 18.472C75.429 17.9877 75.4389 16.7746 75.5833 16.0906C75.8074 15.0372 76.2208 14.1186 76.7884 13.4147C77.8143 12.1316 79.2236 11.5874 80.4884 11.9818Z" fill="black"/>
<path d="M51.64 9.59045C49.8025 9.75021 48.1093 10.5041 46.8843 11.7072C45.3356 13.2249 44.3546 15.7411 44.3496 18.1974C44.3496 19.0511 44.4392 19.6203 44.6733 20.2193C45.3705 22.0366 47.2678 22.9602 50.0714 22.8504C52.2127 22.7655 53.7863 22.1364 55.1457 20.8234C56.3957 19.6103 57.2821 17.9078 57.6755 15.9608C57.7751 15.4815 57.79 15.2419 57.79 14.3283C57.79 13.3747 57.7751 13.205 57.6755 12.8056C57.531 12.2414 57.1974 11.5475 56.8737 11.1531C55.8977 9.9549 53.9904 9.38576 51.64 9.59045ZM52.5164 12.0367C53.358 12.1915 53.9755 12.7706 54.2544 13.6793C54.3042 13.844 54.349 14.2085 54.3639 14.6029C54.4536 16.8395 53.2485 19.2907 51.6748 20.0696C50.5395 20.6287 49.2198 20.5089 48.5077 19.775C48.0048 19.2558 47.8056 18.6317 47.8056 17.5734C47.8056 16.4351 48.0247 15.4865 48.5276 14.493C49.0256 13.4995 49.7128 12.7756 50.5693 12.3513C51.2516 12.0118 51.8541 11.9169 52.5164 12.0367Z" fill="black"/>
<path d="M97.33 9.79516C97.32 9.8301 97.2553 10.1297 97.1855 10.4592C97.1158 10.7887 96.7424 12.541 96.3589 14.3532C95.4576 18.5669 95.4526 18.5918 95.4476 19.4455C95.4377 20.5389 95.6418 21.098 96.2842 21.747C96.9067 22.3761 97.6636 22.6557 98.8787 22.7006C100.472 22.7655 101.483 22.406 102.997 21.2478C103.236 21.0681 103.43 20.9483 103.43 20.9832C103.43 21.0431 103.256 21.8768 103.156 22.3012L103.131 22.416H104.695C106.144 22.416 106.264 22.411 106.289 22.3262C106.313 22.2463 106.408 21.807 106.841 19.7451C106.936 19.2758 107.06 18.6917 107.115 18.447C107.2 18.0626 108.305 12.8256 108.764 10.6339C108.848 10.2345 108.928 9.87004 108.938 9.82012C108.963 9.74024 108.868 9.73525 107.394 9.73525C105.945 9.73525 105.825 9.74024 105.801 9.82012C105.786 9.87004 105.586 10.8186 105.352 11.9319C105.118 13.0452 104.78 14.6578 104.6 15.5115C104.097 17.9328 103.948 18.3073 103.231 19.0262C102.882 19.3756 102.718 19.5004 102.379 19.6602C101.782 19.9498 101.408 20.0396 100.791 20.0396C99.7999 20.0446 99.2522 19.7101 98.9384 18.9163C98.804 18.5719 98.794 17.7531 98.9185 17.0991C98.9882 16.7446 100.383 10.1646 100.462 9.82012C100.482 9.74024 100.383 9.73525 98.9185 9.73525C97.7084 9.73525 97.3449 9.75023 97.33 9.79516Z" fill="black"/>
<path d="M66.6937 15.4466C66.604 15.6663 66.0961 16.9843 65.5583 18.3722C64.3781 21.4175 63.9399 22.466 63.2676 23.8389C62.5555 25.2917 61.8484 26.4 60.7329 27.8079C58.8257 30.2142 56.0818 31.9067 53.7314 32.1263C53.079 32.1862 53.084 32.1862 53.084 32.3809V32.5607L53.4475 32.5307C55.5539 32.341 56.8935 31.9416 59.1195 30.8233C60.947 29.9047 62.197 29.011 63.5664 27.6331C63.9249 27.2787 64.403 26.7495 64.637 26.4599C65.13 25.8408 65.9168 24.6576 66.4547 23.7141C67.3908 22.0865 68.5063 19.4505 68.7404 18.3023C68.8947 17.5634 68.82 16.8395 68.5362 16.3153C68.3569 15.9858 67.8739 15.5414 67.4456 15.3168C66.8182 14.9873 66.873 14.9773 66.6937 15.4466Z" fill="#137138"/>
<path d="M62.722 18.3684C62.8116 18.1487 63.3193 16.8306 63.8568 15.4426C65.0364 12.397 65.4744 11.3485 66.1463 9.97541C66.8581 8.52246 67.565 7.41399 68.6802 6.00588C70.5869 3.59912 73.3304 1.90611 75.6808 1.68594C76.3332 1.6259 76.3282 1.6259 76.3282 1.43119L76.3281 1.25146L75.9646 1.2815C73.8582 1.47165 72.5187 1.87133 70.293 2.99011C68.4656 3.9091 67.2159 4.80302 65.8468 6.18122C65.4883 6.53576 65.0103 7.06506 64.7764 7.35467C64.2835 7.97383 63.4969 9.15721 62.9593 10.1009C62.0235 11.7286 60.9085 14.3649 60.6747 15.5132C60.5205 16.2521 60.5954 16.976 60.8793 17.5001C61.0587 17.8296 61.5418 18.2738 61.9701 18.4984C62.5976 18.8277 62.5429 18.8377 62.722 18.3684Z" fill="#2FA827"/>
</svg>
