<svg width="135" height="40" viewBox="0 0 135 40" fill="none" xmlns="http://www.w3.org/2000/svg">
<path d="M108.935 18.0486V27.6585H107.722V26.0106C106.622 27.3258 105.368 27.985 103.964 27.985C102.55 27.985 101.355 27.4829 100.391 26.4819C99.4238 25.4685 98.9434 24.2673 98.9434 22.8782C98.9434 21.4768 99.4331 20.2817 100.409 19.3053C101.386 18.3043 102.559 17.8022 103.921 17.8022C105.492 17.8023 106.764 18.4737 107.74 19.8135V18.0579H108.954L108.935 18.0486ZM107.814 22.9244C107.814 21.8248 107.444 20.9008 106.708 20.1523C105.972 19.3916 105.067 19.0127 103.992 19.0127C102.929 19.0127 102.03 19.4039 101.293 20.1893C100.557 20.9624 100.188 21.8803 100.188 22.9429C100.188 24.0055 100.563 24.9295 101.312 25.7149C102.06 26.488 102.954 26.873 103.992 26.873C105.042 26.873 105.941 26.4973 106.69 25.7488C107.438 25.0004 107.814 24.0579 107.814 22.9244Z" fill="#455362"/>
<path d="M111.783 27.5966V14.5988H114.481C116.329 14.5988 117.684 14.7377 118.547 15.0146C119.415 15.2801 120.164 15.7076 120.792 16.299C121.42 16.878 121.904 17.5895 122.24 18.4365C122.578 19.2805 122.748 20.2722 122.748 21.4057C122.748 22.5299 122.482 23.5895 121.95 24.5782C121.429 25.5669 120.718 26.3153 119.812 26.8235C118.919 27.3318 117.629 27.5843 115.932 27.5843H111.773L111.783 27.5966ZM113.024 26.3523H114.527C116.098 26.3523 117.231 26.2738 117.946 26.117C118.657 25.9599 119.28 25.6519 119.812 25.193C120.342 24.7217 120.749 24.155 121.026 23.4897C121.303 22.8244 121.442 22.0667 121.442 21.2074C121.442 20.3511 121.279 19.5595 120.952 18.8357C120.638 18.1119 120.185 17.5143 119.594 17.0431C119.002 16.5718 118.303 16.2577 117.493 16.1006C116.695 15.9315 115.519 15.8471 113.951 15.8471H113.027V26.3501" fill="#455362"/>
<path d="M94.8418 15.2765C94.8418 14.999 94.9385 14.756 95.1316 14.5527C95.3368 14.3476 95.5782 14.245 95.8555 14.245C96.1453 14.245 96.3852 14.3476 96.5793 14.5527C96.7844 14.7458 96.8873 14.987 96.8873 15.2765C96.8873 15.5543 96.7847 15.797 96.5793 16.0003C96.3861 16.1934 96.145 16.2902 95.8555 16.2902C95.5779 16.2902 95.3349 16.1876 95.1316 15.9825C94.9385 15.7773 94.8418 15.542 94.8418 15.2771V15.2765ZM95.2391 17.9568H96.4896V27.5666H95.2391V17.9568Z" fill="#455362"/>
<path d="M60.498 27.5966L62.3461 14.5988H62.5454L67.8431 25.2558L73.0792 14.5988H73.2785L75.145 27.5966H73.8606L72.5916 18.2948L68.0023 27.5966H67.6758L63.0249 18.2024L61.7559 27.5966H60.5055" fill="#455362"/>
<path d="M86.9097 18.0486V27.6585H85.6962V26.0106C84.5966 27.3258 83.343 27.985 81.9385 27.985C80.5247 27.985 79.3296 27.4829 78.3656 26.4819C77.3984 25.4685 76.918 24.2673 76.918 22.8782C76.918 21.4768 77.4077 20.2817 78.384 19.3053C79.3604 18.3043 80.5339 17.8022 81.8953 17.8022C83.4662 17.8023 84.7382 18.4737 85.7146 19.8135V18.0579H86.9282L86.9097 18.0486ZM85.7885 22.9244C85.7885 21.8248 85.4189 20.9008 84.6828 20.1523C83.9467 19.3916 83.0411 19.0127 81.9662 19.0127C80.9035 19.0127 80.0042 19.4039 79.268 20.1893C78.5319 20.9624 78.1623 21.8803 78.1623 22.9429C78.1623 24.0055 78.5381 24.9295 79.2865 25.7149C80.035 26.488 80.9282 26.873 81.9662 26.873C83.0165 26.873 83.9159 26.4973 84.6643 25.7488C85.4128 25.0004 85.7855 24.0579 85.7885 22.9244Z" fill="#455362"/>
<path d="M89.1399 18.0486H90.4089V19.4439C90.7477 18.8771 91.0742 18.4613 91.3853 18.1934C91.7118 17.9279 92.066 17.796 92.4541 17.796C92.8514 17.796 93.2518 17.9047 93.6491 18.1225L92.9962 19.1728C92.8151 19.0641 92.6265 19.0099 92.4356 19.0099C92.0598 19.0099 91.7056 19.203 91.3668 19.5889C91.0403 19.9739 90.8001 20.476 90.643 21.092C90.4859 21.6957 90.4077 22.8014 90.4077 24.4185V27.6834H89.1387V18.0735" fill="#455362"/>
<path d="M125.184 14.6604H127.755C129.12 14.6604 130.152 14.9383 130.866 15.4921C131.578 16.0341 131.935 16.8196 131.935 17.8452C131.935 18.412 131.79 18.9387 131.501 19.4191C131.223 19.8904 130.814 20.2692 130.269 20.5588C131.162 20.8486 131.84 21.2826 132.295 21.8616C132.767 22.4407 133.001 23.1306 133.001 23.9253C133.001 25.0002 132.61 25.8934 131.824 26.6049C131.039 27.3041 130.025 27.6552 128.781 27.6552H125.208V14.6573L125.184 14.6604ZM126.493 15.9263V20.0844H127.235C128.368 20.0844 129.215 19.9033 129.77 19.5423C130.324 19.1789 130.601 18.6122 130.601 17.8391C130.601 16.5608 129.733 15.9202 127.993 15.9202H126.49L126.493 15.9263ZM126.49 21.4027V26.3924H128.1C129.031 26.3924 129.711 26.3019 130.146 26.1208C130.592 25.9276 130.956 25.6372 131.233 25.2522C131.51 24.8548 131.649 24.4483 131.649 24.0386C131.649 23.629 131.57 23.2655 131.413 22.9514C131.256 22.6372 131.022 22.36 130.708 22.1197C130.406 21.8783 130.037 21.6978 129.602 21.5777C129.18 21.4569 128.383 21.3965 127.212 21.3965H126.488" fill="#455362"/>
<path d="M52.8099 3.55555C51.545 3.58692 50.7983 4.13146 50.5531 5.1705C50.8774 5.44945 51.3139 5.5709 51.749 5.55222C52.7051 5.51218 53.6525 4.79279 53.3842 3.57357C53.1829 3.55689 52.991 3.55022 52.8099 3.55555ZM59.3249 0H59.2121C58.31 0.0286953 58.1702 0.511845 56.2221 0.985652C54.2545 1.46413 52.3538 1.00434 50.2355 1.88255C43.909 4.50317 42.5609 13.5422 36.8108 16.7501C32.5134 19.1478 28.3565 20.2122 24.4591 21.4181C21.8969 22.2109 19.3562 23.1238 17.0346 25.0991C15.2325 26.634 14.7372 27.8251 12.8608 29.7504C10.9452 31.7077 5.0545 28.2436 2.18482 30.7781C2.1258 30.8313 2.07883 30.8963 2.04699 30.9687C2.01514 31.0411 1.99914 31.1193 2.00004 31.1983C2.00093 31.2772 2.01869 31.3551 2.05217 31.4268C2.08564 31.4984 2.13407 31.5623 2.19428 31.6143C2.81592 32.1515 3.99838 33.4307 5.12409 33.8258C4.76733 34.4931 2.75038 36.4591 3.16188 37.4428C3.59432 38.4771 8.59446 37.7744 13.2162 35.0183C15.3683 33.7344 17.0832 31.8845 20.436 31.4434C24.774 30.8729 29.7721 31.8105 34.7945 32.5245C34.0492 34.7174 32.5546 36.1768 31.3566 37.9299C30.9849 38.325 32.1019 38.369 33.3742 38.1301C35.6716 37.5709 37.3148 37.1204 39.05 36.1281C41.1737 34.9069 41.496 31.7771 44.1002 31.1004C45.3597 33.0123 48.4922 33.6563 50.9071 32.6353C51.0409 32.5792 51.172 32.5172 51.3004 32.4518C51.5909 32.2015 51.4206 31.9092 51.2423 31.6943C51.1574 31.6167 51.0758 31.5357 50.9977 31.4514C49.6382 30.0087 49.3273 26.6026 49.9301 24.9463C50.6172 23.0617 51.2963 20.046 51.9882 17.5555C52.7315 14.8862 53.0058 11.5075 53.9052 10.1441C55.2579 8.09409 56.7532 7.39005 58.0512 6.23356C59.3493 5.07707 60.5378 3.95128 60.4972 1.30597C60.4783 0.489823 60.0722 0.02002 59.3249 0ZM59.4628 2.77811C59.1945 4.6026 58.0141 5.6056 56.6194 6.57324C55.4032 7.42075 54.0559 8.2369 53.1937 9.56089C52.3119 10.9156 51.7517 15.5569 50.3828 20.1395C49.2476 23.9419 47.5557 27.7037 44.6617 29.5155C44.4738 29.633 44.2259 29.5255 44.186 29.3153C43.9833 28.2529 44.0238 26.3123 43.69 26.9396C43.2711 28.1208 42.7968 29.2472 42.242 30.2943C40.5393 33.5082 38.0757 35.97 34.0952 36.9342C34.0247 36.95 33.9511 36.9444 33.8839 36.9181C33.8167 36.8918 33.7592 36.846 33.7189 36.7868C33.6785 36.7276 33.6572 36.6578 33.6578 36.5864C33.6584 36.5151 33.6809 36.4456 33.7222 36.387C35.5587 33.8712 37.202 31.1651 37.4027 27.035C37.4196 26.6787 36.9662 26.5158 36.7385 26.7921C35.8709 27.8485 35.6574 30.3603 34.3891 31.1338C33.3931 31.2406 32.3843 31.2406 31.3687 31.1805C27.1997 30.9336 22.9212 29.695 19.0211 30.9316C16.3656 31.7738 13.577 34.1682 11.3276 35.1311C8.68433 36.2562 7.43159 37.324 4.09366 37.2506C3.75243 36.7968 5.48694 34.8328 6.07615 33.9853C6.26399 33.7137 5.86195 33.4281 5.48559 33.2512C4.58151 32.8415 3.67473 31.7297 2.71051 31.2959C2.83416 31.0711 3.27134 30.8462 3.51256 30.7087C5.70181 29.4541 11.5074 32.1261 13.0669 30.6133C14.0297 29.6803 14.6784 28.8608 15.3325 27.9106C15.9676 26.9896 16.9325 26.0167 17.9319 25.2099C18.3562 24.8741 18.7935 24.5547 19.2427 24.2522C20.9455 23.1018 21.8827 23.0163 24.0875 22.2075C26.8929 21.1772 30.3667 20.2736 33.3762 19.1378C35.2357 18.4351 37.2574 17.5696 38.9054 16.355C39.2973 16.0667 39.6669 15.7591 40.0095 15.4301C44.7151 10.8922 45.6482 2.90691 52.9829 2.16216C53.8707 2.07207 54.5018 2.03403 55.164 2.01335C55.9046 1.99333 56.637 1.81315 57.3688 1.46747C57.5945 1.37004 58.9391 0.566566 59.3932 0.954954C59.6959 1.21388 59.4709 2.61795 59.4513 2.7701" fill="#444B5E"/>
</svg>
